STARTFONT 2.1
FONT HAN-GB2312
SIZE 16 72 72
FONTBOUNDINGBOX 16 16 0 0
STARTPROPERTIES 1
BITCOUNT 8
ENDPROPERTIES
CHARS 6836
STARTCHAR  00A8
ENCODING  168
SWIDTH  1000 0
DWIDTH  16 0
BBX  6 3 1 9
BITMAP
FFFF30FFFF30
FFFF30FFFF30
303000303000
ENDCHAR
STARTCHAR  00B0
ENCODING  176
SWIDTH  1000 0
DWIDTH  7 0
BBX  5 6 1 6
BITMAP
20C0FFC020
C0F080F0C0
FFA000A0FF
E0E030E0E0
40F0FFF040
0020402000
ENDCHAR
STARTCHAR  00B1
ENCODING  177
SWIDTH  1000 0
DWIDTH  11 0
BBX  9 11 1 -1
BITMAP
00000080FF00000000
00000080FF00000000
00000080FF00000000
202020A0FF20202020
FFFFFFFFFFFFFFFFFF
606060A0FF60606060
00000080FF00000000
00000080FF00000000
202020202020202020
FFFFFFFFFFFFFFFFFF
606060606060606060
ENDCHAR
STARTCHAR  00B7
ENCODING  183
SWIDTH  1000 0
DWIDTH  9 0
BBX  3 3 3 4
BITMAP
303020
FFFFE0
FFFFE0
ENDCHAR
STARTCHAR  00D7
ENCODING  215
SWIDTH  1000 0
DWIDTH  9 0
BBX  9 8 0 1
BITMAP
008060000000608000
00A0FF600060FFC000
0000A0FFC0FFA00000
000000E0FFE0000000
000080FFE0FFA00000
0080FFA00080FFA000
00A08000000080A000
000000000000000000
ENDCHAR
STARTCHAR  00F7
ENCODING  247
SWIDTH  1000 0
DWIDTH  11 0
BBX  9 9 1 1
BITMAP
000000102000000000
00000080FF00000000
000000306000000000
202020202020202020
FFFFFFFFFFFFFFFFFF
606060606060606060
000000102000000000
00000080FF00000000
000000306000000000
ENDCHAR
STARTCHAR  02C7
ENCODING  711
SWIDTH  1000 0
DWIDTH  7 0
BBX  7 4 0 8
BITMAP
40FFE030E0F040
0040FFFFF03000
000040F0300000
00000010000000
ENDCHAR
STARTCHAR  02C9
ENCODING  713
SWIDTH  1000 0
DWIDTH  7 0
BBX  5 3 1 9
BITMAP
2020202020
FFFFFFFFFF
6060606060
ENDCHAR
STARTCHAR  2014
ENCODING  8212
SWIDTH  1000 0
DWIDTH  18 0
BBX  16 3 1 4
BITMAP
20202020202020202020202020202020
FFFFFFFFFFFFFFFFFFFFFFFFFFFFFFFF
60606060606060606060606060606060
ENDCHAR
STARTCHAR  2018
ENCODING  8216
SWIDTH  1000 0
DWIDTH  15 0
BBX  2 3 10 9
BITMAP
E030
FF80
FF80
ENDCHAR
STARTCHAR  2019
ENCODING  8217
SWIDTH  1000 0
DWIDTH  15 0
BBX  2 3 3 9
BITMAP
FF80
E060
2010
ENDCHAR
STARTCHAR  201C
ENCODING  8220
SWIDTH  1000 0
DWIDTH  16 0
BBX  5 3 8 9
BITMAP
A0A000E080
F0FF40FFFF
FFFF40FFFF
ENDCHAR
STARTCHAR  201D
ENCODING  8221
SWIDTH  1000 0
DWIDTH  16 0
BBX  5 3 3 9
BITMAP
FFFF40FFFF
C0F020E0E0
2020002020
ENDCHAR
STARTCHAR  2026
ENCODING  8230
SWIDTH  1000 0
DWIDTH  16 0
BBX  13 3 2 4
BITMAP
10100000001010000000101000
FFFF300000FFFF300000FFFF30
FFFF300000FFFF300000FFFF30
ENDCHAR
STARTCHAR  2030
ENCODING  8240
SWIDTH  1000 0
DWIDTH  19 0
BBX  18 13 1 -1
BITMAP
60F0FFF060000040FF600000000000000000
F0E080E0F00000C0E0000000000000000000
FF800080FF0040FF60000000000000000000
FF800080FF00C0F010000000000000000000
FFA020A0FF30FF8000000000000000000000
A0FFFFFFA0A0F01020200000000020200000
0040604020FFA0E0FFFFE01010E0FFFFE010
0000000080FFA0FF6060FF8080FF6060FF80
00000010F0A080FF0000FF8080FF0000FF80
00000080FF3080FF0000FF8080FF0000FF80
000000E0C00080FF0000FF8080FF0000FF80
000060FF400060FF8080FF6060FF8080FF60
0000E0C0000010C0FFFFA01010A0FFFFA010
ENDCHAR
STARTCHAR  2032
ENCODING  8242
SWIDTH  1000 0
DWIDTH  16 0
BBX  4 4 2 8
BITMAP
00C0E000
10FF8000
60FF3000
C0E00000
ENDCHAR
STARTCHAR  2033
ENCODING  8243
SWIDTH  1000 0
DWIDTH  16 0
BBX  7 4 1 8
BITMAP
0000E0E060FF30
0020FF80C0E000
0080FF30FF8000
00E0C060FF2000
ENDCHAR
STARTCHAR  2103
ENCODING  8451
SWIDTH  1000 0
DWIDTH  17 0
BBX  17 14 0 -1
BITMAP
0010606010000000406080808080808020
10E0FFFFE01010C0FFFFFFFFFFFFFFFF60
60FF4040FF60A0FF602020202020202000
60FF4040FF60F0A0000000000000000000
10E0FFFFE010FF80000000000000000000
001060601000FF80000000000000000000
000000000000FF80000000000000000000
000000000000FF80000000000000000000
000000000000FF80000000000000000000
000000000000FF80000000000000000000
000000000000FF80000000000000000000
000000000000E0E0000000000000000000
00000000000060FFE08080808080808040
0000000000000060E0FFFFFFFFFFFFFF80
ENDCHAR
STARTCHAR  221E
ENCODING  8734
SWIDTH  1000 0
DWIDTH  13 0
BBX  11 6 1 3
BITMAP
0030808020002080803000
40FFFFFFF080F0FFFFFF60
E0E02020E0FFE02020E0E0
F0A0000080FFA00000A0F0
A0FFA0A0FFE0FFA0A0FFA0
10A0F0F0800080F0F0A010
ENDCHAR
STARTCHAR  2234
ENCODING  8756
SWIDTH  1000 0
DWIDTH  14 0
BBX  12 13 1 -1
BITMAP
0000000060FFFF0000000000
0000000060FFFF0000000000
000000002060600000000000
000000000000000000000000
000000000000000000000000
000000000000000000000000
000000000000000000000000
000000000000000000000000
000000000000000000000000
000000000000000000000000
FFFF60000000000000C0FFA0
FFFF60000000000000C0FFA0
606020000000000000406040
ENDCHAR
STARTCHAR  2235
ENCODING  8757
SWIDTH  1000 0
DWIDTH  14 0
BBX  12 13 1 -1
BITMAP
FFFF60000000000000C0FFA0
FFFF60000000000000C0FFA0
606020000000000000406040
000000000000000000000000
000000000000000000000000
000000000000000000000000
000000000000000000000000
000000000000000000000000
000000000000000000000000
000000000000000000000000
0000000060FFFF0000000000
0000000060FFFF0000000000
000000002060600000000000
ENDCHAR
STARTCHAR  2236
ENCODING  8758
SWIDTH  1000 0
DWIDTH  16 0
BBX  0 0 0 0
BITMAP
ENDCHAR
STARTCHAR  2503
ENCODING  9475
SWIDTH  1000 0
DWIDTH  16 0
BBX  0 0 0 0
BITMAP
ENDCHAR
STARTCHAR  2505
ENCODING  9477
SWIDTH  1000 0
DWIDTH  16 0
BBX  14 3 1 4
BITMAP
30FFFF000000FFFF300000E0FF60
30FFFF000000FFFF300000E0FF60
0030300000003030000000203010
ENDCHAR
STARTCHAR  2507
ENCODING  9479
SWIDTH  1000 0
DWIDTH  16 0
BBX  0 0 0 0
BITMAP
ENDCHAR
STARTCHAR  3000
ENCODING  12288
SWIDTH  1000 0
DWIDTH  16 0
BBX  0 0 0 0
BITMAP
ENDCHAR
STARTCHAR  3001
ENCODING  12289
SWIDTH  1000 0
DWIDTH  16 0
BBX  4 5 3 -2
BITMAP
80A00000
60FF6000
00E0E000
0060FF60
0000A080
ENDCHAR
STARTCHAR  3002
ENCODING  12290
SWIDTH  1000 0
DWIDTH  16 0
BBX  5 5 3 -2
BITMAP
0030603000
30F0FFFF30
60FF30FF60
30F0FFF030
0030603000
ENDCHAR
STARTCHAR  3008
ENCODING  12296
SWIDTH  1000 0
DWIDTH  16 0
BBX  6 15 7 -2
BITMAP
00000060FF30
000000C0E000
000030FF6000
0000A0F00000
0010F0800000
0080FF200000
00E0A0000000
10FF80000000
00A0E0000000
0040FF600000
0000E0C00000
000060FF3000
000010F0A000
00000080F010
000000208020
ENDCHAR
STARTCHAR  3009
ENCODING  12297
SWIDTH  1000 0
DWIDTH  16 0
BBX  5 15 3 -2
BITMAP
A0E0000000
40FF400000
00E0C00000
0060FF2000
0010F08000
0000A0F010
000030FF60
000010F080
000060FF30
0000E0C000
0040FF4000
00A0E00000
20FF800000
80F0100000
6060000000
ENDCHAR
STARTCHAR  300A
ENCODING  12298
SWIDTH  1000 0
DWIDTH  16 0
BBX  9 15 5 -2
BITMAP
00000080FF20A0E000
000000E0A020FF8000
000040FF4080F01000
0000C0E010F0A00000
0020FF6060FF300000
00A0F010E0C0000000
10F0A040FF60000000
20FF6060FF30000000
00C0E010F0A0000000
0060FF4080F0100000
0000E0A020FF800000
000080FF20C0E00000
000010FF8040FF4000
000000A0F010E0C000
000000208020408000
ENDCHAR
STARTCHAR  300B
ENCODING  12299
SWIDTH  1000 0
DWIDTH  16 0
BBX  9 15 2 -2
BITMAP
00E0C020FF80000000
0060FF20A0E0000000
0010F0A040FF600000
0000A0F010E0C00000
000030FF6060FF3000
000000C0E010F0A000
00000060FF4080F010
00000030FF6060FF30
000000A0F010E0E000
000010F0A030FF6000
000060FF30A0F00000
0000E0C010F0800000
0040FF6080FF200000
00A0E000E0A0000000
008040108030000000
ENDCHAR
STARTCHAR  300C
ENCODING  12300
SWIDTH  1000 0
DWIDTH  16 0
BBX  5 15 9 -2
BITMAP
8080808010
FFFFFFFF30
FF80000000
FF80000000
FF80000000
FF80000000
FF80000000
FF80000000
FF80000000
FF80000000
FF80000000
FF80000000
FF80000000
FF80000000
A060000000
ENDCHAR
STARTCHAR  300D
ENCODING  12301
SWIDTH  1000 0
DWIDTH  16 0
BBX  5 15 2 -2
BITMAP
00000060A0
00000080FF
00000080FF
00000080FF
00000080FF
00000080FF
00000080FF
00000080FF
00000080FF
00000080FF
00000080FF
00000080FF
00000080FF
20FFFFFFFF
1080808080
ENDCHAR
STARTCHAR  300E
ENCODING  12302
SWIDTH  1000 0
DWIDTH  16 0
BBX  7 15 7 -2
BITMAP
10FFFFFFFFFF10
10FFA060A0FF10
10FF80FFFFFF10
10FF80FF806000
10FF80FF300000
10FF80FF300000
10FF80FF300000
10FF80FF300000
10FF80FF300000
10FF80FF300000
10FF80FF300000
10FF80FF300000
10FF80FF300000
10FFFFFF300000
00606060100000
ENDCHAR
STARTCHAR  300F
ENCODING  12303
SWIDTH  1000 0
DWIDTH  16 0
BBX  6 15 2 -2
BITMAP
0020FFFFFF30
0020FFA0FF30
0020FF80FF30
0020FF80FF30
0020FF80FF30
0020FF80FF30
0020FF80FF30
0020FF80FF30
0020FF80FF30
0020FF80FF30
0020FF80FF30
FFFFFF80FF30
FFA06060FF30
FFFFFFFFFF30
606060606010
ENDCHAR
STARTCHAR  3010
ENCODING  12304
SWIDTH  1000 0
DWIDTH  16 0
BBX  5 15 9 -2
BITMAP
E0FFFFFF80
E0FFFFFF20
E0FFFFC000
E0FFFF8000
E0FFFF4000
E0FFFF1000
E0FFFF0000
E0FFFF0000
E0FFFF1000
E0FFFF3000
E0FFFF6000
E0FFFFA000
E0FFFFF010
E0FFFFFF60
4040404030
ENDCHAR
STARTCHAR  3011
ENCODING  12305
SWIDTH  1000 0
DWIDTH  16 0
BBX  5 15 2 -2
BITMAP
60FFFFFFFF
10F0FFFFFF
00A0FFFFFF
0040FFFFFF
0010FFFFFF
0000F0FFFF
0000E0FFFF
0000E0FFFF
0000E0FFFF
0010FFFFFF
0040FFFFFF
0080FFFFFF
00E0FFFFFF
40FFFFFFFF
2040404040
ENDCHAR
STARTCHAR  3014
ENCODING  12308
SWIDTH  1000 0
DWIDTH  16 0
BBX  5 16 9 -2
BITMAP
0000000000
0040A0F010
E0FFFFA000
FFA0100000
FF80000000
FF80000000
FF80000000
FF80000000
FF80000000
FF80000000
FF80000000
FF80000000
FF80000000
FFE0601000
80E0FFF010
000040A010
ENDCHAR
STARTCHAR  3015
ENCODING  12309
SWIDTH  1000 0
DWIDTH  16 0
BBX  5 16 2 -2
BITMAP
0000000000
10F0A04000
00A0FFFFE0
000010A0FF
00000080FF
00000080FF
00000080FF
00000080FF
00000080FF
00000080FF
00000080FF
00000080FF
00000080FF
001060E0FF
10F0FFE080
10A0400000
ENDCHAR
STARTCHAR  4E00
ENCODING  19968
SWIDTH  1000 0
DWIDTH  16 0
BBX  15 2 1 5
BITMAP
FFFFFFFFFFFFFFFFFFFFFFFFFFFFA0
A0A0A0A0A0A0A0A0A0A0A0A0A0A060
ENDCHAR
STARTCHAR  4E01
ENCODING  19969
SWIDTH  1000 0
DWIDTH  16 0
BBX  15 15 1 -2
BITMAP
808080808080808080808080808060
FFFFFFFFFFFFFFFFFFFFFFFFFFFFC0
000000000000000080600000000000
0000000000000000FFA00000000000
0000000000000000FFA00000000000
0000000000000000FFA00000000000
0000000000000000FFA00000000000
0000000000000000FFA00000000000
0000000000000000FFA00000000000
0000000000000000FFA00000000000
0000000000000000FFA00000000000
0000000000000000FFA00000000000
0000000000000000FFA00000000000
000000E0FFFFFFFFFFA00000000000
000000608080808080600000000000
ENDCHAR
STARTCHAR  4E03
ENCODING  19971
SWIDTH  1000 0
DWIDTH  16 0
BBX  16 15 0 -2
BITMAP
0000000000A0FF000000000000000000
0000000000A0FF000000000000000000
0000000000A0FF000000000000000000
0000000000A0FF000000000000001000
0000000000A0FF20406080A0C0E0FF20
206080A0C0F0FFFFFFFFFFE0C0A08010
80FFFFE0C0E0FF604020000000000000
2020000000A0FF000000000000000000
0000000000A0FF000000000000000000
0000000000A0FF000000000000000000
0000000000A0FF000000000000000000
0000000000A0FF000000000000000000
0000000000A0FF000000000000000000
0000000000A0FFFFFFFFFFFFFFFFFF40
00000000006080808080808080808020
ENDCHAR
STARTCHAR  4E07
ENCODING  19975
SWIDTH  1000 0
DWIDTH  16 0
BBX  16 15 0 -2
BITMAP
20808080808080808080808080808020
40FFFFFFFFFFFFFFFFFFFFFFFFFFFF40
000000C0C00000000000000000000000
000000F0800000000000000000000000
000020FF600000000000000000000000
000040FFFFFFFFFFFFFFFFFFFFFF8000
000080F0808080808080808080FF8000
0000A0E0000000000000000000FF8000
0000E0A0000000000000000000FF8000
0000F080000000000000000000FF8000
0020FF40000000000000000000FF8000
0040FF20000000000000000000FF8000
0080F000000000000020202020FF8000
00A0E0000000000000F0FFFFFFFF8000
00C08000000000000060606060603000
ENDCHAR
STARTCHAR  4E08
ENCODING  19976
SWIDTH  1000 0
DWIDTH  16 0
BBX  16 16 0 -2
BITMAP
00000000000000000000000030100000
000000000000000000000000FF800000
608080808080808080808080FFC08010
E0FFFFFFFFFFFFFFFFFFFFFFFFFFFF20
000040200000000000000000FF800000
0000FF800000000000000000FF800000
0000FF800000000000000000FF800000
0000FF800000000000000000FF800000
0000FF800000000000000000FF800000
0000FFFFA0300000001060E0FF800000
000020A0F0FFC06080F0FFE060000000
0000000010A0FFFFFFF0400000000000
00000060C0FFF0A0E0FFF08020000000
1080E0FFE08010000040A0FFFFA04000
C0FFC0600000000000000020A0F0FF00
60300000000000000000000000108000
ENDCHAR
STARTCHAR  4E09
ENCODING  19977
SWIDTH  1000 0
DWIDTH  16 0
BBX  15 14 0 -1
BITMAP
008080808080808080808080808060
00FFFFFFFFFFFFFFFFFFFFFFFFFFA0
000000000000000000000000000000
000000000000000000000000000000
000000000000000000000000000000
000000000000000000000000000000
008080808080808080808080808000
00E0FFFFFFFFFFFFFFFFFFFFFFFF00
000000000000000000000000000000
000000000000000000000000000000
000000000000000000000000000000
000000000000000000000000000000
608080808080808080808080808080
C0FFFFFFFFFFFFFFFFFFFFFFFFFFFF
ENDCHAR
STARTCHAR  4E0A
ENCODING  19978
SWIDTH  1000 0
DWIDTH  16 0
BBX  15 16 0 -2
BITMAP
000000000000100000000000000000
000000000000FF8000000000000000
000000000000FF8000000000000000
000000000000FF8000000000000000
000000000000FF8000000000000000
000000000000FFFFFFFFFFFFFFFFE0
000000000000FFC080808080808060
000000000000FF8000000000000000
000000000000FF8000000000000000
000000000000FF8000000000000000
000000000000FF8000000000000000
000000000000FF8000000000000000
000000000000FF8000000000000000
000000000000000000000000000000
C0FFFFFFFFFFFFFFFFFFFFFFFFFFFF
608080808080808080808080808080
ENDCHAR
STARTCHAR  4E0B
ENCODING  19979
SWIDTH  1000 0
DWIDTH  16 0
BBX  15 15 1 -2
BITMAP
808080808080808080808080808060
FFFFFFFFFFFFFFFFFFFFFFFFFFFFE0
000000000030200000000000000000
0000000000FF800000302000000000
0000000000FF800000E0E000000000
0000000000FF80000080FF30000000
0000000000FF80000010FF80000000
0000000000FF80000000A0F0000000
0000000000FF8000000040FF600000
0000000000FF8000000000E0C00000
0000000000FF800000000080FF2000
0000000000FF800000000020FF8000
0000000000FF800000000000202000
0000000000FF800000000000000000
0000000000FF800000000000000000
ENDCHAR
STARTCHAR  4E0C
ENCODING  19980
SWIDTH  1000 0
DWIDTH  16 0
BBX  15 15 1 -2
BITMAP
808080808080808080808080808060
FFFFFFFFFFFFFFFFFFFFFFFFFFFFC0
000010301000000000000030200000
000060FF30000000000000FF800000
000080FF10000000000000FF800000
0000A0F000000000000000FF800000
0000C0E000000000000000FF800000
0000E0A000000000000000FF800000
0000FF8000000000000000FF800000
0020FF6000000000000000FF800000
0040FF4000000000000000FF800000
0060FF3000000000000000FF800000
0080FF1000000000000000FF800000
00A0F00000000000000000FF800000
00C0E00000000000000000FF800000
ENDCHAR
STARTCHAR  4E0D
ENCODING  19981
SWIDTH  1000 0
DWIDTH  16 0
BBX  16 15 0 -2
BITMAP
00808080808080808080808080808060
00FFFFFFFFFFFFFFFFFFFFFFFFFFFFC0
0000000000A0F0100000000000000000
0000000010F0A0408000606000000000
0000000080FF2080FF0060FF40000000
00000010F0A00080FF0010F0C0000000
00000060FF300080FF000080FF300000
000000E0C0000080FF000010F0A00000
000060FF40000080FF00000080FF2000
0000E0E000000080FF00000020FFA000
0040FF6000000080FF00000000A0F010
00C0E00000000080FF0000000030FF80
0060300000000080FF00000000006040
0000000000000080FF00000000000000
0000000000000080FF00000000000000
ENDCHAR
STARTCHAR  4E0E
ENCODING  19982
SWIDTH  1000 0
DWIDTH  16 0
BBX  15 16 1 -2
BITMAP
006030000000000000000000000000
00FF80000000000000000000000000
00FF80303030303030303030303020
00FF80FFFFFFFFFFFFFFFFFFFFFFC0
00FF80404040404040404040404030
00FF80000000000000000000000000
00FFC0808080808080808080808000
00FFFFFFFFFFFFFFFFFFFFFFFFFF00
00000000000000000000000080FF00
00000000000000000000000080FF00
80808080808080808080806080FF00
FFFFFFFFFFFFFFFFFFFFFFF080FF00
00000000000000000000000080FF00
00000000000000000000000080FF00
000000000080FFFFFFFFFFFFFFFF00
000000000030606060606060606000
ENDCHAR
STARTCHAR  4E10
ENCODING  19984
SWIDTH  1000 0
DWIDTH  16 0
BBX  15 15 1 -2
BITMAP
808080808080808080808080808040
FFFFFFFFFFFFFFFFFFFFFFFFFFFFA0
000000000000A04000000000000000
20C030000000FF8000000000000000
30FF40000000FFFFFFFFFFFFFFFF30
30FF40000000FFC080808080808010
30FF40000000FF8000000000000000
30FFA0606060FFA060606060606010
30FFFFFFFFFFFFFFFFFFFFFFFFFF10
00000000000000000000000060FF10
00000000000000000000000060FF10
00000000000000000000000060FF10
00000000101010101010101060FF10
0000000080FFFFFFFFFFFFFFFFFF10
000000003060606060606060606000
ENDCHAR
STARTCHAR  4E11
ENCODING  19985
SWIDTH  1000 0
DWIDTH  16 0
BBX  16 15 0 -2
BITMAP
10808080808080808080808080804000
30FFFFFFFFFFFFFFFFFFFFFFFFFFA000
00000000F08000000000000000FFA000
00000000FF8000000000000000FFA000
00000000FF8000000000000000FFA000
00000000FF8000000000000000FFA000
00808080FFC080808080808000FFA000
00F0FFFFFFFFFFFFFFFFFFFF00FFA000
00000000FF8000000000000000FFA000
00000000FF8000000000000000FFA000
00000000FF8000000000000000FFA000
00000000FF8000000000000000FFA000
10303030303030303030303010FFC010
60FFFFFFFFFFFFFFFFFFFFFF80FFFF60
20606060606060606060606040606020
ENDCHAR
STARTCHAR  4E13
ENCODING  19987
SWIDTH  1000 0
DWIDTH  16 0
BBX  15 16 1 -2
BITMAP
000000003010000000000000000000
00000040FF40000000000000000000
606060A0FF80606060606060606000
F0FFFFFFFFFFFFFFFFFFFFFFFFFF00
101010F0A010101010101010101000
303060FF8030303030303030303030
FFFFFFFFFFFFFFFFFFFFFFFFFFFFF0
4040C0F04040404040404040404030
0000E0C00000000000000000000000
0010FFC08080808080808080801000
0040FFFFFFFFFFFFFFFFFFFFF00000
0000000000000000000000F0C00000
0000000000000000000030FF800000
0000000000000000000060FF400000
000010FFFFFFFFFFFFFFFFF0000000
000010808080808080808060000000
ENDCHAR
STARTCHAR  4E14
ENCODING  19988
SWIDTH  1000 0
DWIDTH  16 0
BBX  16 15 0 -2
BITMAP
00003080808080808080808080800000
000060FFFFFFFFFFFFFFFFFFFFFF1000
000060FF200000000000000060FF1000
000060FF200000000000000060FF1000
000060FF408080808080808060FF1000
000060FF60FFFFFFFFFFFFFF60FF1000
000060FF200000000000000060FF1000
000060FF200000000000000060FF1000
000060FF304040404040404060FF1000
000060FF60FFFFFFFFFFFFFF60FF1000
000060FF203030303030303060FF1000
000060FF200000000000000060FF1000
001060FF201010101010101060FF2010
00FFFFFFFFFFFFFFFFFFFFFFA0FFFFC0
00606060606060606060606060606040
ENDCHAR
STARTCHAR  4E15
ENCODING  19989
SWIDTH  1000 0
DWIDTH  16 0
BBX  16 15 0 -2
BITMAP
00808080808080808080808080808020
00FFFFFFFFFFFFFFFFFFFFFFFFFFFF40
000000000010E0E01000000000000000
000000000080FF400000A0A000000000
0000000030FF8030FF4060FF40000000
00000000C0E01040FF4000E0E0000000
00000060FF400040FF400060FF600000
000010F0A0000040FF400000E0E01000
0000A0E010000040FF40000060FF8000
0040FF4000000040FF40000000E0F020
00A0800000000040FF4000000040FFA0
0000000000000040FF40000000002020
00202020202020202020202020202020
00FFFFFFFFFFFFFFFFFFFFFFFFFFFFF0
00606060606060606060606060606060
ENDCHAR
STARTCHAR  4E16
ENCODING  19990
SWIDTH  1000 0
DWIDTH  16 0
BBX  15 16 1 -2
BITMAP
000000000000301000000030100000
0020C0300000FF80000000FF800000
0030FF400000FF80000000FF800000
0030FF400000FF80000000FF800000
FFFFFFFFFFFFFFFFFFFFFFFFFFFFC0
8080FFA08080FFA0808080FFC08060
0030FF400000FF80000000FF800000
0030FF400000FF80000000FF800000
0030FF400000FF80000000FF800000
0030FF400000FF80000000FF800000
0030FF400000FFFFFFFFA0FF800000
0030FF400000808080806080300000
0030FF400000000000000000000000
0030FF602020202020202020202010
0030FFFFFFFFFFFFFFFFFFFFFFFF80
001060606060606060606060606020
ENDCHAR
STARTCHAR  4E18
ENCODING  19992
SWIDTH  1000 0
DWIDTH  16 0
BBX  15 15 0 -2
BITMAP
003080808080808080808080808030
0060FFFFFFFFFFFFFFFFFFFFFFFF60
0060FF100000000000000000000000
0060FF100000000000000000000000
0060FF100000000000000000000000
0060FF10FFFFFFFFFFFFFFFFFFFFE0
0060FF10808080808080A0FF808060
0060FF1000000000000060FF100000
0060FF1000000000000060FF100000
0060FF1000000000000060FF100000
0060FF1000000000000060FF100000
0060FF1000000000000060FF100000
2080FF4030303030303060FF403030
E0FFFFFFFFFFFFFFFFFFA0FFFFFFFF
404040404040404040404040404040
ENDCHAR
STARTCHAR  4E19
ENCODING  19993
SWIDTH  1000 0
DWIDTH  16 0
BBX  15 15 1 -2
BITMAP
808080808080808080808080808040
FFFFFFFFFFFFFFFFFFFFFFFFFFFFA0
000000000000306000000000000000
00101010101080FF20101010101000
80FFFFFFFFFFFFFFFFFFFFFFFFFF60
80FF60606060A0FF6060606080FF60
80FF0000000060FF1000000020FF60
80FF00000000A0FF6000000020FF60
80FF00000040FFC0F010000020FF60
80FF000010E0A010E0A0000020FF60
80FF000080F0100060FF400020FF60
80FF0020FF60000000C0E01020FF60
80FF0030400000000020602020FF60
80FF0000000000000080FFFFFFFF60
408000000000000000408080808020
ENDCHAR
STARTCHAR  4E1A
ENCODING  19994
SWIDTH  1000 0
DWIDTH  16 0
BBX  15 16 1 -2
BITMAP
000000000010000000100000000000
0000000080FF000040FF4000000000
0000000080FF000040FF4000000000
A0E0000080FF000040FF400010FF60
80F0000080FF000040FF400030FF40
60FF100080FF000040FF400040FF30
40FF300080FF000040FF400060FF10
20FF600080FF000040FF400080F000
00FF800080FF000040FF4000A0C000
00E0A00080FF000040FF4000E0A000
00C0C00080FF000040FF4000F08000
00A0E00080FF000040FF4010FF6000
0000000080FF000040FF4000000000
202020203060202020602020202010
FFFFFFFFFFFFFFFFFFFFFFFFFFFFC0
606060606060606060606060606040
ENDCHAR
STARTCHAR  4E1B
ENCODING  19995
SWIDTH  1000 0
DWIDTH  16 0
BBX  16 16 0 -2
BITMAP
00000000100000000000001000000000
00000020FF600000000000FF80000000
00000020FF600000000000FF80000000
00000020FF600000000000FF80000000
00000030FF600000000000FF80000000
00000080FFA00000000040FFE0000000
000000E0FFF000000000A0FFFF300000
000020FFA0FF40000000E0A0FF800000
000080FF10E0A0000040FF40C0E00000
0000E0C000A0E0000080E00060FF4000
0030FF600040FF4000E0A00000F0A000
0080F0100000F08030FF400000A0F010
00E0A0000000A0E080F000000040FF60
00604030303040606060303030306030
00FFFFFFFFFFFFFFFFFFFFFFFFFFFF80
00404040404040404040404040404020
ENDCHAR
STARTCHAR  4E1C
ENCODING  19996
SWIDTH  1000 0
DWIDTH  16 0
BBX  16 16 0 -2
BITMAP
00000000102000000000000000000000
00000000A0F000000000000000000000
10808080F0E080808080808080808010
30FFFFFFFFFFFFFFFFFFFFFFFFFFFF30
00000080FF1000002000000000000000
000000E0C0000040FF40000000000000
000010FF80000040FF40000000000000
000060FF30000040FF40000000000000
0000A0FFFFFFFFFFFFFFFFFFFFFFF000
0000608080808080FFA0808080806000
0000306010000040FF40001060300000
0000A0E000000040FF400000E0A00000
0010FF8000000040FF40000080FF1000
0080FF2000000040FF40000020FF6000
00E0C0000080FFFFFF40000000C0E000
00603000004080808020000000306000
ENDCHAR
STARTCHAR  4E1D
ENCODING  19997
SWIDTH  1000 0
DWIDTH  16 0
BBX  16 16 0 -2
BITMAP
00000000201000000000001020000000
00000030FF600000000000C0E0000000
000000A0E0000000000020FF60000000
000010F0800020401000A0F010004030
000080F01000C0E00010F0800040FF60
0010F0A00060FF400080FF2010E0C000
0060FF4030F0A00000E0C02080F02000
00E0FFFFFFF0200060FFFFFFFF800000
10606080FF600000406060E0E0000000
000000E0C0000000000060FF40000000
000080F0200000000020F0A000000000
0030FFFFFFFFFFFF10C0FFFFFFFFFF80
00408080808080802080808080808040
00202020202020202020202020202010
00FFFFFFFFFFFFFFFFFFFFFFFFFFFF80
00606060606060606060606060606030
ENDCHAR
STARTCHAR  4E1E
ENCODING  19998
SWIDTH  1000 0
DWIDTH  16 0
BBX  16 15 0 -2
BITMAP
00008080808080808080808080200000
0000FFFFFFFFFFFFFFFFFFFFFF400000
00000000000000001080F0F080101000
1030303030301080F0F0801040A0E000
80FFFFFFFFE010FFA01010E0FFE06000
20404080FF6000FFE03020C040000000
000000C0E00000FFFFF0600000000000
000060FF400000FF80A0FFC010000000
0010E0A0000000FF800060F0E0400000
0080F020000000FF80000030E0FF8000
20FF800000E0FFFF8000000010A0FF00
20401000006080803000000000006000
10101010101010101010101010101000
A0FFFFFFFFFFFFFFFFFFFFFFFFFFFF30
30606060606060606060606060606010
ENDCHAR
STARTCHAR  4E22
ENCODING  20002
SWIDTH  1000 0
DWIDTH  16 0
BBX  15 15 1 -2
BITMAP
408080808080808080808080808000
A0FFFFFFFFFFFFFFFFFFFFFFFFFF00
00000000000060E000000000000000
00000000000060FF10000000000000
60FFFFFFFFFFFFFFFFFFFFFFFFC000
308080808080A0FF80808080806000
00000000000060FF10000000000000
202020202020408020202020202020
FFFFFFFFFFFFFFFFFFFFFFFFFFFFC0
606060606060606060606060606040
000060FF8000000000006080000000
0030F0A000000000000030FF800000
10E0E0101010101010101080FF4000
80FFFFFFFFFFFFFFFFFFFFFFFFC000
306060606060606060606060604000
ENDCHAR
STARTCHAR  4E24
ENCODING  20004
SWIDTH  1000 0
DWIDTH  16 0
BBX  15 15 1 -2
BITMAP
808080808080808080808080808040
FFFFFFFFFFFFFFFFFFFFFFFFFFFFA0
00000000C060000020C03000000000
00000000FF80000030FF4000000000
30808080FFC0808080FFA080808010
80FFFFFFFFFFFFFFFFFFFFFFFFFF20
80FF0000FF80000030FF400040FF20
80FF0010FF80000030FF600040FF20
80FF0040FFC0000060FFA00040FF20
80FF00A0F0FF1000C0F0F01040FF20
80FF00E060F06020FF60FF6040FF20
80FF30FF10C0C080F000C0C040FF20
80FF4060004080606000408040FF20
80FF0000000000000000F0FFFFFF20
408000000000000000006080808010
ENDCHAR
STARTCHAR  4E25
ENCODING  20005
SWIDTH  1000 0
DWIDTH  16 0
BBX  16 15 0 -2
BITMAP
10808080808080808080808080808010
30FFFFFFFFFFFFFFFFFFFFFFFFFFFF30
000040100080FF000020FF4000303000
0000E0800080FF000020FF4000E08000
0000A0A00080FF000020FF4020FF4000
000080E00080FF000020FF4060FF1000
0030808080C0FF808080FFA080808020
0080FFFFFFFFFFFFFFFFFFFFFFFFFF40
0080FF00000000000000000000000000
0080FF00000000000000000000000000
0080FF00000000000000000000000000
0080FF00000000000000000000000000
0080FF00000000000000000000000000
0080FF00000000000000000000000000
0060C000000000000000000000000000
ENDCHAR
STARTCHAR  4E27
ENCODING  20007
SWIDTH  1000 0
DWIDTH  16 0
BBX  16 16 0 -2
BITMAP
00000000000000402000000000000000
00000000000000FF8000000000000000
00FFFFFFFFFFFFFFFFFFFFFFFFFFE000
00808080808080FFC080808080806000
000080F0100000FF80000040FF400000
000020FF600000FF800000A0E0000000
000000C0C00000FF800010FF80000000
20808080808080FFC080808080808020
40FFFFFFFFFFFFFFFFFFFFFFFFFFFF40
00001040100000002030000000000000
000030FF4000000040FF800030A0C000
000030FF400000000080FFE0FFE06000
000030FF400000000000C0FF60000000
000030FF40101010000020F0E0000000
000030FFFFFFFFE000000040FFA00000
00001060606060400000000060A02000
ENDCHAR
STARTCHAR  4E28
ENCODING  20008
SWIDTH  1000 0
DWIDTH  16 0
BBX  2 15 7 -2
BITMAP
FF80
FF80
FF80
FF80
FF80
FF80
FF80
FF80
FF80
FF80
FF80
FF80
FF80
FF80
A040
ENDCHAR
STARTCHAR  4E2A
ENCODING  20010
SWIDTH  1000 0
DWIDTH  16 0
BBX  16 16 0 -2
BITMAP
00000000000000000000000000000000
00000000000060E0C030000000000000
0000000060E0FFE0F0FFA02000000000
000040E0FFE040001080FFF080100000
30C0FFE060000000000020A0FFF08000
A0F08000000000804000000030C0FF30
40100000000000FF8000000000004020
00000000000000FF8000000000000000
00000000000000FF8000000000000000
00000000000000FF8000000000000000
00000000000000FF8000000000000000
00000000000000FF8000000000000000
00000000000000FF8000000000000000
00000000000000FF8000000000000000
00000000000000FF8000000000000000
00000000000000FF8000000000000000
ENDCHAR
STARTCHAR  4E2B
ENCODING  20011
SWIDTH  1000 0
DWIDTH  16 0
BBX  15 15 1 -2
BITMAP
600000000000000000000000001060
FFE04000000000000000000080F0A0
60F0FFA020000000000060E0FFE030
0010A0FFF080100030C0FFE0600000
00000030C0FF8000FFF08010000000
0000000000406000A0200000000000
00000000000060A000000000000000
00000000000080FF00000000000000
00000000000080FF00000000000000
00000000000080FF00000000000000
00000000000080FF00000000000000
00000000000080FF00000000000000
00000000000080FF00000000000000
00000000000080FF00000000000000
00000000000080FF00000000000000
ENDCHAR
STARTCHAR  4E2C
ENCODING  20012
SWIDTH  1000 0
DWIDTH  16 0
BBX  7 15 0 -2
BITMAP
102010000080FF
10F0A0000080FF
0080FF200080FF
0020FFA00080FF
0000A0FF2080FF
000020FFA080FF
00000080A080FF
000000000080FF
000000A0C080FF
000030FF8080FF
0000A0F01080FF
0020FF800080FF
00A0FF200080FF
20FFA0000080FF
000000000060C0
ENDCHAR
STARTCHAR  4E2D
ENCODING  20013
SWIDTH  1000 0
DWIDTH  16 0
BBX  16 16 0 -2
BITMAP
00000000000000201000000000000000
00000000000000FF8000000000000000
00000000000000FF8000000000000000
10808080808080FFC080808080808010
10FFFFFFFFFFFFFFFFFFFFFFFFFFFF10
10FF6000000000FF800000000060FF10
10FF6000000000FF800000000060FF10
10FF6000000000FF800000000060FF10
10FF6000000000FF800000000060FF10
10FF6000000000FF800000000060FF10
10FFA080808080FFC08080808080FF10
10FFFFFFFFFFFFFFFFFFFFFFFFE0FF10
00000000000000FF8000000000000000
00000000000000FF8000000000000000
00000000000000FF8000000000000000
00000000000000FF8000000000000000
ENDCHAR
STARTCHAR  4E30
ENCODING  20016
SWIDTH  1000 0
DWIDTH  16 0
BBX  15 15 0 -2
BITMAP
00000000000000FF80000000000000
10808080808080FFC0808080808080
30FFFFFFFFFFFFFFFFFFFFFFFFFFFF
00000000000000FF80000000000000
00000000000000FF80000000000000
00000000000000FF80000000000000
00FFFFFFFFFFFFFFFFFFFFFFFFFF80
00808080808080FFC0808080808040
00000000000000FF80000000000000
00000000000000FF80000000000000
E0FFFFFFFFFFFFFFFFFFFFFFFFFFFF
80808080808080FFC0808080808080
00000000000000FF80000000000000
00000000000000FF80000000000000
00000000000000C060000000000000
ENDCHAR
STARTCHAR  4E32
ENCODING  20018
SWIDTH  1000 0
DWIDTH  16 0
BBX  16 16 0 -2
BITMAP
00000000000000301000000000000000
00101010101010FF8010101010101000
0080FFFFFFFFFFFFFFFFFFFFFFFF8000
0080FF60606060FFA060606060FF8000
0080FF00000000FF8000000000FF8000
0080FF80808080FFC080808040FF8000
0080FFFFFFFFFFFFFFFFFFFFE0FF8000
00000000000000FF8000000000000000
00606060606060FFA060606060606000
10FFFFFFFFFFFFFFFFFFFFFFFFFFFF10
10FF8010101010FF801010101080FF10
10FF6000000000FF800000000060FF10
10FFA080808080FFC08080806080FF10
10FFFFFFFFFFFFFFFFFFFFFFFFE0FF10
00000000000000FF8000000000000000
00000000000000FF8000000000000000
ENDCHAR
STARTCHAR  4E34
ENCODING  20020
SWIDTH  1000 0
DWIDTH  16 0
BBX  16 16 0 -2
BITMAP
00000000000000101000000000000000
00000010FF6000FFA000000000000000
00FF8010FF6000FFC060606060606020
00FF8010FF6000FFFFFFFFFFFFFFFF60
00FF8010FF6000202030602020202010
00FF8010FF6000000030FF4000000000
00FF8010FF6000000000E0C000000000
00FF8010FF6000202020304020202000
00FF8010FF6040FFFFFFFFFFFFFFFF00
00FF8010FF6040FF8060606060A0FF00
00FF8010FF6040FF4000FF800080FF00
00FF8010FF6040FF4000FF800080FF00
00FF8010FF6040FF4000FF800080FF00
00FF8010FF6040FF401040301080FF00
00603010FF6040FFFFFFFFFFE0C0FF00
00000010A03010606060606060606000
ENDCHAR
STARTCHAR  4E36
ENCODING  20022
SWIDTH  1000 0
DWIDTH  16 0
BBX  6 6 2 3
BITMAP
10C0A0000000
00A0FF400000
0020FFC00000
0000A0FF4000
000030FFC000
00000080A020
ENDCHAR
STARTCHAR  4E38
ENCODING  20024
SWIDTH  1000 0
DWIDTH  16 0
BBX  16 16 0 -3
BITMAP
0000000020E030000000000000000000
0000000060FF10000000000000000000
30808080C0F080808080808030000000
80FFFFFFFFFFFFFFFFFFFFFF60000000
00000010FF600000000010FF60000000
00000060FF200000000010FF60000000
20200080E0000000000010FF60000000
40FFA0E0A0000000000010FF60000000
1060E0FFE0300000000010FF60000000
000040FFE0FFC040000010FF60000000
000080F00060E0E0000010FF60000000
0000C0C000000040000010FF60000000
0000F08000000000000010FF80101000
0030FF4000000000000010FFFFFFFF80
0060FF10000000000000008080808030
00000000000000000000000000000000
ENDCHAR
STARTCHAR  4E39
ENCODING  20025
SWIDTH  1000 0
DWIDTH  16 0
BBX  15 15 1 -2
BITMAP
002080808080808080808080800000
0060FFFFFFFFFFFFFFFFFFFFFF1000
0060FF200000000000000060FF1000
0060FF200000C0E000000060FF1000
0060FF20000060FF10000060FF1000
0060FF20000030FF40000060FF1000
0060FF200000008040000060FF1000
80A0FF808080808080806080FF8060
FFFFFFFFFFFFFFFFFFFFFFE0FFFFC0
0060FF200000000000000060FF1000
0060FF200000000000000060FF1000
0060FF200000000000000060FF1000
0060FF200000000000000060FF1000
0060FF2000000000A0FFFFFFFF1000
003080100000000040808080800000
ENDCHAR
STARTCHAR  4E3A
ENCODING  20026
SWIDTH  1000 0
DWIDTH  16 0
BBX  15 16 0 -2
BITMAP
000000000000202000000000000000
0080FF400000E0A000000000000000
0000E0E00030FF6000000000000000
000030802080FF1000000000000000
3080808080E0E08080808080808080
60FFFFFFFFFFFFFFFFFFFFFFFFFFFF
0000000080FF1000000000000080FF
00000000E0C00040300000000080FF
00000020FF6000A0F02000000080FF
00000080FF200020F0A000000080FF
000000C0E000000080FF30000080FF
000010FF8000000010E0E0000080FF
000060FF30000000003060100080FF
0000C0E000000000101010101080FF
0010FF8000000010FFFFFFFFFFFFFF
0040C0300000000060606060606060
ENDCHAR
STARTCHAR  4E3B
ENCODING  20027
SWIDTH  1000 0
DWIDTH  16 0
BBX  16 16 0 -2
BITMAP
00000000000000102000000000000000
00000000000000A0FF00000000000000
10606060606060C0FF60606060606010
30FFFFFFFFFFFFFFFFFFFFFFFFFFFF30
00202020202020404020202020202000
0000000000000080FF00000000000000
0000000000000080FF00000000000000
0000000000000080FF00000000000000
00808080808080C0FF80808080808000
10FFFFFFFFFFFFFFFFFFFFFFFFFFFF10
0000000000000080FF00000000000000
0000000000000080FF00000000000000
0000000000000080FF00000000000000
10202020202020404020202020202010
60FFFFFFFFFFFFFFFFFFFFFFFFFFFF60
20606060606060606060606060606020
ENDCHAR
STARTCHAR  4E3D
ENCODING  20029
SWIDTH  1000 0
DWIDTH  16 0
BBX  15 15 1 -2
BITMAP
808080808080808080808080808040
FFFFFFFFFFFFFFFFFFFFFFFFFFFFA0
102020202020100020202020202000
80FFFFFFFFFF8000FFFFFFFFFFFF40
80FF606060FF8000FFA0606080FF40
80FF108020FF8000FF80308040FF40
80FF20FF40FF8000FF8080FF40FF40
80FF20FF40FF8000FF8080FF40FF40
80FF20FF40FF8000FF8080FF40FF40
80FF20FF40FF8000FF8080FF40FF40
80FF20FF40FF8000FF8080FF40FF40
80FF20FF40FF8000FF8080FF40FF40
80FF000000FF8000FF80000040FF40
80FF0080FFFF8000FF8000C0FFFF40
308000306060300080300040606010
ENDCHAR
STARTCHAR  4E3E
ENCODING  20030
SWIDTH  1000 0
DWIDTH  16 0
BBX  16 15 0 -2
BITMAP
0010E0800000A0C00000000080E01000
0000A0F0000060FF20000010F0A00000
000040FF400010FF80000080FF200000
10606060606060606060606060606010
30FFFFFFFFFFFFFFFFFFFFFFFFFFFF30
00202080FF602020202080FF80202000
000030F0800000A0400000C0FF300000
0010E0C0101010FF80101020E0E01000
00C0F020FFFFFFFFFFFFFFFF30FFC000
20804000606060FFA060606000408030
00101010101010FF8010101010101000
00FFFFFFFFFFFFFFFFFFFFFFFFFFE000
00606060606060FFA060606060604000
00000000000000FF8000000000000000
00000000000000FF8000000000000000
ENDCHAR
STARTCHAR  4E3F
ENCODING  20031
SWIDTH  1000 0
DWIDTH  16 0
BBX  6 16 4 -2
BITMAP
000000002030
00000000E0C0
00000010FF80
00000060FF40
000000A0F000
000000E0C000
000020FF8000
000060FF3000
0000A0F00000
0000E0A00000
0030FF600000
0080FF200000
00C0E0000000
10F0A0000000
40FF40000000
60E010000000
ENDCHAR
STARTCHAR  4E43
ENCODING  20035
SWIDTH  1000 0
DWIDTH  16 0
BBX  16 15 0 -2
BITMAP
00808080808080808080808080806000
00FFFFFFFFFFFFFFFFFFFFFFFFFFE000
00000000406000000000000080FF4000
00000000E0C0000000000030FFA00000
00000030FF800000000010E0E0100000
00000080FF3000000000A0FFC0808040
000000C0E00000000000E0FFFFFFFF80
000010FFA0000000000000000000FF80
000060FF60000000000000000000FF80
0000A0FF10000000000000000000FF80
0000E0C000000000000000000000FF80
0030FF8000000000000000000000FF80
0080FF3000000000000000000000FF80
00C0F0000000000040FFFFFFFFFFFF80
00A08000000000002080808080808040
ENDCHAR
STARTCHAR  4E45
ENCODING  20037
SWIDTH  1000 0
DWIDTH  16 0
BBX  16 15 0 -2
BITMAP
00000000608080808080808080400000
00000060FFFFFFFFFFFFFFFFFF800000
000060FFA000000000000000FF800000
0060FFC00000000000000040FF800000
30E0C01000000000000040F0E0200000
00000000000000000040F0E020000000
000000000000000030F0E02000000000
0000000000000030F0F0200000000000
00000000000030F0FFFF400000000000
000000000030F0F040E0F03000000000
0000000020E0F0300030F0E010000000
00000020E0F03000000040FFC0100000
000020E0F030000000000060FFA00000
0020E0F04000000000000000A0FF8000
0080C04000000000000000000080A020
ENDCHAR
STARTCHAR  4E47
ENCODING  20039
SWIDTH  1000 0
DWIDTH  16 0
BBX  15 15 1 -2
BITMAP
608080808080808080808080808000
E0FFFFFFFFFFFFFFFFFFFFFFFFFF00
000000000030600000000000000000
000000000080FF0000000000000000
000000000080FF0000000000000000
000000000080FF0000000000000000
101010101080FF1010101010101010
FFFFFFFFFFFFFFFFFFFFFFFFFFFFC0
6060606060C0FF6060606060606040
000000000080FF0000000000000000
000000000080FF0000000000000000
000000000080FF0000000000000000
000000000080FF0000000000000000
000000000080FFFFFFFFFFFFFFFFE0
000000000040606060606060606060
ENDCHAR
STARTCHAR  4E48
ENCODING  20040
SWIDTH  1000 0
DWIDTH  16 0
BBX  16 16 0 -2
BITMAP
00000000000000202000000000000000
00000000000040FFC000000000000000
000000000010E0E01000000000000000
0000000000C0FF400000000000000000
0000000080FF80000080FF8000000000
00000040FFA0000040FFC00000000000
000020F0E0100020E0E0100000000000
0000E0F0300000C0F030000000000000
00A0FF600000A0FF6000000000000000
30C080000060FFA0000000A0E0100000
0000000030F0C00000000040FF800000
00000010E0E0200000000000C0F01000
000000C0FF4000000000000040FF8000
000080FF600000000000000000E0E000
0010FFFFFFFFFFFFFFFFFFFFFFFFFF40
00008080808080808080808080808020
ENDCHAR
STARTCHAR  4E49
ENCODING  20041
SWIDTH  1000 0
DWIDTH  16 0
BBX  15 16 0 -2
BITMAP
000000000000000000000000000000
0000A060000000FF80000000A06000
0000FF80000000FF80000000FF8000
0000FF80000000FF80000000FF8000
0000FF80000000FF80000000FF8000
0000FF80000000FF80000000FF8000
0000FF80000000FF80000000FF8000
0000FFA00000004020000030FF8000
0000C0FFE04000000010A0FFF04000
00000040E0FFC03060F0FFA0100000
000000000060F0FFFFC02000000000
0000000030C0FFE0F0F08010000000
000020A0FFE0600020A0FFE0600000
20A0FFF060000000000030C0FFE040
80F08010000000000000000040E0FF
402000000000000000000000000060
ENDCHAR
STARTCHAR  4E4B
ENCODING  20043
SWIDTH  1000 0
DWIDTH  16 0
BBX  15 16 1 -2
BITMAP
000000000000402000000000000000
000000000010FF6000000000000000
000000000010FF6000000000000000
FFFFFFFFFFFFFFFFFFFFFFFFFFA000
80808080808080808080A0FFFF6000
00000000000000000030E0F0400000
000000000000000040F0E020000000
0000000000000060FFC01000000000
000000000000A0FF80000000000000
0000000010C0FF6000000000000000
00000020E0F0400000000000000000
000030E0E020000000000000000000
0040F0C01000000000000000000000
60FFA0101010101010101010101000
FFFFFFFFFFFFFFFFFFFFFFFFFFFF20
606060606060606060606060606010
ENDCHAR
STARTCHAR  4E4C
ENCODING  20044
SWIDTH  1000 0
DWIDTH  16 0
BBX  15 16 0 -2
BITMAP
000000000000103000000000000000
00002020202080FF20202020202000
0010FFFFFFFFFFFFFFFFFFFFFFFF40
0010FFA0606060606060606080FF40
0010FF60000000000000000040FF40
0010FF60000000002080808080FF40
0010FF600000000040FFFFFFFFFF40
0010FF600000000000000000000000
0010FFA08080808080808080808080
0010FFFFFFFFFFFFFFFFFFFFFFFFFF
0000000000000000000000000080FF
60FFFFFFFFFFFFFFFFFFFFFF0080FF
2080808080808080808080800080FF
0000000000001010101010101080FF
000000000040FFFFFFFFFFFFFFFFFF
000000000020606060606060606060
ENDCHAR
STARTCHAR  4E4D
ENCODING  20045
SWIDTH  1000 0
DWIDTH  16 0
BBX  16 16 0 -2
BITMAP
00000010100000000000000000000000
000000C0E00000000000000000000000
000020FF802020202020202020202010
000060FFFFFFFFFFFFFFFFFFFFFFFF60
0000C0E06060FFA06060606060606020
0020FF800010FF600000000000000000
0060FF200010FF601010101010101000
00C0E0000010FF60E0FFFFFFFFFFFF00
10C060000010FF604060606060606000
000000000010FF600000000000000000
000000000010FF601010101010101000
000000000010FF60E0FFFFFFFFFFFF00
000000000010FF606060606060606000
000000000010FF600000000000000000
000000000010FF600000000000000000
000000000010C0400000000000000000
ENDCHAR
STARTCHAR  4E4E
ENCODING  20046
SWIDTH  1000 0
DWIDTH  16 0
BBX  15 15 1 -2
BITMAP
808080808080808080808080808020
FFFFFFFFFFFFFFFFFFFFFFFFFFFF40
00E0A000000030FF30000020E04000
00A0F000000040FF40000060FF1000
0060FF30000040FF400000A0E00000
0010FF80000040FF400000E0A00000
0000E0C0000040FF400020FF600000
00000000000040FF40000000000000
FFFFFFFFFFFFFFFFFFFFFFFFFFFFC0
80808080808080FF80808080808060
00000000000040FF40000000000000
00000000000040FF40000000000000
00000000000040FF40000000000000
000010FFFFFFFFFF40000000000000
000000808080808020000000000000
ENDCHAR
STARTCHAR  4E4F
ENCODING  20047
SWIDTH  1000 0
DWIDTH  16 0
BBX  15 15 1 -2
BITMAP
808080808080808080808080808040
FFFFFFFFFFFFFFFFFFFFFFFFFFFFA0
000000000000306000000000000000
00000000000060FF10000000000000
00000000000060FF10000000000000
208080808080808080808080808000
40FFFFFFFFFFFFFFFFFFFFFFFFFF00
00000000000000000020A0FFF08000
000000000000001080F0FFA0200000
00000000001080F0FFA02000000000
0000001080F0FFA020000000000000
000060F0FFA0300000000000000000
60E0FFE04020202020202020202010
F0FFFFFFFFFFFFFFFFFFFFFFFFFFA0
606060606060606060606060606040
ENDCHAR
STARTCHAR  4E50
ENCODING  20048
SWIDTH  1000 0
DWIDTH  16 0
BBX  16 15 0 -2
BITMAP
00308080808080808080808080806000
0080FFFFFFFFFFFFFFFFFFFFFFFFC000
0080FF00000000104000000000000000
0080FF0000000060FF10000000000000
0080FF0000000060FF10000000000000
0080FF0000000060FF10000000000000
0080FF60606060A0FF60606060606010
0080FFFFFFFFFFFFFFFFFFFFFFFFFF40
0010303030303080FF40303030303010
0000108040000060FF10004080100000
000060FF30000060FF100030FF800000
0000E0C000000060FF100000C0E00000
0060FF4000000060FF10000040FF6000
00E0C00000A0FFFFFF10000000C0E000
10402000004080808010000000204010
ENDCHAR
STARTCHAR  4E52
ENCODING  20050
SWIDTH  1000 0
DWIDTH  16 0
BBX  15 15 0 -2
BITMAP
000080808080808080808080806000
0000FFFFFFFFFFFFFFFFFFFFFFF000
0000FF800000000000000000000000
0000FF801010101010101010101000
0000FF80FFFFFFFFFFFFFFFFFFFF30
0000FF80606060606060FFA0606010
0000FF80000000000000FF80000000
0000FF80000000000000FF80000000
2030FF80303030303030FF80303030
FFFFFFFFFFFFFFFFFFFFFFFFFFFFFF
404040404040404040404040404040
000000A0F020000000000000000000
000060FF6000000000000000000000
0030FFA00000000000000000000000
00A0C0100000000000000000000000
ENDCHAR
STARTCHAR  4E53
ENCODING  20051
SWIDTH  1000 0
DWIDTH  16 0
BBX  15 15 0 -2
BITMAP
003080808080808080808080806000
0060FFFFFFFFFFFFFFFFFFFFFFF000
0060FF100000000000000000000000
0060FF101010101010101010101000
0060FF10FFFFFFFFFFFFFFFFFFFFA0
0060FF10606060606060FFA0606040
0060FF10000000000000FF80000000
0060FF10000000000000FF80000000
2080FF30303030303030FF80303030
FFFFFFFFFFFFFFFFFFFFFFFFFFFFFF
404040404040404040404040404040
00000000000000000060F080000000
00000000000000000000A0FF600000
0000000000000000000000E0F03000
000000000000000000000020C0A010
ENDCHAR
STARTCHAR  4E54
ENCODING  20052
SWIDTH  1000 0
DWIDTH  16 0
BBX  16 15 0 -2
BITMAP
00808080808080808080808080804000
00FFFFFFFFFFFFFFFFFFFFFFFFFF8000
00000000000000FF8000000000000000
00000000000000FF8000000000000000
40FFFFFFFFFFFFFFFFFFFFFFFFFFFF40
20808080C0FFE080A0FFFFC080808020
00000080FFA010000040E0FF80000000
0010A0FF80000000000010C0FFA00000
10C0F060200000000000102080FFC010
40E02060FF100000000080FF0040E040
101000A0E0000000000080FF00001010
000000E0A0000000000080FF00000000
000000F080000000000080FF00000000
000030FF40000000000080FF00000000
000060FF20000000000080FF00000000
ENDCHAR
STARTCHAR  4E56
ENCODING  20054
SWIDTH  1000 0
DWIDTH  16 0
BBX  16 15 0 -2
BITMAP
00808080808080808080808080808000
00FFFFFFFFFFFFFFFFFFFFFFFFFFFF10
0000000000000040C010000000000000
0040404040404080FF60404040404030
00FFFFFFFFFFFFFFFFFFFFFFFFFFFFC0
0030303030403080FF40304030303020
0000000080FF0060FF2040FF30000000
10FFFFFFFFFF0060FF2040FFFFFFFF20
00808080A0FF0060FF2040FF80808010
0000000080FF0060FF2040FF30000000
10FFFFFFFFFF0060FF2040FFE0E0E010
00808080A0FF0060FF2020A0A0A0A010
0000000030600060FF20000000000000
0000000000000060FF20000000000000
0000000000000060FF20000000000000
ENDCHAR
STARTCHAR  4E58
ENCODING  20056
SWIDTH  1000 0
DWIDTH  16 0
BBX  16 16 0 -3
BITMAP
00808080808080808080808080801000
00FFFFFFFFFFFFFFFFFFFFFFFFFF3000
00303030303030FF8030303030303000
20FFFFFFFFFFFFFFFFFFFFFFFFFFFF20
00404040404040FFA040404040404000
00404040FF8000FF8000FF8030404000
00F0FFFFFF8000FF8000FF80E0FFFF00
00303030FF8000FF8000FF8030303000
00F0F0A0FF8000FF8000FFA040404000
00808060FF8000FF8000FFFFFFFFF000
00000000804010FF8020404040403000
0000001080F060FF80E0C06000000000
002080F0F0A010FF8040C0FFE0801000
30FFF080100000FF80000030A0F0F030
30801000000000FF8000000000108030
00000000000000201000000000000000
ENDCHAR
STARTCHAR  4E59
ENCODING  20057
SWIDTH  1000 0
DWIDTH  16 0
BBX  15 15 1 -2
BITMAP
A0A0A0A0A0A0A0A0A0A0A0A0A08000
FFFFFFFFFFFFFFFFFFFFFFFFFFF000
0000000000000000000020E0FF6000
00000000000000000020E0F0400000
000000000000000030E0F040000000
0000000000000030F0F03000000000
00000000000040F0E0200000000000
000000000040F0E020000000000000
0000000060FFE01000000000000000
00000060FFC0100000000000000000
000080FFC010000000000000000000
0080FFA00000000000000000000000
80FFA0000000000000000000000000
FFFFFFFFFFFFFFFFFFFFFFFFFFFFA0
A0A0A0A0A0A0A0A0A0A0A0A0A0A060
ENDCHAR
STARTCHAR  4E5C
ENCODING  20060
SWIDTH  1000 0
DWIDTH  16 0
BBX  16 15 0 -2
BITMAP
000080FF000000000000000000000000
000080FF00000000000000003060A000
000080FF000000104080C0F0FFFFFF00
000080FF6080C0FFFFFFE0A060A0FF00
30A0E0FFFFF0C080401000000080FF00
60E0E0FF30000000000000000080FF00
000080FF00000000000000000080FF00
000080FF00000000000000000080FF00
000080FF00000000000000000080FF00
000080FF00000000000000000080FF00
000080FF000000000000000000204000
000080FF000000000000000000000000
000080FF303030303030303030303010
000080FFFFFFFFFFFFFFFFFFFFFFFF80
00002060606060606060606060606020
ENDCHAR
STARTCHAR  4E5D
ENCODING  20061
SWIDTH  1000 0
DWIDTH  16 0
BBX  16 16 0 -2
BITMAP
00000000102010000000000000000000
0000000060FF20000000000000000000
00000000A0E000000000000000000000
00A0A0A0F0E0A0A0A0A0A0A000000000
00FFFFFFFFFFFFFFFFFFFFFF00000000
00000080FF1000000000A0FF00000000
000000C0E00000000000A0FF00000000
000010F0800000000000A0FF00000000
000040FF400000000000A0FF00000000
000080FF100000000000A0FF00000000
0000E0C0000000000000A0FF00000000
0010FF80000000000000A0FF00000000
0040FF40000000000000A0FF00000000
00A0F000000000000000A0FF00000000
00E0C000000000000000A0FFFFFFFFA0
10C06000000000000000608080808060
ENDCHAR
STARTCHAR  4E5E
ENCODING  20062
SWIDTH  1000 0
DWIDTH  16 0
BBX  15 16 1 -2
BITMAP
101000000000000000000000000000
80FF00000000000000000000000000
80FFA0A0A0A0A0A0A0A0A0A0A0A000
80FFFFFFFFFFFFFFFFFFFFFFFFFF10
000000000000000000000000000000
808080808080808080808080600000
FFFFFFFFFFFFFFFFFFFFFFFFC00000
00000000000000000060F0F0600000
0000000000000020C0FFC020000000
00000000000060F0FF800000000000
0000000020C0FFE030000000000000
00000060F0FF800000000000000000
0020C0FFE040000000000000000000
80F0FFA01000000000000000000000
FFFFFFFFFFFFFFFFFFFFFFFFFFF000
A0A0A0A0A0A0A0A0A0A0A0A0A08000
ENDCHAR
STARTCHAR  4E5F
ENCODING  20063
SWIDTH  1000 0
DWIDTH  16 0
BBX  16 16 0 -2
BITMAP
00000000000000308010000000000000
0000603000000060FF20000000000000
0000FF8000000060FF20000020604000
0000FF8000000060FF80A0F0FFFF8000
0000FF804080C0F0FFFFE08040FF8000
40A0FFFFFFF0C0A0FF20000000FF8000
80E0FFA030000060FF20000000FF8000
0000FF8000000060FF20000000FF8000
0000FF8000000060FF20000000FF8000
0000FF8000000060FF20000000FF8000
0000FF8000000060FF20000000FF8000
0000FF8000000060FF20000000000000
0000FF80000000000000000000000000
0000FF80202020202020202020202010
0000FFFFFFFFFFFFFFFFFFFFFFFFFF60
00006060606060606060606060606020
ENDCHAR
STARTCHAR  4E60
ENCODING  20064
SWIDTH  1000 0
DWIDTH  16 0
BBX  15 15 0 -2
BITMAP
108080808080808080808080808080
10FFFFFFFFFFFFFFFFFFFFFFFFFFFF
0000000000000000000000000080FF
20E0A06010000000000000000080FF
10A0E0FFFFE08040000000000080FF
0000003080C0F0FFF0C080200080FF
000000000000004080C0FF600080FF
0000000000000000000010100080FF
0000000000000000002080400080FF
0000000000000040A0FFF0400080FF
000000001060E0FFE08010000080FF
000030A0F0FFC040000000000080FF
10C0FFF0A02000202020202020A0FF
20E06010000020FFFFFFFFFFFFFFFF
000000000000106060606060606060
ENDCHAR
STARTCHAR  4E61
ENCODING  20065
SWIDTH  1000 0
DWIDTH  16 0
BBX  16 16 0 -2
BITMAP
00000000000000101000000000000000
000000000000A0FFA000000000000000
0000000010C0FF800000000060804000
00000020E0FF6000000010C0FF800000
000030E0F04000000040E0F040000000
0030F0FFA080808080FFE02000000000
0040FFFFFFFFFFFFFFA0000000000000
000000000040F0F06000000000000000
0000000080FFE0200000000010A0A020
000020E0FFC0404040404040E0FF6000
000060FFFFFFFFFFFFFFFFFFFF600000
00001030303030303060F0FF40000000
000000000000000030E0FF4000000000
1010101010101040F0F0400000000000
60FFFFFFFFFFFFFFF040000000000000
20606060606060603000000000000000
ENDCHAR
STARTCHAR  4E66
ENCODING  20070
SWIDTH  1000 0
DWIDTH  16 0
BBX  16 16 0 -2
BITMAP
00000000001030000000000000000000
000000000060FF100000000000A08000
000000000060FF100000000000A0E000
00C0FFFFFFFFFFFFFFFFFFFFFF60FF20
0060808080A0FF80808080A0FF30FF60
000000000060FF1000000060FF106040
000000000060FF1000000060FF100000
000000000060FF1000000060FF100000
60FFFFFFFFFFFFFFFFFFFFA0FFFFFF20
2080808080A0FF808080806080A0FF20
000000000060FF10000000000060FF20
000000000060FF10000000000060FF20
000000000060FF10000000000060FF20
000000000060FF100000C0FFFFFFFF20
000000000060FF100000608080808010
000000000060FF100000000000000000
ENDCHAR
STARTCHAR  4E69
ENCODING  20073
SWIDTH  1000 0
DWIDTH  16 0
BBX  16 15 0 -2
BITMAP
00000060E00000000010E04000000000
00000080FF0000000010FF6000000000
00000080FFFFFFFFE010FF6000000000
00000080FF8080806010FF6000000000
00000080FF0000000010FF6000000000
00000080FF0000000010FF6000000000
10808080808080800010FF6000000000
20FFFFFFFFFFFFFF1010FF6000000000
20FF6000000060FF1010FF6000000000
20FF6000000060FF1010FF6000000000
20FF6000000060FF1010FF6000000000
20FF6000000060FF1010FF6000000000
20FF8020202060FF1010FF8020202010
20FFFFFFFFFFA0FF1010FFFFFFFFFF80
00606060606040600000606060606030
ENDCHAR
STARTCHAR  4E70
ENCODING  20080
SWIDTH  1000 0
DWIDTH  16 0
BBX  16 15 0 -2
BITMAP
00808080808080808080808080808000
10FFFFFFFFFFFFFFFFFFFFFFFFFFFF00
0000000000000000000010201080FF00
0000000060F06000000080FF2080FF00
0060A03000C0FF300000E0C00080FF00
0020F0E00010E0E01030FF600080FF00
000060FF800020402080FF2000102000
000000A0FF30000000E0C00000000000
206060606060606080FFC06060606020
40FFFFFFFFFFFFFFFFFFFFFFFFFFFF40
0010101020E0F0401040604010101000
00000020E0F040000010C0FF60000000
000020E0F0300000000010C0FF600000
0020E0E03000000000000010C0FF6000
10A0A020000000000000000010A0A020
ENDCHAR
STARTCHAR  4E71
ENCODING  20081
SWIDTH  1000 0
DWIDTH  16 0
BBX  16 15 0 -2
BITMAP
00808080808080804000A04000000000
00FFFFFFFFFFFFFFA010FF6000000000
00000000FF8000000010FF6000000000
10303030FF8030303010FF6000000000
40FFFFFFFFFFFFFFFF20FF6000000000
10404040FFA040404010FF6000000000
00000000FF8000000010FF6000000000
00000000602000000010FF6000000000
0080FFFFFFFFFFFF8010FF6000000000
0080FF80808080FF8010FF6000000000
0080FF00000000FF8010FF6000000000
0080FF00000000FF8010FF6000000000
0080FF20202010FF8010FF8020202010
0080FFFFFFFFE0FF8010FFFFFFFFFF60
00306060606060603000606060606020
ENDCHAR
STARTCHAR  4E73
ENCODING  20083
SWIDTH  1000 0
DWIDTH  16 0
BBX  16 15 0 -2
BITMAP
00808080808080806020A03000000000
00FFFFFFFFFFFFFFE030FF4000000000
00604020802000406030FF4000000000
00C0A020FF6000E0A030FF4000000000
00A0E000FF8020FF6030FF4000000000
0060FF00E0A060FF3030FF4000000000
00308080808080800030FF4000000000
0080FFFFFFFFFFE00030FF4000000000
000000000060FF400030FF4000000000
0060606060E0E0606030FF4000000000
10FFFFFFFFFFFFFFE030FF4000000000
0010101060FF30101030FF4000000000
0000101060FF20000030FF6010101010
0000C0FFFFFF20000030FFFFFFFFFFA0
00004060606010000010606060606030
ENDCHAR
STARTCHAR  4E7E
ENCODING  20094
SWIDTH  1000 0
DWIDTH  16 0
BBX  15 16 1 -2
BITMAP
000000301000001040100000000000
000020FF40000030FF400000000000
FFFFFFFFFFFFFF40FFFFFFFFFFFFE0
808080FFA080802080808080808060
206060FF8060600000000000000000
80FFFFFFFFFFFF2060606060606010
80FF20202080FF40FFFFFFFFFFFF10
80FF80FFF080FF0010101020F0A000
80FF30606080FF00000000A0F01000
80FF80806080FF00000040FF600000
80FFFFFFF0E0FF000000E0A0000000
000010C0300000000080F010000000
808080FFA080600020F06000000000
FFFFFFFFFFFFFF00C0C01010101010
000020FF40000000FFFFFFFFFFFFC0
000010A03000000060606060606040
ENDCHAR
STARTCHAR  4E86
ENCODING  20102
SWIDTH  1000 0
DWIDTH  16 0
BBX  16 15 0 -2
BITMAP
10808080808080808080808080808010
10FFFFFFFFFFFFFFFFFFFFFFFFFFFF20
000000000000000000000060F0FF8000
00000000000000000010A0FFE0300000
000000000000000060F0FF8000000000
0000000000000000FFE0300000000000
0000000000000000FF80000000000000
0000000000000000FF80000000000000
0000000000000000FF80000000000000
0000000000000000FF80000000000000
0000000000000000FF80000000000000
0000000000000000FF80000000000000
0000000000000000FF80000000000000
00000000C0FFFFFFFF80000000000000
00000000608080808040000000000000
ENDCHAR
STARTCHAR  4E88
ENCODING  20104
SWIDTH  1000 0
DWIDTH  16 0
BBX  15 15 0 -2
BITMAP
006080808080808080808080808000
00E0FFFFFFFFFFFFFFFFFFFFFFFF00
000000606000000000000020F08000
00000080F0100000000000C0E01000
00000020FF800000000080FF400000
00000000C0E000000020F0A0000000
60FFFFFFFFFFFFFFFFFFFFFFFFFFFF
20808080808080808080808080C0FF
0000000000000080FF0000000080FF
0000000000000080FF0000000080FF
0000000000000080FF000000000000
0000000000000080FF000000000000
0000000000000080FF000000000000
000000A0FFFFFFFFFF000000000000
000000408080808080000000000000
ENDCHAR
STARTCHAR  4E89
ENCODING  20105
SWIDTH  1000 0
DWIDTH  16 0
BBX  16 15 0 -2
BITMAP
00000030808080808080803000000000
000010E0FFFFFFFFFFFFF01000000000
0000A0FF3000000020F0800000000000
0060FFE080808080C0FF808080801000
30F0C0FFFFFFFFFFFFFFFFFFFFFF2000
0000000000000080FF00000060FF2000
10808080808080A0FF808080A0FF8020
10FFFFFFFFFFFFFFFFFFFFFFFFFFFF60
0000000000000080FF00000060FF2000
00006080808080A0FF80808060FF2000
0000F0FFFFFFFFFFFFFFFFFFC0FF2000
0000000000000080FF00000000000000
0000000000000080FF00000000000000
000000E0FFFFFFFFFF00000000000000
00000060808080808000000000000000
ENDCHAR
STARTCHAR  4E8B
ENCODING  20107
SWIDTH  1000 0
DWIDTH  16 0
BBX  16 16 0 -2
BITMAP
00000000000000104010000000000000
0040404040404060FF60404040404020
00FFFFFFFFFFFFFFFFFFFFFFFFFFFF80
0040606060606080FF80606060604020
0000FFFFFFFFFFFFFFFFFFFFFFFF6000
0000FFA040404060FF60404040FF6000
0000FFFFFFFFFFFFFFFFFFFFA0FF6000
0000606060606080FF80606060602000
0000FFFFFFFFFFFFFFFFFFFFFFFFFF00
0000606060606080FF80606060A0FF00
00FFFFFFFFFFFFFFFFFFFFFFFFFFFFA0
0060606060606080FF80606060A0FF30
0000FFFFFFFFFFFFFFFFFFFFE0C0FF00
0000606060606080FF80606060606000
0000000060FFFFFFFF30000000000000
00000000306060606010000000000000
ENDCHAR
STARTCHAR  4E8C
ENCODING  20108
SWIDTH  1000 0
DWIDTH  16 0
BBX  15 13 1 -1
BITMAP
C0FFFFFFFFFFFFFFFFFFFFFFFFFF00
60A0A0A0A0A0A0A0A0A0A0A0A0A000
000000000000000000000000000000
000000000000000000000000000000
000000000000000000000000000000
000000000000000000000000000000
000000000000000000000000000000
000000000000000000000000000000
000000000000000000000000000000
000000000000000000000000000000
000000000000000000000000000000
FFFFFFFFFFFFFFFFFFFFFFFFFFFFE0
A0A0A0A0A0A0A0A0A0A0A0A0A0A080
ENDCHAR
STARTCHAR  4E8D
ENCODING  20109
SWIDTH  1000 0
DWIDTH  16 0
BBX  15 15 1 -2
BITMAP
008080808080808080808080806000
00FFFFFFFFFFFFFFFFFFFFFFFFC000
000000000000000000000000000000
000000000000000000000000000000
000000000000000000000000000000
FFFFFFFFFFFFFFFFFFFFFFFFFFFFC0
808080808080808080808080808060
000000000000000000806000000000
000000000000000000FFA000000000
000000000000000000FFA000000000
000000000000000000FFA000000000
000000000000000000FFA000000000
000000000000000000FFA000000000
0000000060FFFFFFFFFFA000000000
000000003080808080804000000000
ENDCHAR
STARTCHAR  4E8E
ENCODING  20110
SWIDTH  1000 0
DWIDTH  16 0
BBX  15 15 1 -2
BITMAP
808080808080808080808080808000
FFFFFFFFFFFFFFFFFFFFFFFFFFFF10
000000000000008040000000000000
00000000000000FF80000000000000
00000000000000FF80000000000000
00000000000000FF80000000000000
80808080808080FFC0808080808060
FFFFFFFFFFFFFFFFFFFFFFFFFFFFFF
00000000000000FF80000000000000
00000000000000FF80000000000000
00000000000000FF80000000000000
00000000000000FF80000000000000
00000000000000FF80000000000000
000060FFFFFFFFFF80000000000000
000020808080808030000000000000
ENDCHAR
STARTCHAR  4E8F
ENCODING  20111
SWIDTH  1000 0
DWIDTH  16 0
BBX  15 15 1 -2
BITMAP
008080808080808080808080800000
00FFFFFFFFFFFFFFFFFFFFFFFF1000
000000000000000000000000000000
000000000000000000000000000000
808080808080808080808080808060
FFFFFFFFFFFFFFFFFFFFFFFFFFFFC0
000030FF4000000000000000000000
000030FF4000000000000000000000
000030FFFFFFFFFFFFFFFFFFFF6000
000010808080808080808080FF6000
000000000000000000000020FF6000
000000000000000000000020FF6000
000000000010101010101020FF6000
00000000A0FFFFFFFFFFFFFFFF6000
000000004060606060606060602000
ENDCHAR
STARTCHAR  4E91
ENCODING  20113
SWIDTH  1000 0
DWIDTH  16 0
BBX  15 15 1 -2
BITMAP
608080808080808080808080808000
E0FFFFFFFFFFFFFFFFFFFFFFFFFF00
000000000000000000000000000000
000000000000000000000000000000
000000000000000000000000000000
202020202020202020202020202020
FFFFFFFFFFFFFFFFFFFFFFFFFFFFFF
606060606060606060606060606040
0000E0A00000000000001080400000
0040FF6000000000000000E0E00000
00A0F0000000000000000080FF3000
00E080000000000000000030FF8000
40FF40202020202020202020E0E000
A0FFFFFFFFFFFFFFFFFFFFFFFFFF40
606060606060606060606060606030
ENDCHAR
STARTCHAR  4E92
ENCODING  20114
SWIDTH  1000 0
DWIDTH  16 0
BBX  15 15 1 -2
BITMAP
608080808080808080808080808040
F0FFFFFFFFFFFFFFFFFFFFFFFFFFA0
0000A0E00000000000000000000000
0000C0C04040404040404040400000
0000F0A0E0FFFFFFFFFFFFFFE00000
0010FF6020303030303030E0C00000
0030FF4000000000000000E0A00000
0060FF2000000000000000F0800000
0080FF0000000000000020FF600000
00A0FFFFFFFFFFFFFFFF40FF400000
0060808080808080808060FF300000
0000000000000000000080FF100000
20202020202020202020A0F0202010
FFFFFFFFFFFFFFFFFFFFFFFFFFFFC0
606060606060606060606060606040
ENDCHAR
STARTCHAR  4E93
ENCODING  20115
SWIDTH  1000 0
DWIDTH  16 0
BBX  15 15 0 -2
BITMAP
108080808080808080808080808020
30FFFFFFFFFFFFFFFFFFFFFFFFFF40
000000000000000000000000000000
000000000000000000000000000000
000000000000000000000000000000
101010101010101010101010101010
F0FFFFFFFFFFFFFFFFFFFFFFFFFFFF
608080808080808080808080808080
0000C0C000000000000000FF800000
0000E0A000000000000000FF800000
0010FF6000000000000000FF800000
0040FF4000000000000000FF800000
0060FF1000000000000000FF800000
00A0F00000000000000000FF800000
006060000000000000000080400000
ENDCHAR
STARTCHAR  4E94
ENCODING  20116
SWIDTH  1000 0
DWIDTH  16 0
BBX  16 15 0 -2
BITMAP
00608080808080808080808080808000
00E0FFFFFFFFFFFFFFFFFFFFFFFFFF00
00000000A0F000000000000000000000
00000000A0E000000000000000000000
00000000C0C000000000000000000000
00308080F0E080808080808080800000
0060FFFFFFFFFFFFFFFFFFFFFFFF0000
00000010FF8000000000000080FF0000
00000030FF6000000000000080FF0000
00000040FF4000000000000080FF0000
00000060FF2000000000000080FF0000
00000080FF1000000000000080FF0000
002020A0F02020202020202080FF2010
20FFFFFFFFFFFFFFFFFFFFFFA0FFFF60
10606060606060606060606040606020
ENDCHAR
STARTCHAR  4E95
ENCODING  20117
SWIDTH  1000 0
DWIDTH  16 0
BBX  16 15 0 -2
BITMAP
00000040FF40000000000080FF100000
00303060FF60303030303080FF303000
00FFFFFFFFFFFFFFFFFFFFFFFFFFFF00
004060A0FF606060606060A0FF606000
00000060FF10000000000080FF100000
00000080FF00000000000080FF100000
00000080F000000000000080FF100000
106060C0F060606060606080FF606030
20FFFFFFFFFFFFFFFFFFFFC0FFFFFF80
002020E0A020202020202080FF202010
000000F0A000000000000080FF100000
000000FF8000000000000080FF100000
000010FF8000000000000080FF100000
000010FF6000000000000080FF100000
00001080300000000000004080000000
ENDCHAR
STARTCHAR  4E98
ENCODING  20120
SWIDTH  1000 0
DWIDTH  16 0
BBX  16 15 0 -2
BITMAP
10808080808080808080808080808010
30FFFFFFFFFFFFFFFFFFFFFFFFFFFF30
00000000000000000000000000000000
0040FFFFFFFFFFFFFFFFFFFFFFFF4000
0040FFA08080808080808080A0FF4000
0040FF30000000000000000030FF4000
0040FF40606060606060606040FF4000
0040FF40FFFFFFFFFFFFFFFF40FF4000
0040FF30101010101010101030FF4000
0040FF30000000000000000030FF4000
0040FFFFFFFFFFFFFFFFFFFF80FF4000
00208080808080808080808060802000
00101010101010101010101010101000
80FFFFFFFFFFFFFFFFFFFFFFFFFFFF80
30606060606060606060606060606030
ENDCHAR
STARTCHAR  4E9A
ENCODING  20122
SWIDTH  1000 0
DWIDTH  16 0
BBX  16 15 0 -2
BITMAP
00808080808080808080808080808020
00FFFFFFFFFFFFFFFFFFFFFFFFFFFF40
0000000000E060000030E03000000000
0040400000FF80000040FF4000404000
00A0E00000FF80000040FF4000E0A000
0080E00000FF80000040FF4000E08000
0080F00000FF80000040FF4000F08000
0060FF0000FF80000040FF4000FF6000
0060FF1000FF80000040FF4010FF6000
0040FF3000FF80000040FF4020FF4000
0030FF4000FF80000040FF4030FF3000
0000000000FF80000040FF4000000000
00101010101010101010101010101000
20FFFFFFFFFFFFFFFFFFFFFFFFFFFF60
10606060606060606060606060606020
ENDCHAR
STARTCHAR  4E9B
ENCODING  20123
SWIDTH  1000 0
DWIDTH  16 0
BBX  15 16 1 -2
BITMAP
000000001030000010300000000000
0000000080FF000080FF0000000000
00F0600080FF000080FF0000000000
00FF800080FF804080FF8080808010
00FF800080FFFFA080FFFFFFFFFF20
00FF800080FF000080FF0000000000
00FF800080FF000080FF0000000000
00FF800080FF000080FF0000000000
FFFFFFFFFFFFFFA080FFFFFFFFFF20
808080808080804030808080808010
001020202020202020202020200000
0060FFFFFFFFFFFFFFFFFFFFFF0000
002060606060606060606060600000
202020202020202020202020202010
FFFFFFFFFFFFFFFFFFFFFFFFFFFF80
606060606060606060606060606030
ENDCHAR
STARTCHAR  4E9F
ENCODING  20127
SWIDTH  1000 0
DWIDTH  16 0
BBX  15 15 1 -2
BITMAP
002080808080808080808080800000
0040FFFFFFFFFFFFFFFFFFFFF00000
0000000000000030A0FFE060100000
30808080801060FFC0A06060606020
80FFFFFFFF3080FF00E0FFFFFFFF60
80FF0040FF3080FF0080602020FF60
80FF0040FF3080FF00E0A00000FF60
80FF0040FF3080FF00E0E040A0FF60
80FF0040FF3080FF0020E0FFFF8000
80FF0040FF3080FF0040F0F0FFC020
80FFFFE0FF40A0FF00FFE02040F0A0
308080608060FFFF00A00000002080
101010101020303010101010101010
FFFFFFFFFFFFFFFFFFFFFFFFFFFFA0
606060606060606060606060606040
ENDCHAR
STARTCHAR  4EA0
ENCODING  20128
SWIDTH  1000 0
DWIDTH  16 0
BBX  16 5 0 8
BITMAP
00000000000000FF8000000000000000
00000000000000FF8000000000000000
00000000000000F08000000000000000
80808080808080808080808080808000
FFFFFFFFFFFFFFFFFFFFFFFFFFFFFF00
ENDCHAR
STARTCHAR  4EA1
ENCODING  20129
SWIDTH  1000 0
DWIDTH  16 0
BBX  16 15 0 -2
BITMAP
00000000000000FFA000000000000000
00000000000000F08000000000000000
80808080808080808080808080808010
FFFFFFFFFFFFFFFFFFFFFFFFFFFFFF20
00008040000000000000000000000000
0000FF80000000000000000000000000
0000FF80000000000000000000000000
0000FF80000000000000000000000000
0000FF80000000000000000000000000
0000FF80000000000000000000000000
0000FF80000000000000000000000000
0000FF80000000000000000000000000
0000FFA0303030303030303030302000
0000FFFFFFFFFFFFFFFFFFFFFFFFA000
00006060606060606060606060603000
ENDCHAR
STARTCHAR  4EA2
ENCODING  20130
SWIDTH  1000 0
DWIDTH  16 0
BBX  15 16 1 -2
BITMAP
000000000000103000000000000000
00000000000080FF00000000000000
808080808080C0FF80808080808060
FFFFFFFFFFFFFFFFFFFFFFFFFFFFC0
000000000000000000000000000000
000010202020202020202020000000
000060FFFFFFFFFFFFFFFFFF000000
000060FF806060606060A0FF000000
000060FF20000000000080FF000000
000060FF20000000000080FF000000
000060FF20000000000080FF000000
000060FF20000000000080FF000000
000060FF20000000000080FF000000
102060FF20000000000080FF202010
FFFFFFFF20000000000080FFFFFFA0
606060601000000000003060606040
ENDCHAR
STARTCHAR  4EA4
ENCODING  20132
SWIDTH  1000 0
DWIDTH  16 0
BBX  16 16 0 -2
BITMAP
00000000000000103000000000000000
0000000000000080FF00000000000000
00FFFFFFFFFFFFFFFFFFFFFFFFFFFFC0
00808080808080808080808080808060
0000000020A0A0000020E06010000000
000030A0FFF060000010C0FFF0801000
00C0FFF08010000000000030A0FFFF80
00E060300000000000000000004080C0
000010FFA020000000000040C0FF0000
00000080F0FFA0200060E0FFE0600000
000000001080F0FFE0FFE06000000000
000000000060E0FFFFFFA03000000000
00000060E0FFC0401080F0FFC0400000
0060E0FFC040000000001080E0FFC040
00E0C03000000000000000000060E0A0
00200000000000000000000000000020
ENDCHAR
STARTCHAR  4EA5
ENCODING  20133
SWIDTH  1000 0
DWIDTH  16 0
BBX  15 15 1 -2
BITMAP
00000000000060C000000000000000
808080808080C0FF80808080808040
FFFFFFFFFFFFFFFFFFFFFFFFFFFFA0
000010C0F040000000000000000000
0010C0F04000000000000040A08000
00C0FFA0606060606080E0FFC04000
20FFFFFFFFFFFFFFFFF0A030000000
0000000040C0FFE080100000004060
001080E0FFC0400000001080E0FF80
40FFF0802000000040A0FFF0A03000
40601000001060E0FFFF8010000000
00000030A0F0FFC0A0FFE060000000
0060C0FFE08020000030C0FFE04000
E0FFC0600000000000000040E0FF00
802000000000000000000000006000
ENDCHAR
STARTCHAR  4EA6
ENCODING  20134
SWIDTH  1000 0
DWIDTH  16 0
BBX  16 15 0 -2
BITMAP
00000000000000F06000000000000000
40808080808080FFC080808080808000
80FFFFFFFFFFFFFFFFFFFFFFFFFFFF00
00000000004040000060200000000000
0000602000F0800000FF800040400000
0020FF4010FF600000FF8000C0C00000
0060FF2030FF400000FF8000A0F00000
0080F00060FF200000FF800060FF1000
00C0C00080FF000000FF800040FF4000
00E08000A0E0000000FF800020FF6000
10FF6000C0C0000000FF800000F08000
40FF3000E0A0000000FF800000C0C000
60FF0000FF80000000FF800000A0E000
60A00020FF6000A0FFFF80000060A000
00000020802000408080300000000000
ENDCHAR
STARTCHAR  4EA7
ENCODING  20135
SWIDTH  1000 0
DWIDTH  16 0
BBX  16 16 0 -2
BITMAP
00000000000000604000000000000000
60808080808080FFE080808080808000
A0FFFFFFFFFFFFFFFFFFFFFFFFFFFF00
00000000000000000000000000000000
0000A0F010000000000000C0F0100000
000040FF80000000000020FFA0000000
000000C0C0000000000060E030000000
30FFFFFFFFFFFFFFFFFFFFFFFFFFFF20
30FFA080808080808080808080808010
30FF6000000000000000000000000000
30FF6000000000000000000000000000
30FF6000000000000000000000000000
30FF6000000000000000000000000000
30FF6000000000000000000000000000
30FF6000000000000000000000000000
10602000000000000000000000000000
ENDCHAR
STARTCHAR  4EA8
ENCODING  20136
SWIDTH  1000 0
DWIDTH  16 0
BBX  15 16 1 -2
BITMAP
000000000000204000000000000000
404040404040A0FF40404040404020
FFFFFFFFFFFFFFFFFFFFFFFFFFFF80
303030303030303030303030303020
0080FFFFFFFFFFFFFFFFFFFFFF3000
0080FF8080808080808080A0FF3000
0080FF000000000000000040FF3000
0080FFFFFFFFFFFFFFFFFFC0FF3000
003080808080808080808060801000
808080808080808080808080801000
FFFFFFFFFFFFFFFFFFFFFFFFF02000
0000000000000030A0F0E060100000
0000000000000080FF400000000000
0000000000000080FF000000000000
00000000E0FFFFFFFF000000000000
000000006080808080000000000000
ENDCHAR
STARTCHAR  4EA9
ENCODING  20137
SWIDTH  1000 0
DWIDTH  16 0
BBX  15 16 0 -2
BITMAP
000000000000306000000000000000
00000000000080FF00000000000000
FFFFFFFFFFFFFFFFFFFFFFFFFFFFFF
808080808080808080808080808080
000000000000000000000000000000
00FFFFFFFFFFFFFFFFFFFFFFFFFF00
00FFC0808080808080808080C0FF00
00FF8000000080FF0000000080FF00
00FF8000000080FF0000000080FF00
00FF80808080C0FF8080804080FF00
00FF80FFFFFFFFFFFFFFFFA080FF00
00FF8000000080FF0000000080FF00
00FF8000000080FF0000000080FF00
00FF8020202040602020201080FF00
00FFFFFFFFFFFFFFFFFFFFA0E0FF00
006060606060606060606040606000
ENDCHAR
STARTCHAR  4EAB
ENCODING  20139
SWIDTH  1000 0
DWIDTH  16 0
BBX  15 16 0 -2
BITMAP
000000000000003020000000000000
20404040404040FFA0404040404040
80FFFFFFFFFFFFFFFFFFFFFFFFFFFF
203030303030303030303030303030
0020FFFFFFFFFFFFFFFFFFFFFF8000
0020FFA08080808080808080FF8000
0020FFA08080808080808040FF8000
0020FFFFFFFFFFFFFFFFFFE0FF8000
000030303030303030303030302000
0000FFFFFFFFFFFFFFFFFFFFFFC000
00004040404040404040E0FFA01000
408080808080808080E0FFC0808080
80FFFFFFFFFFFFFFFFFFFFFFFFFFFF
0000000000000020FF600000000000
0000000030FFFFFFFF600000000000
000000001080808080200000000000
ENDCHAR
STARTCHAR  4EAC
ENCODING  20140
SWIDTH  1000 0
DWIDTH  16 0
BBX  16 16 0 -2
BITMAP
00000000000000104010000000000000
0010101010101060FF30101010101010
00FFFFFFFFFFFFFFFFFFFFFFFFFFFFE0
00606060606060606060606060606040
00002020202020202020202020201000
0000FFFFFFFFFFFFFFFFFFFFFFFF8000
0000FFA0404040404040404040FF8000
0000FF80000000000000000000FF8000
0000FFC0808080808080808020FF8000
0000FFFFFFFFFFFFFFFFFFFFC0FF8000
0000000000000060FF20000000000000
000010C0A0000060FF200020C0800000
000080FF40000060FF200000A0FF3000
0010F0A000000060FF20000020F0C000
00A0F0100020FFFFFF2000000080FF60
00603000001080808010000000006040
ENDCHAR
STARTCHAR  4EAD
ENCODING  20141
SWIDTH  1000 0
DWIDTH  16 0
BBX  15 16 1 -2
BITMAP
000000000000203000000000000000
606060606060A0FF60606060606030
FFFFFFFFFFFFFFFFFFFFFFFFFFFFA0
203040404040404040404040402010
0060FFFFFFFFFFFFFFFFFFFFFF0000
0060FF6060606060606060A0FF0000
0060FFFFFFFFFFFFFFFFFFA0FF0000
002080808080808080808060800000
808080808080808080808080808030
FFFFFFFFFFFFFFFFFFFFFFFFFFFF80
FF800000000000000000000010FF80
8030E0FFFFFFFFFFFFFFFFFF008030
00006080808080FFA0808080000000
00000000000000FF80000000000000
000000A0FFFFFFFF80000000000000
000000408080808030000000000000
ENDCHAR
STARTCHAR  4EAE
ENCODING  20142
SWIDTH  1000 0
DWIDTH  16 0
BBX  15 16 1 -2
BITMAP
000000000000204000000000000000
808080808080C0FF80808080808040
FFFFFFFFFFFFFFFFFFFFFFFFFFFF80
102040404040404040404040401000
0080FFFFFFFFFFFFFFFFFFFFFF0000
0080FF3030303030303030A0FF0000
0080FFFFFFFFFFFFFFFFFFA0FF0000
003060606060606060606060600000
808080808080808080808080808020
FFFFFFFFFFFFFFFFFFFFFFFFFFFF60
FF800020202020202020201020FF60
FF8040FFFFFFFFFFFFFFFF8020FF60
301040FF806060606060FF80003010
001040FF300000000000FF80101000
E0FFFFFF300000000000FFFFFFFF60
606060601000000000006060606020
ENDCHAR
STARTCHAR  4EB2
ENCODING  20146
SWIDTH  1000 0
DWIDTH  16 0
BBX  16 16 0 -2
BITMAP
00000000000000402000000000000000
00404040404040FFA040404040404000
10FFFFFFFFFFFFFFFFFFFFFFFFFFFF10
00306060303030303030303080603000
000080F00000000000000040FF600000
000030FF40000000000000A0F0100000
40FFFFFFFFFFFFFFFFFFFFFFFFFFFF40
20808080808080FFC080808080808020
00000000000000FF8000000000000000
10808080808080FFC080808080808010
10FFFFFFFFFFFFFFFFFFFFFFFFFFFF10
00001060200000FF8000003060100000
0000A0F0100000FF80000030FF800000
0020FF80000000FF80000000A0F02000
00A0F01000A0FFFF8000000020F0A000
00403000004080804000000000304000
ENDCHAR
STARTCHAR  4EB3
ENCODING  20147
SWIDTH  1000 0
DWIDTH  16 0
BBX  15 16 1 -2
BITMAP
000000000000204000000000000000
808080808080C0FF80808080808060
FFFFFFFFFFFFFFFFFFFFFFFFFFFFC0
001030303030303030303030300000
0040FFFFFFFFFFFFFFFFFFFFFF0000
0040FF806060606060606080FF0000
0040FFFFFFFFFFFFFFFFF0E0FF0000
606060606060606060606060606030
FFFFFFFFFFFFFFFFFFFFFFFFFFFF80
FF803030303030303030303010FF80
FF80F0FFFFFFFFFFFFFFFFFF00FF80
202040404040FFA040404040202010
FFFFFFFFFFFFFFFFFFFFFFFFFFFF60
404040404040FFA040404040404020
000000000000FFFFFFFFFFFFFFFF60
000000000000606060606060606030
ENDCHAR
STARTCHAR  4EB5
ENCODING  20149
SWIDTH  1000 0
DWIDTH  16 0
BBX  16 16 0 -2
BITMAP
00000000000000201000000000000000
10303030303030FF8030303030303010
40FFFFFFFFFFFFFFFFFFFFFFFFFFFF40
104040A0804040404060A06040404010
106060F0C060206060A0FF8060601000
30FFFFFFFFFF40FFFFFFFFFFFFFF3000
000000F08000104060FF601040FF3000
30FFFFFFFFFF40FFFFFF100040FF3000
106060F0C0601040FFFFE04040FF3000
004040F080000060FF80F08040FF8020
20FFFFFF800000E0A000103040FFFF40
00202060802030800040806000206010
000020F0A00060FF0000A0FFA0E0FF10
0010E0E0100060FF00000080FFE01000
00C0E020000060FFFFC0000060FFC010
10301000000020404030000000102010
ENDCHAR
STARTCHAR  4EBA
ENCODING  20154
SWIDTH  1000 0
DWIDTH  16 0
BBX  16 16 0 -2
BITMAP
00000000000000402000000000000000
00000000000000FF8000000000000000
00000000000000FF8000000000000000
00000000000000FF8000000000000000
00000000000000FF8000000000000000
00000000000000FF8000000000000000
00000000000000FF8000000000000000
00000000000040FFC000000000000000
000000000020F0F0FFA0000000000000
0000000010E0F020A0FF600000000000
00000000A0FF400000C0F03000000000
00000080FF8000000010E0E010000000
000040FFC0000000000030F0C0000000
0020F0E01000000000000060FFA00000
10E0F0300000000000000000A0FF6000
60A0400000000000000000000080A010
ENDCHAR
STARTCHAR  4EBB
ENCODING  20155
SWIDTH  1000 0
DWIDTH  16 0
BBX  4 16 0 -2
BITMAP
00001020
0000E0E0
0030FF80
0080FF20
00E0C000
30FF8000
80FF2000
0010FF60
0010FF60
0010FF60
0010FF60
0010FF60
0010FF60
0010FF60
0010FF60
00006020
ENDCHAR
STARTCHAR  4EBF
ENCODING  20159
SWIDTH  1000 0
DWIDTH  16 0
BBX  16 16 0 -2
BITMAP
00000020100000000000000000000000
000060FF303080808080808080808000
0000C0C00060FFFFFFFFFFFFFFFFFF00
0030FF60000000000000000040FF8000
00A0F0000000000000000020F0C00000
10F0800000000000000000C0F0200000
60FF200000000000000080FF40000000
0010FF60000000000040FFA000000000
0010FF600000000010E0E00000000000
0010FF6000000000C0F0200000000000
0010FF6000000080FF60000000000000
0010FF60000040FFA000000000000000
0010FF600010E0E01000000000000000
0010FF6000C0FF401010101010101000
0010FF6010FFFFFFFFFFFFFFFFFFFF30
00006020006060606060606060606010
ENDCHAR
STARTCHAR  4EC0
ENCODING  20160
SWIDTH  1000 0
DWIDTH  16 0
BBX  15 15 0 -2
BITMAP
000040F0200000000020FF60000000
0000C0C0000000000020FF60000000
0030FF40000000000020FF60000000
00A0E000000000000020FF60000000
20FF8000000000000020FF60000000
80F01000A0FFFFFFFFFFFFFFFFFFFF
0000FF80408080808080FFA0808080
0000FF80000000000020FF60000000
0000FF80000000000020FF60000000
0000FF80000000000020FF60000000
0000FF80000000000020FF60000000
0000FF80000000000020FF60000000
0000FF80000000000020FF60000000
0000FF80000000000020FF60000000
00006020000000000010A030000000
ENDCHAR
STARTCHAR  4EC1
ENCODING  20161
SWIDTH  1000 0
DWIDTH  16 0
BBX  16 16 0 -2
BITMAP
00000020100000000000000000000000
000030FF400000000000000000000000
0000A0E00040FFFFFFFFFFFFFFFFFF20
0010F080002080808080808080808010
0060FF20000000000000000000000000
00C0C000000000000000000000000000
30FF6000000000000000000000000000
000080FF000000000000000000000000
000080FF000000000000000000000000
000080FF000000000000000000000000
000080FF000000000000000000000000
000080FF000000000000000000000000
000080FF000000000000000000000000
000080FF008080808080808080808030
000080FF00FFFFFFFFFFFFFFFFFFFF60
00002060000000000000000000000000
ENDCHAR
STARTCHAR  4EC2
ENCODING  20162
SWIDTH  1000 0
DWIDTH  16 0
BBX  15 15 0 -2
BITMAP
000030E040000010E0600000000000
0000A0F000000030FF600000000000
0010FF80008080A0FFA08080808080
0080FF2000FFFFFFFFFFFFFFFFFFFF
00E0A000000000C0E00000000080FF
60FF3000000000E0C00000000080FF
0010FF60000000FFA00000000080FF
0010FF60000030FF600000000080FF
0010FF60000060FF400000000080FF
0010FF60000080FF100000000080FF
0010FF600000A0F0000000000080FF
0010FF600000E0C0000000000080FF
0010FF600000F0A0000010202080FF
0010FF600020FF800000C0FFFFFFFF
000060200020A03000004060606060
ENDCHAR
STARTCHAR  4EC3
ENCODING  20163
SWIDTH  1000 0
DWIDTH  16 0
BBX  16 15 0 -2
BITMAP
000020C0400080808080808080808030
000080FF2000FFFFFFFFFFFFFFFFFF60
0000E0C000000000000000A060000000
0030FF6000000000000000FFA0000000
0080FF1000000000000000FFA0000000
00E0C00000000000000000FFA0000000
000080FF00000000000000FFA0000000
000080FF00000000000000FFA0000000
000080FF00000000000000FFA0000000
000080FF00000000000000FFA0000000
000080FF00000000000000FFA0000000
000080FF00000000000000FFA0000000
000080FF00000000000000FFA0000000
000080FF00000000FFFFFFFFA0000000
00002060000000008080808040000000
ENDCHAR
STARTCHAR  4EC4
ENCODING  20164
SWIDTH  1000 0
DWIDTH  16 0
BBX  16 15 0 -2
BITMAP
00808080808080808080808080808020
00FFFFFFFFFFFFFFFFFFFFFFFFFFFF40
00FF8000000000002040000000000000
00FF80000000000080FF000000000000
00FF80000000000080FF000000000000
00FF80000000000080FF000000000000
00FF800000000000C0FF400000000000
00FF800000000060FFE0E00000000000
00FF8000000020F0A030FF8000000000
00FF80000000C0E0100080FF30000000
00FF80000080FF40000000E0E0000000
00FF800030F0A00000000040FF800000
00FF8000E0E0100000000000A0F02000
00FF8080FF4000000000000010E0C000
00C060C080000000000000000040C030
ENDCHAR
STARTCHAR  4EC5
ENCODING  20165
SWIDTH  1000 0
DWIDTH  16 0
BBX  16 16 0 -2
BITMAP
00001020000000000000000000000000
0000E0E0003080808080808080803000
0020FF800080FFFFFFFFFFFFFFFF8000
0080FF30001030000000000000FF8000
00C0E0000080FF000000000000FF8000
20FF80000080FF000000000000FF8000
60FF20000080FF000000000000FF8000
0000FF800080FF300000000020FF8000
0000FF800030E0F060000060F0E03000
0000FF80000010A0FFA0A0FFA0100000
0000FF800000000080FFFFA000000000
0000FF8000000060F0E0E0FF80000000
0000FF800010A0FFC0101080FFE04000
0000FF8000E0FF800000000040E0FF60
0000FF8000E04000000000000010A080
00006020001000000000000000000010
ENDCHAR
STARTCHAR  4EC6
ENCODING  20166
SWIDTH  1000 0
DWIDTH  16 0
BBX  16 15 0 -2
BITMAP
000000A0E010000040FF400000000000
000030FF8000000040FF400000000000
0000C0E01000000040FF404040000000
0040FF600000000040FF4080F0000000
00C0E0000000000040FF4040FF400000
40FF60000000000040FF4000F0800000
000020FF6000000040FF4000C0E00000
000020FF6000000040FF400060FF1000
000020FF6000000040FF400030FF6000
000020FF6000000040FF400000E0A000
000020FF6000000040FF400000A0E000
000020FF6000000040FF40000040E010
000020FF6000000040FF400000000000
000020FF6000000040FF400000000000
00001060200000002080200000000000
ENDCHAR
STARTCHAR  4EC7
ENCODING  20167
SWIDTH  1000 0
DWIDTH  16 0
BBX  16 16 0 -2
BITMAP
00001010000000001000000000000000
0000C0E000000080FF10000000000000
0020FF80000000A0E000000000000000
0060FF3030FFFFFFFFFFFFFFFF000000
00C0E000108080FFC08080C0FF000000
10FF8000000020FF60000080FF000000
60FF4000000040FF30000080FF000000
0010FF60000060FF10000080FF000000
0010FF600000A0E000000080FF000000
0010FF600000C0C000000080FF000000
0010FF600000E0A000000080FF000000
0010FF600010FF6000000080FF000000
0010FF600040FF4000000080FF000000
0010FF600060FF1000000080FF101010
0010FF600080F00000000080FFFFFF80
00006020006080000000003060606030
ENDCHAR
STARTCHAR  4EC9
ENCODING  20169
SWIDTH  1000 0
DWIDTH  16 0
BBX  16 16 0 -2
BITMAP
00000010200000000000000000000000
000000E0C00030808080808080300000
000060FF400080FFFFFFFFFFFF600000
0000E0E0000080FF00000010FF600000
0040FF60000080FF00000010FF600000
00C0E000000080FF00000010FF600000
40FF6000000080FF00000010FF600000
000080FF000080FF00000010FF600000
000080FF000080FF00000010FF600000
000080FF000080FF00000010FF600000
000080FF000080FF00000010FF600000
000080FF000080FF00000010FF600000
000080FF000080FF00000010FF600000
000080FF000080FF00000010FF600000
000080FF000080FF00000010FFFFFFA0
00002060000020600000000080808040
ENDCHAR
STARTCHAR  4ECA
ENCODING  20170
SWIDTH  1000 0
DWIDTH  16 0
BBX  16 16 0 -2
BITMAP
00000000000020A06000000000000000
000000000060F0F0FFC0200000000000
00000020C0FFA01060F0F06000000000
000080F0E04000000010A0FFC0200000
30E0FFA0100000E060000040E0F08000
E0E04000000000FF8000000010A0FF60
80100000000000FF8000000000004040
00000000000000000000000000000000
00208080808080808080808080801000
0040FFFFFFFFFFFFFFFFFFFFFFFF2000
000000000000000000000060FFA00000
0000000000000000000060FFC0000000
00000000000000000040F0E010000000
000000000000000020F0E02000000000
0000000000000010E0F0300000000000
0000000000000080E040000000000000
ENDCHAR
STARTCHAR  4ECB
ENCODING  20171
SWIDTH  1000 0
DWIDTH  16 0
BBX  16 15 0 -2
BITMAP
00000000000010A0A010000000000000
000000000040E0FFFFE0400000000000
00000010A0FFE03030E0FFA010000000
000030E0FF801000001080FFE0300000
0080FFE04000000000000040E0FF8000
60FFA010000000000000000010A0FF60
40400030801000000000108020004040
00000080FF100000000030FF60000000
00000080F0000000000030FF60000000
000000A0E0000000000030FF60000000
000000C0C0000000000030FF60000000
000000E0A0000000000030FF60000000
000000FF80000000000030FF60000000
000020FF60000000000030FF60000000
000040FF40000000000030FF60000000
ENDCHAR
STARTCHAR  4ECD
ENCODING  20173
SWIDTH  1000 0
DWIDTH  16 0
BBX  16 15 0 -2
BITMAP
000030A0601080808080808080808000
0000A0FF2020FFFFFFFFFFFFFFFFF000
0010FFA0000000100000000080FF6000
0080FF30000000E080000020F0C00000
00E0C000000000FF600000A0FF300000
60FF4000000010FF400020FFE0808000
0010FF60000030FF300040FFFFFFFF10
0010FF60000040FF100000000060FF10
0010FF60000060F0000000000060FF10
0010FF60000080E0000000000060FF10
0010FF60000080C0000000000060FF10
0010FF600000A0A0000000000060FF10
0010FF600000C0A0000000202080FF10
0010FF600000E080000030FFFFFFFF10
000060200000F0600000106060606000
ENDCHAR
STARTCHAR  4ECE
ENCODING  20174
SWIDTH  1000 0
DWIDTH  16 0
BBX  16 16 0 -2
BITMAP
00000000100000000000001000000000
00000060FF200000000030FF40000000
00000060FF200000000030FF40000000
00000060FF200000000030FF40000000
00000060FF200000000030FF40000000
00000060FF200000000030FF40000000
000000C0FF600000000060FFA0000000
000010FFFFA000000000C0FFE0000000
000060FFA0F000000000F0A0FF400000
0000A0E030FF30000040FF20F0A00000
0010F08000E080000080E000A0E00000
0040FF4000A0E00000E0A00040FF3000
00A0E0000060FF1010FF600000F08000
00F0A0000020FF6060FF200000A0E000
40FF40000000E0A0A0E000000060FF30
30600000000040606040000000106030
ENDCHAR
STARTCHAR  4ED1
ENCODING  20177
SWIDTH  1000 0
DWIDTH  16 0
BBX  16 16 0 -2
BITMAP
00000000000000101000000000000000
00000000000060E0E060000000000000
0000000030C0FFC0C0FFC03000000000
000010A0FFE060000060E0FFA0100000
0060F0FF8010000000001080FFF06000
60FFC020000000000000000020C0FF60
40402080100000000000000000004040
000040FF300000000000001040802000
000040FF3000002060A0E0FFFFF03000
000040FF40A0E0FFFFE0A06030000000
000040FF40E0A0602000000000000000
000040FF300000000000000000000000
000040FF300000000000000000000000
000040FF402020202020202020200000
000040FFFFFFFFFFFFFFFFFFFFFF4000
00001060606060606060606060602000
ENDCHAR
STARTCHAR  4ED3
ENCODING  20179
SWIDTH  1000 0
DWIDTH  16 0
BBX  16 16 0 -2
BITMAP
00000000000000000000000000000000
00000000000030C0E040000000000000
0000000020A0FFF0E0FFA02000000000
00001080F0FF80101080F0FF80100000
0060E0FFA0200000000020A0FFF06000
80FFE040000000000000000030C0FFA0
60604080808080808080808080404080
000080FFFFFFFFFFFFFFFFFFFF800000
000080FF0000000000000000FF800000
000080FF0010101010101010FF800000
000080FF00E0FFFFFFFFFFFFFF800000
000080FF006060606060606060300000
000080FF000000000000000000000000
000080FF303030303030303030303000
000080FFFFFFFFFFFFFFFFFFFFFFF000
00002060606060606060606060604000
ENDCHAR
STARTCHAR  4ED4
ENCODING  20180
SWIDTH  1000 0
DWIDTH  16 0
BBX  16 15 0 -2
BITMAP
000020A0301080808080808080803000
0000A0F01020FFFFFFFFFFFFFFFF4000
0010F0800000000000000030F0A00000
0080FF2000000000000020E0C0000000
00E0A000000000000000E0E010000000
60FF3000000000000000FF8000000000
0010FF60008080808080FFA080808030
0010FF6000FFFFFFFFFFFFFFFFFFFF80
0010FF60000000000000FF8000000000
0010FF60000000000000FF8000000000
0010FF60000000000000FF8000000000
0010FF60000000000000FF8000000000
0010FF60000000000000FF8000000000
0010FF60000000FFFFFFFF8000000000
00006020000000606060603000000000
ENDCHAR
STARTCHAR  4ED5
ENCODING  20181
SWIDTH  1000 0
DWIDTH  16 0
BBX  16 15 0 -2
BITMAP
0000E0C0000000000080FF0000000000
0030FF60000000000080FF0000000000
0080FF20000000000080FF0000000000
00E0E0000080808080A0FF8080808040
20FF800000FFFFFFFFFFFFFFFFFFFFA0
60FF2000000000000080FF0000000000
0010FF60000000000080FF0000000000
0010FF60000000000080FF0000000000
0010FF60000000000080FF0000000000
0010FF60000000000080FF0000000000
0010FF60000000000080FF0000000000
0010FF60000000000080FF0000000000
0010FF60001020202020302020202010
0010FF6000E0FFFFFFFFFFFFFFFFFF80
00006020004060606060606060606020
ENDCHAR
STARTCHAR  4ED6
ENCODING  20182
SWIDTH  1000 0
DWIDTH  16 0
BBX  16 16 0 -2
BITMAP
00000000000000000010100000000000
0000C0A0001080200080FF0000000000
0020FF600030FF400080FF001040A000
0080FF100030FF400080FFC0F0FFFF00
00C0C0000030FFA0C0FFFFC080A0FF00
20FF800060C0FFFFC0C0FF000080FF00
60FF2000E0E0FF400080FF000080FF00
0010FF601030FF400080FF000080FF00
0010FF600030FF400080FF000080FF00
0010FF600030FF400080FF000080FF00
0010FF600030FF400080FF000080FF00
0010FF600030FF400080FF000040A000
0010FF600030FF400010200000000000
0010FF600030FF602020202020202010
0010FF600030FFFFFFFFFFFFFFFFFF60
00006020001060606060606060606020
ENDCHAR
STARTCHAR  4ED7
ENCODING  20183
SWIDTH  1000 0
DWIDTH  16 0
BBX  16 16 0 -2
BITMAP
00001020000000000000000010300000
0000C0E0000000000000000040FF3000
0020FF80106060606060606080FF8040
0060FF3030FFFFFFFFFFFFFFFFFFFFA0
00C0E000003040202020202060FF4010
10FF80000080FF000000000040FF3000
60FF20000080FF000000000040FF3000
0010FF600080FF000000000040FF3000
0010FF600080FF000000000040FF3000
0010FF600060FFC030000060E0FF2000
0010FF60000040E0FFA0C0FFC0300000
0010FF6000000010E0FFFFE010000000
0010FF60000030E0FFA080FFF0801000
0010FF600080FFE040000020A0FFE060
0010FF6000FF8000000000000030C0C0
00006020003000000000000000000020
ENDCHAR
STARTCHAR  4ED8
ENCODING  20184
SWIDTH  1000 0
DWIDTH  16 0
BBX  15 16 0 -2
BITMAP
000000101000000000000000103000
000000E0600000000000000080FF00
000060F0100000000000000080FF00
0000E0A000FFFFFFFFFFFFFFFFFFFF
0040FF400060808080808080C0FF80
00C0E000000060400000000080FF00
20FF80000000C0F00000000080FF00
000080FF000080FF4000000080FF00
000080FF000020FF8000000080FF00
000080FF000000E0E000000080FF00
000080FF00000080FF20000080FF00
000080FF00000040FF60000080FF00
000080FF00000000C080000080FF00
000080FF000000000000000080FF00
000080FF0000000000C0FFFFFFFF00
000020600000000000408080808000
ENDCHAR
STARTCHAR  4ED9
ENCODING  20185
SWIDTH  1000 0
DWIDTH  16 0
BBX  15 15 0 -2
BITMAP
0000C0A0000000000060F000000000
0020FF6000F060000080FF000060F0
0080FF1000FF80000080FF000080FF
00E0C00000FF80000080FF000080FF
20FF600000FF80000080FF000080FF
60FF200000FF80000080FF000080FF
0010FF6000FF80000080FF000080FF
0010FF6000FF80000080FF000080FF
0010FF6000FF80000080FF000080FF
0010FF6000FF80000080FF000080FF
0010FF6000FF80000080FF000080FF
0010FF6000FF80000080FF000080FF
0010FF6000FF8020202020201080FF
0010FF6000FFFFFFFFFFFFFFE0E0FF
000060200060606060606060400000
ENDCHAR
STARTCHAR  4EDD
ENCODING  20189
SWIDTH  1000 0
DWIDTH  16 0
BBX  16 16 0 -2
BITMAP
00000000000000200000000000000000
000000000010A0FFE060000000000000
0000000080F0F080C0FFE04000000000
000060E0FFA020000040E0FFC0400000
20C0FFC03000000000000060E0FFC020
60E0600000000000000000000060E060
10101010101010101010101010100010
00FFFFFFFFFFFFFFFFFFFFFFFFFF0000
00808080808080808080808080800000
00000000000000E06000000000000000
00000000000000FF8000000000000000
00000000000000FF8000000000000000
00000000000000FF8000000000000000
00202020202020202020202020202000
20FFFFFFFFFFFFFFFFFFFFFFFFFFFF20
10606060606060606060606060606010
ENDCHAR
STARTCHAR  4EDE
ENCODING  20190
SWIDTH  1000 0
DWIDTH  16 0
BBX  15 16 0 -2
BITMAP
000010200000000000000000000000
0000E0A00040808080808080808080
0030FF600080FFFFFFFFFFFFFFFFFF
0080FF1000000000104020000080FF
00E0C0000000000040FF30000080FF
20FF60000060FF1080FF00000080FF
60FF200000A0E000A0E000000080FF
0010FF6000E0A000E0A000000080FF
0010FF6000FF8000FF8000000080FF
0010FF6030FF4030FF4000000080FF
0010FF6060FF2060FF1000000080FF
0010FF6030600080F00000000080FF
0010FF60000000C0C00000000080FF
0010FF60000000F0800000101080FF
0010FF60000020FF600010FFFFFFFF
00006020000030A020000060606060
ENDCHAR
STARTCHAR  4EDF
ENCODING  20191
SWIDTH  1000 0
DWIDTH  16 0
BBX  16 16 0 -2
BITMAP
00000020100000000000000000000000
000060FF2010204040608080A0C0E000
0000E0C000F0FFFFFFFFFFFFFFE0E000
0030FF60008080606040201000000000
00A0F000000000000080FF0000000000
10F08000000000000080FF0000000000
60FF2000000000000080FF0000000000
0010FF60000000000080FF0000000000
0010FF6020FFFFFFFFFFFFFFFFFFFF60
0010FF601080808080A0FF8080808020
0010FF60000000000080FF0000000000
0010FF60000000000080FF0000000000
0010FF60000000000080FF0000000000
0010FF60000000000080FF0000000000
0010FF60000000000080FF0000000000
00006020000000000040A00000000000
ENDCHAR
STARTCHAR  4EE1
ENCODING  20193
SWIDTH  1000 0
DWIDTH  16 0
BBX  15 15 0 -2
BITMAP
000060A01060C00000000000000000
0000C0C00080FF8080808080808080
0020FF400080FFFFFFFFFFFFFFFFFF
0080E0000000000000000000000000
00E080000040404040404040404000
40FF200000FFFFFFFFFFFFFFFFFF10
2040FF600030303030303060FFA000
0010FF6000000000000040F0A00000
0010FF60000000000040F0C0000000
0010FF600000000040FFC010000000
0010FF6000000060FFC01000000000
0010FF60000060FFE0100000000000
0010FF600060FFE030101010101010
0010FF6000E0FFFFFFFFFFFFFFFFFF
000060200040606060606060606060
ENDCHAR
STARTCHAR  4EE3
ENCODING  20195
SWIDTH  1000 0
DWIDTH  16 0
BBX  16 16 0 -2
BITMAP
00000010100000000010100000000000
000000E08000000000A0FF100080FF00
000060FF200000000060FF600080FF00
0000C0C0000000000010FFA00080FF00
0030FF40000000000000E0E000000000
00A0E00000000000000080FF20000000
20FF800000FFFFFFFFFFFFFFFFFFFF40
3080200000808080808080FFE0808020
000080FF00000000000000C0F0000000
000080FF0000000000000080FF300000
000080FF0000000000000040FF600000
000080FF0000000000000010FFA00000
000080FF0000000000000000C0E00000
000080FF000000000000000080FF2000
000080FF000000000000000040FF6000
000060E0000000000000000010F08000
ENDCHAR
STARTCHAR  4EE4
ENCODING  20196
SWIDTH  1000 0
DWIDTH  16 0
BBX  16 16 0 -2
BITMAP
00000000000000200000000000000000
00000000000080FF8000000000000000
0000000010A0FFE0FFC0100000000000
00000020E0FF800060F0E03000000000
000040F0F04000000030E0F060000000
0080FFE0200000FF800010C0FF800000
A0FFA000000000FF8000000080FFC010
A0600000000000FF800000000040E040
10000000000000000000000000001020
0080FFFFFFFFFFFFFFFFFFFFFFFF0000
004080808080808080808080FFC00000
0000000000000000000000A0FF300000
0000000000000000000040FF80000000
00000000000000000000E0E010000000
00000000A0FFFFFFFFFFFF4000000000
00000000408080808080600000000000
ENDCHAR
STARTCHAR  4EE5
ENCODING  20197
SWIDTH  1000 0
DWIDTH  16 0
BBX  16 16 0 -2
BITMAP
00000000103000000000603000000000
00F0600040FF40000000FF8000000000
00FF800010FF60000000FF8000000000
00FF800000F080000000FF8000000000
00FF800000E0A0000000FF8000000000
00FF800000A0C0000000FF8000000000
00FF80000080E0000000FF8000000000
00FF80000060FF100020FFA000000000
00FF80000040FF300080FFF010000000
00FF80000010FF4010F0A0FF80000000
00FF80000000000060FF20A0F0000000
00FF800000000000E0C00030FF600000
00FF802020200040FF400000C0E00000
00FFFFFFFFFF30C0E000000040FF6000
00606060606030FF6000000000E0C000
00000000000040A0000000000040A020
ENDCHAR
STARTCHAR  4EE8
ENCODING  20200
SWIDTH  1000 0
DWIDTH  16 0
BBX  16 16 0 -2
BITMAP
00001020000000000000000000000000
0000E0E0006080808080808080808000
0030FF8000FFFFFFFFFFFFFFFFFFFF00
0080FF20000000000000000000000000
00E0E000000000000000000000000000
20FF8000000000000000000000000000
60FF2000000000000000000000000000
0010FF60006080808080808080806000
0010FF6000E0FFFFFFFFFFFFFFFFE000
0010FF60000000000000000000000000
0010FF60000000000000000000000000
0010FF60000000000000000000000000
0010FF60000000000000000000000000
0010FF60002020202020202020202020
0010FF6000FFFFFFFFFFFFFFFFFFFFF0
00006020004040404040404040404040
ENDCHAR
STARTCHAR  4EEA
ENCODING  20202
SWIDTH  1000 0
DWIDTH  16 0
BBX  16 16 0 -2
BITMAP
00000010000000000000000000000000
0000A0E00060FF000080FF0000FF6000
0010F0800080FF000080FF0000FF8000
0060FF300080FF000080FF0000FF8000
00C0E0000080FF000080FF0000FF8000
10FF80000080FF000080FF0000FF8000
60FF20000080FF000040800000FF8000
0010FF600040FFA000000000A0FF6000
0010FF60000060FFA0000080FF800000
0010FF6000000060FFC080FF80000000
0010FF600000000060FFFFA000000000
0010FF600000000080FFFFC000000000
0010FF6000000080FFA040FFC0000000
0010FF60000080FFA0000060FFA00000
0010FF600080FF800000000060FFA000
00006020000000000000000000000000
ENDCHAR
STARTCHAR  4EEB
ENCODING  20203
SWIDTH  1000 0
DWIDTH  16 0
BBX  15 15 0 -2
BITMAP
000020E040000000C0C00000000000
0000A0E000000060FF400000000000
0010F080000000E0C0000000000000
0080F010000060FF40003060000000
00E0A0000000E0C00010E0A0000000
60FF30000060FF300080FF20000000
0010FF6000E0A00020F08000000000
0010FF6060FF2000A0F01030A02000
0010FF6000000030FF800020FF8000
0010FF60000000C0E0000000E0C000
0010FF60000060FF6000000080FF10
0010FF600000E0C00000000030FF60
0010FF600080FF602020202020E0C0
0010FF6000E0FFFFFFFFFFFFFFFFFF
000060200040606060606060606060
ENDCHAR
STARTCHAR  4EEC
ENCODING  20204
SWIDTH  1000 0
DWIDTH  16 0
BBX  15 15 0 -2
BITMAP
000080800010A06000608080808080
0020FF800000A0F010E0FFFFFFFFFF
0060FF20000020FFA00000000080FF
00C0E00000FF8060800000000080FF
10FF800000FF8000000000000080FF
60FF200000FF8000000000000080FF
0010FF6000FF8000000000000080FF
0010FF6000FF8000000000000080FF
0010FF6000FF8000000000000080FF
0010FF6000FF8000000000000080FF
0010FF6000FF8000000000000080FF
0010FF6000FF8000000000000080FF
0010FF6000FF8000000000000080FF
0010FF6000FF8000000000F0FFFFFF
0000602000A0400000000060808080
ENDCHAR
STARTCHAR  4EF0
ENCODING  20208
SWIDTH  1000 0
DWIDTH  16 0
BBX  16 16 0 -2
BITMAP
00001020000000000000000000000000
0000E0A0208080806030808080808000
0030FF6040FFFFFFC060FFFFFFFFFF00
0080FF1040FF30000060FF200080FF00
00E0C00040FF30000060FF200080FF00
20FF600040FF30000060FF200080FF00
60FF200040FF30000060FF200080FF00
0010FF6040FF30000060FF200080FF00
0010FF6040FF30000060FF200080FF00
0010FF6040FF30000060FF200080FF00
0010FF6040FF30000060FF200080FF00
0010FF6040FF30000060FF200080FF00
0010FF6040FF80806060FF2080A0FF00
0010FF6040FFFFFFC060FF20FFFFFF00
0010FF60000000000060FF2000000000
00006020000000000020601000000000
ENDCHAR
STARTCHAR  4EF2
ENCODING  20210
SWIDTH  1000 0
DWIDTH  16 0
BBX  15 16 0 -2
BITMAP
000000000000000000103000000000
000080FF200000000080FF00000000
0000E0C0000000000080FF00000000
0040FF600030808080C0FF80808080
00A0F0000080FFFFFFFFFFFFFFFFFF
10F080000080FF000080FF000080FF
60FF20000080FF000080FF000080FF
0010FF600080FF000080FF000080FF
0010FF600080FF000080FF000080FF
0010FF600080FF000080FF000080FF
0010FF600080FF101080FF101080FF
0010FF600080FFFFFFFFFFFFFFE0FF
0010FF600030808080C0FF80806080
0010FF60000000000080FF00000000
0010FF60000000000080FF00000000
00006020000000000040A000000000
ENDCHAR
STARTCHAR  4EF3
ENCODING  20211
SWIDTH  1000 0
DWIDTH  16 0
BBX  16 16 0 -2
BITMAP
00001020002000000000201000000000
0000E0A040FF40000000FF8000000000
0030FF6040FF40000000FF8000000000
0080FF1040FF40000000FF8000000000
00E0C00040FF40000000FF8000000000
20FF600040FF40FFFF80FF80FFFFFF30
60FF200040FF40808040FF8080808010
0010FF6040FF40000000FF8000000000
0010FF6040FF40000000FF8000000000
0010FF6040FF40000000FF8000000000
0010FF6040FF40000000FF8000000000
0010FF6040FF40000000FF8000000000
0010FF6040FF40000000FF8000000000
0010FF6040FF40101010FF8010101000
0010FF6040FFFFFFFF80FFFFFFFFFF30
00006020106060606030606060606010
ENDCHAR
STARTCHAR  4EF5
ENCODING  20213
SWIDTH  1000 0
DWIDTH  16 0
BBX  16 15 0 -2
BITMAP
0000C0C000F060000000000000000000
0020FF8000FFA0606060606060604000
0080FF2000FFFFFFFFFFFFFFFFFFA000
00C0E000001010101010101010100000
20FF8000000000000080FF0000000000
60FF2000000000000080FF0000000000
0010FF60000000000080FF0000000000
0010FF60000000000080FF0000000000
0010FF6000FFFFFFFFFFFFFFFFFFFFC0
0010FF600080808080A0FF8080808040
0010FF60000000000080FF0000000000
0010FF60000000000080FF0000000000
0010FF60000000000080FF0000000000
0010FF60000000000080FF0000000000
00006020000000000060C00000000000
ENDCHAR
STARTCHAR  4EF6
ENCODING  20214
SWIDTH  1000 0
DWIDTH  16 0
BBX  16 15 0 -2
BITMAP
000080E01040A0000080FF0000000000
0000E0C00080FF000080FF0000000000
0040FF600080FF202080FF2020201000
00A0F0000080FFFFFFFFFFFFFFFFFF00
10F080000030606060A0FF6060606000
60FF2000000000000080FF0000000000
0000FF80000000000080FF0000000000
0000FF80000000000080FF0000000000
0000FF801080808080C0FF8080808010
0000FF8020FFFFFFFFFFFFFFFFFFFF30
0000FF80000000000080FF0000000000
0000FF80000000000080FF0000000000
0000FF80000000000080FF0000000000
0000FF80000000000080FF0000000000
00006020000000000040800000000000
ENDCHAR
STARTCHAR  4EF7
ENCODING  20215
SWIDTH  1000 0
DWIDTH  16 0
BBX  16 16 0 -2
BITMAP
00000000000000000000000000000000
000010F0A000000020F0E01000000000
000080FF20000010E0E0F0A000000000
0000E0A0000000C0F03060FF80000000
0060FF30000080FF60000080FF400000
00E0C0000060FF8000000000C0F03000
40FF400030F0A0000000000010E0E010
1020FF80204010000000000000204020
0000FF800000E0A000000040FF400000
0000FF800000E0A000000040FF400000
0000FF800000F08000000040FF400000
0000FF800000FF8000000040FF400000
0000FF800010FF6000000040FF400000
0000FF800020FF6000000040FF400000
0000FF800020FF4000000040FF400000
00006020001080200000002080200000
ENDCHAR
STARTCHAR  4EFB
ENCODING  20219
SWIDTH  1000 0
DWIDTH  16 0
BBX  16 16 0 -2
BITMAP
00001020000000000000000000000000
0000E0A00030404060608080A0A0A010
0030FF6000FFFFFFFFFFFFF0E0E0C010
0080FF10004030202030600000000000
00E0C000000000000080FF0000000000
20FF6000000000000080FF0000000000
60FF2000000000000080FF0000000000
0010FF601060606060A0FF6060606020
0010FF6030FFFFFFFFFFFFFFFFFFFF40
0010FF60001010101080FF1010101000
0010FF60000000000080FF0000000000
0010FF60000000000080FF0000000000
0010FF60000000000080FF0000000000
0010FF60002020202020302020202000
0010FF6020FFFFFFFFFFFFFFFFFFFF30
00006020106060606060606060606010
ENDCHAR
STARTCHAR  4EFD
ENCODING  20221
SWIDTH  1000 0
DWIDTH  16 0
BBX  16 15 0 -2
BITMAP
0000A0C0000020E0600000A0C0000000
0000F0A0000080FF20000060FF300000
0040FF600000E0C000000010F0A00000
0080FF100060FF4000000000A0F01000
00E0C00000C0E0000000000030FF6000
10FF800020FF80202020202020E0E000
60FF300080FFA0FFFFFFFFFFFFA0FF40
3060FF80404030C080606080FF406030
0000FF80000040FF30000040FF400000
0000FF80000080F000000040FF400000
0000FF800000C0C000000040FF400000
0000FF800000F08000000040FF400000
0000FF800030FF4000000040FF400000
0000FF800080F0000040FFFFFF400000
00004020006080000020808080200000
ENDCHAR
STARTCHAR  4EFF
ENCODING  20223
SWIDTH  1000 0
DWIDTH  16 0
BBX  16 15 0 -2
BITMAP
000080E0100000000060F00000000000
0000E0C00040404040A0FF4040404010
0040FF6020FFFFFFFFFFFFFFFFFFFF20
00A0F000003060FF6030303030303000
10F0A000000060FF3000000000000000
60FF3000000080FF1010101010100000
0000FF800000A0FFFFFFFFFFFFFF8000
0000FF800000C0E08080808080FF8000
0000FF800000E0A00000000000FF8000
0000FF800000FF800000000000FF8000
0000FF800020FF600000000000FF8000
0000FF800040FF400000000000FF8000
0000FF800060FF200000001010FF8000
0000FF800080F000000030FFFFFF8000
00006020006080000000106060603000
ENDCHAR
STARTCHAR  4F01
ENCODING  20225
SWIDTH  1000 0
DWIDTH  16 0
BBX  16 16 0 -2
BITMAP
00000000000000202000000000000000
00000000000080F0F080000000000000
0000000040E0FFA0A0FFE04000000000
000010A0FFE030000030E0FFA0100000
0060F0F06000001020000060F0F06000
60FFA01000000060FF20000010A0FF60
3040006030000060FF20000000004040
000000FF80000060FF20000000000000
000000FF80000060FFFFFFFFFFFF3000
000000FF80000060FF80808080801000
000000FF80000060FF20000000000000
000000FF80000060FF20000000000000
000000FF80000060FF20000000000000
002020FF80202060FF40202020202000
30FFFFFFFFFFFFFFFFFFFFFFFFFFFF30
10606060606060606060606060606010
ENDCHAR
STARTCHAR  4F09
ENCODING  20233
SWIDTH  1000 0
DWIDTH  16 0
BBX  16 15 0 -2
BITMAP
000060C0000000000060E00000000000
0000E0A00080808080C0FF8080808000
0030FF4000FFFFFFFFFFFFFFFFFFFF00
0080F000000000000000000000000000
00E0A000000030606060606060300000
40FF4000000080FFFFFFFFFFFF800000
2040FF80000080FF10101010FF800000
0000FF80000080FF00000000FF800000
0000FF80000080FF00000000FF800000
0000FF80000080FF00000000FF800000
0000FF80000080FF00000000FF800000
0000FF80000080FF00000000FF800000
0000FF80001080FF00000000FF801000
0000FF8030FFFFFF00000000FFFFFF40
00006020106060600000000060606020
ENDCHAR
STARTCHAR  4F0A
ENCODING  20234
SWIDTH  1000 0
DWIDTH  16 0
BBX  15 16 0 -2
BITMAP
000010100000000000000000000000
0000E0800080808080808080808020
0030FF3000FFFFFFFFFFFFFFFFFF60
0080F000000000008040000020FF60
00C0A00000000000F080000020FF60
10FF600060606060FFA0606080FFA0
60FF2000FFFFFFFFFFFFFFFFFFFFFF
2040FF6010101080FF20101030FF60
0010FF6000000080E000000020FF60
0010FF60003030C0E030303020FF60
0010FF6000FFFFFFFFFFFFFFA0FF60
0010FF60004040FFA0404040404020
0010FF60000020FF40000000000000
0010FF60000040FF20000000000000
0010FF60000080FF00000000000000
000060200000304000000000000000
ENDCHAR
STARTCHAR  4F0D
ENCODING  20237
SWIDTH  1000 0
DWIDTH  16 0
BBX  16 15 0 -2
BITMAP
00008060108080808080808080808000
0020FF6020FFFFFFFFFFFFFFFFFFFF10
0060FF10000020A02000000000000000
00C0C000000040FF2000000000000000
20FF6000000060FF1000000000000000
60FF20000060A0FF6060606060602000
0010FF6000FFFFFFFFFFFFFFFFFF4000
0010FF600010A0E01010101040FF4000
0010FF600000C0C00000000030FF4000
0010FF600000C0A00000000030FF4000
0010FF600000E0800000000030FF4000
0010FF600000F0800000000030FF4000
0010FF601020FF802020202030FF6000
0010FF6080FFFFFFFFFFFFFF80FFFF40
00006020306060606060606040606010
ENDCHAR
STARTCHAR  4F0E
ENCODING  20238
SWIDTH  1000 0
DWIDTH  16 0
BBX  15 15 0 -2
BITMAP
0000E0800000000000F06000000000
0040FF404080808080FFA080808080
00A0F010A0FFFFFFFFFFFFFFFFFFFF
00E0C0000000000000FF8000000000
30FF60000000000000C06000000000
80FF20002080808080808080808030
0000FF8040FFFFFFFFFFFFFFFFFF80
0000FF80102000000000000000FF80
0000FF8040FFA0200000001080FF60
0000FF801080E0FFA02060E0F08010
0000FF8000001080F0FFFFC0200000
0000FF80000040C0FFC0F0F0801000
0000FF8020C0FFE040001080F0F080
0000FF8080E06000000000001080F0
000060202000000000000000000020
ENDCHAR
STARTCHAR  4F0F
ENCODING  20239
SWIDTH  1000 0
DWIDTH  16 0
BBX  16 16 0 -2
BITMAP
00002020000000000020100000000000
0000F0A00000000000FF800080FF0000
0040FF600000000000FF800080FF0000
0080FF100000000000FF800000000000
00E0C000C0FFFFFFFFFFFFFFFFFFFF00
20FF80004080808080FFA08080808000
80FF20000000000000FF800000000000
0000FF800000000030FFA00000000000
0000FF8000000000C0FFFF3000000000
0000FF8000000060FF60E0C000000000
0000FF80000010F0C00030FF60000000
0000FF800000A0FF200000A0E0100000
0000FF800030FF8000000010E0800000
0000FF8000C0E0100000000040FF2000
0000FF8060FF60000000000000A0C000
00006020404000000000000000104000
ENDCHAR
STARTCHAR  4F10
ENCODING  20240
SWIDTH  1000 0
DWIDTH  16 0
BBX  15 16 0 -2
BITMAP
000000102000000020200000000000
000000A0C0000000A0E00000008030
000020FF4000000040FF400000FF60
0000A0E00000000000F0800000FF60
0020FF600000000000A0E000000010
00A0E0000000103060A0FFC0E0F0FF
30FF800000E0FFFFF0E0F0E0806030
000080FF006040200000A0E0000000
000080FF00000000000040FF400000
000080FF00000000000000F0A060E0
000080FF00000000000010C0FFFFE0
000080FF0000000030A0F0FFFF6000
000080FF000060C0FFF08020F0A000
000080FF0040FFE060100000A0E000
000080FF003040000000000040FF40
000020600000000000000000006020
ENDCHAR
STARTCHAR  4F11
ENCODING  20241
SWIDTH  1000 0
DWIDTH  16 0
BBX  16 15 0 -2
BITMAP
0000E0A00000000000FF800000000000
0020FF600000000000FF800000000000
0080FF103060606060FFA06060606000
00C0C000A0FFFFFFFFFFFFFFFFFFFF00
20FF60001020202020FF802020202000
60FF20000010F06000FF8000E0800000
0010FF600040FF3000FF8000C0C00000
0010FF600060FF0000FF800080F00000
0010FF6000A0E00000FF800060FF2000
0010FF6000E0A00000FF800020FF4000
0010FF6000F0600000FF800000F08000
0010FF6030FF400000FF800000C0A000
0010FF6060FF100000FF80000080E000
0010FF6080E0000000FF80000060FF10
00006020404000000080400000106010
ENDCHAR
STARTCHAR  4F17
ENCODING  20247
SWIDTH  1000 0
DWIDTH  16 0
BBX  16 16 0 -2
BITMAP
00000000000000101000000000000000
00000000000060E0E060000000000000
0000000040E0FFC0A0FFE04000000000
000030C0FFE040000040C0FFC0400000
10A0FFE06000000000000060E0FFA020
40F0601020000000000000201060F060
10100080FF000000000000FF80001020
00000080FF000000000000FF80000000
00000080FF100000000010FF80000000
000000E0FF600000000060FFE0000000
000040FFE0E000000000E0E0FF400000
0000A0E060FF40000040FF60E0A00000
0020FF8000E0A00000A0E00080FF2000
0080F0100080FF1010FF800010F08000
00F0A0000010FF8080FF200000A0F000
20802000000060606060000000208020
ENDCHAR
STARTCHAR  4F18
ENCODING  20248
SWIDTH  1000 0
DWIDTH  16 0
BBX  16 15 0 -2
BITMAP
0000A0E0000000A0E000000060F00000
0000F080000000E0C000000080FF0000
0040FF20000000F0A000000030600000
00A0E000808080FFC080808080808020
10F08000FFFFFFFFFFFFFFFFFFFFFF40
60FF2000000060FF2020400000000000
0010FF600000A0F00060FF2000000000
0010FF600000C0E00060FF2000000000
0010FF600000E0A00060FF2000000000
0010FF600010FF800060FF2000000000
0010FF600040FF400060FF2000000000
0010FF600060FF200060FF2000000000
0010FF6000A0F0000060FF2010101000
0010FF6000C0C0000060FFFFFFFFFF40
00006020004030000020606060606020
ENDCHAR
STARTCHAR  4F19
ENCODING  20249
SWIDTH  1000 0
DWIDTH  16 0
BBX  16 16 0 -2
BITMAP
00001020000000000030100000000000
0000E0C000C0600000FF800000C06000
0030FF6000E0800000FF800010FF6000
0080FF2000E0A00000FF800020FF6000
00E0E00000C0A00000FF800030FF4000
20FF800000A0C00000FF800040FF3000
60FF300000A0E00000FF800060FF2000
0000FF800080E00000FF800060FF1000
0000FF800060FF0000FF800080FF0000
0000FF800000000080FFE01000000000
0000FF8000000040FFA0F0A000000000
0000FF80000010E0C00060FF60000000
0000FF800000A0F0200000A0FF300000
0000FF800060FF6000000010E0E01000
0000FF8030F0A0000000000030F0A000
00006020204010000000000000304010
ENDCHAR
STARTCHAR  4F1A
ENCODING  20250
SWIDTH  1000 0
DWIDTH  16 0
BBX  15 16 1 -2
BITMAP
000000000000103000000000000000
000000000060F0FFA0200000000000
00000040E0FFA080F0F08000000000
0010A0FFE040000020A0FFE0600000
60F0F08000000000000040E0FFC030
F0A02000000000000000000060E080
4000C0FFFFFFFFFFFFFFFFFF001030
000060808080808080808080000000
000000000000000000000000000000
FFFFFFFFFFFFFFFFFFFFFFFFFFFFA0
808080808080808080808080808040
000060C02000000000002030000000
0000E0C000000000000060FF400000
0030FF6020202020202020F0C00000
00A0FFFFFFFFFFFFFFFFFFFFFF4000
004060606060606060606060603000
ENDCHAR
STARTCHAR  4F1B
ENCODING  20251
SWIDTH  1000 0
DWIDTH  16 0
BBX  16 16 0 -2
BITMAP
00001020000000000000000000000000
0000E0A0208080808080808080808020
0030FF6060FFFFFFFFFFFFFFFFFFFF40
0080FF1060FF2080800000000080A000
00E0C00060FF2060FF60000060FF6000
20FF600060FF2000A0F02020F0C00000
60FF200060FF200010E0C0C0F0100000
0010FF6060FF20000040FFFF60000000
0010FF6060FF20000020FFFF30000000
0010FF6060FF200000C0E0E0E0000000
0010FF6060FF200080FF4040FF800000
0010FF6060FF2020F0A00000A0FF3000
0010FF6060FF20C0E010000010E0E000
0010FF6060FF40202020202020202010
0010FF6060FFFFFFFFFFFFFFFFFFFF40
00006020206060606060606060606010
ENDCHAR
STARTCHAR  4F1E
ENCODING  20254
SWIDTH  1000 0
DWIDTH  16 0
BBX  16 16 0 -2
BITMAP
00000000000000100000000000000000
00000000001080F0E040000000000000
0000000060E0FFA0E0FFC03000000000
000040E0FFC030000060E0FFA0300000
10A0FFE04000006030000060F0FFA020
60F08020000000FF8000000030A0F060
2010A0C0000000FF80000000F0A01020
000060FF100000FF80000040FF600000
000030FF400000FF80000080FF100000
000000F0800000FF800000C0E0000000
000000A0C00000FF800010FF80000000
10606060606060FFA060606060606010
40FFFFFFFFFFFFFFFFFFFFFFFFFFFF40
00101010101010FF8010101010101000
00000000000000FF8000000000000000
00000000000000FF8000000000000000
ENDCHAR
STARTCHAR  4F1F
ENCODING  20255
SWIDTH  1000 0
DWIDTH  16 0
BBX  16 15 0 -2
BITMAP
0000C0C000000000FF80000000000000
0020FF8020808080FFA0808080808010
0080FF2060FFFFFFFFFFFFFFFFFFFF20
00C0E00000000000FF80000000000000
10FF800000406060FFA0606060606000
60FF200000E0FFFFFFFFFFFFFFFFFF00
2040FF6000102020FF80202020202000
0010FF6000101010FF80101010101000
0010FF6010FFFFFFFFFFFFFFFFFFFF00
0010FF6000606060FFA0606060A0FF00
0010FF6000000000FF8000000080FF00
0010FF6000000000FF8000000080FF00
0010FF6000000000FF800060FFFFFF00
0010FF6000000000FF80003080808000
00006020000000008040000000000000
ENDCHAR
STARTCHAR  4F20
ENCODING  20256
SWIDTH  1000 0
DWIDTH  16 0
BBX  16 15 0 -2
BITMAP
000060E010000000E080000000000000
0000E0C000204060FFA0404040404000
0030FF600060FFFFFFFFFFFFFFFFFF00
0080F010001020A0F020202020202000
00F0A000000000C0C000000000000000
40FF400060FFFFFFFFFFFFFFFFFFFF10
2040FF80208080FFA080808080808000
0000FF80000040FF4000000000000000
0000FF80000080FF8080808080803000
0000FF800000A0FFFFFFFFFFFFFF4000
0000FF80000000000000000060FF1000
0000FF800000000000000000A0E00000
0000FF800000101010101010E0A00000
0000FF80000080FFFFFFFFFFFF600000
00006020000030606060606060200000
ENDCHAR
STARTCHAR  4F22
ENCODING  20258
SWIDTH  1000 0
DWIDTH  16 0
BBX  16 15 0 -2
BITMAP
0000A0F010E0E0E0E0E0E0E0E0E0E020
0000F0A000A0A0A0A0A0A0A0E0FFA020
0040FF40004080000000000080FF0000
00A0E0000080FF000000000080FF0000
10FF80000080FF000000000080FF0000
60FF20000080FF000000000080FF0000
0010FF600080FF808080806080FF8010
0010FF600080FFFFFFFFFFF0E0FFFF30
0010FF60000000603000000080FF0000
0010FF60000040FF4000000080FF0000
0010FF600000A0E00000000080FF0000
0010FF600000F0A00000000080FF0000
0010FF600040FF400000000080FF0000
0010FF6000A0E0000000C0FFFFFF0000
00006020006040000000608080800000
ENDCHAR
STARTCHAR  4F24
ENCODING  20260
SWIDTH  1000 0
DWIDTH  16 0
BBX  16 15 0 -2
BITMAP
000040E04010F0600000000000000000
0000C0E00020FF601010101010101000
0020FF800020FFFFFFFFFFFFFFFFFF60
0080FF10001060606060606060606020
00F0A00000000010A040000000000000
60FF300000208080FFA0808080808000
0010FF600060FFFFFFFFFFFFFFFFFF00
0010FF60000000A0F00000000080FF00
0010FF60000000C0E00000000080FF00
0010FF60000000E0A00000000080FF00
0010FF60000010FF800000000080FF00
0010FF60000030FF400000000080FF00
0010FF60000060FF200000101080FF00
0010FF60000080F0000020FFFFFFFF00
00006020000030400000106060606000
ENDCHAR
STARTCHAR  4F25
ENCODING  20261
SWIDTH  1000 0
DWIDTH  16 0
BBX  16 16 0 -2
BITMAP
00000020100020100000000010301000
000060FF2010FF6000000000A0F01000
0000E0C00010FF6000000020FF800000
0030FF600010FF60000000A0F0100000
00A0F0000010FF60000030FF80000000
10F0A0000010FF600000A0E010000000
60FF30000010FF600000603000000000
0000FF80C0FFFFFFFFFFFFFFFFFFFF00
0000FF806080FFA08080808080808000
0000FF800010FF600000806000000000
0000FF800010FF60000080FF30000000
0000FF800010FF60000010E0C0000000
0000FF800010FF6000000060FF600000
0000FF800010FF6010100000C0E01000
0000FF800010FFFFFFFF200030FF8000
00006020000060606060100000406000
ENDCHAR
STARTCHAR  4F26
ENCODING  20262
SWIDTH  1000 0
DWIDTH  16 0
BBX  16 16 0 -2
BITMAP
00000010100000000010100000000000
000020FF8000000030E0E02000000000
000080F010000060F0E0E0F060000000
0010F0A00000A0FFA01010C0FF800000
0080FF2020E0FF800000000080FFC010
00E0A00060E04000000000000040F040
60FF3000302030000000000000002030
0010FF600060FF200000000000001000
0010FF600060FF2000002060A0E0F000
0010FF600060FF40A0E0FFFFF0A06000
0010FF600060FF60E0A0603000000000
0010FF600060FF200000000000000000
0010FF600060FF200000000000000000
0010FF600060FF302020202020202000
0010FF600060FFFFFFFFFFFFFFFFFF20
00006020002060606060606060606010
ENDCHAR
STARTCHAR  4F27
ENCODING  20263
SWIDTH  1000 0
DWIDTH  16 0
BBX  16 16 0 -2
BITMAP
00000010100000000000100000000000
000000F0A00000000080F04000000000
000060FF30000010A0FFE0FF60000000
0000E0C0000020E0FF6010C0FF800000
0040FF600030E0FF60000000C0FFA000
00A0F00000F0F0400000000000A0FF60
20FF800000F04000000000000000A080
000080FF003080808080808080803030
000080FF0000FFFFFFFFFFFFFFFF6000
000080FF0000FF800000000020FF6000
000080FF0000FF800060808080FF6000
000080FF0000FF8000F0FFFFFFFF6000
000080FF0000FF800000000000000000
000080FF0000FF801010101010101000
000080FF0000FFFFFFFFFFFFFFFFE000
00002060000060606060606060604000
ENDCHAR
STARTCHAR  4F2A
ENCODING  20266
SWIDTH  1000 0
DWIDTH  16 0
BBX  15 15 0 -2
BITMAP
0000C0A000A0A00010E06000000000
0020FF600080FF1040FF4000000000
0080FF200020FF6080FF1000000000
00C0C00030606060E0E06060606060
20FF800080FFFFFFFFFFFFFFFFFFFF
60FF200010202060FF4020202080FF
0010FF6000000080F03040000080FF
0010FF60000000E0C040FF400080FF
0010FF60000010FF8000F0A00080FF
0010FF60000060FF3000A0E00080FF
0010FF600000A0F0000040FF3080FF
0010FF600000E0A0000000A04080FF
0010FF600020FF60000010101080FF
0010FF600060FF200010FFFFFFFFFF
000060200030600000006060606060
ENDCHAR
STARTCHAR  4F2B
ENCODING  20267
SWIDTH  1000 0
DWIDTH  16 0
BBX  15 15 0 -2
BITMAP
000080F00000000000FF8000000000
0000E0A00000000000804000000000
0040FF4000FFFFFFFFFFFFFFFFFFFF
00A0E00000FFA0808080808080C0FF
10F0800000FF8000000000000080FF
60FF200000FF8000000000000080FF
0010FF6000F06000000000000060F0
0010FF600000000000000000000000
0010FF600000000000000000000000
0010FF600000000000000000000000
0010FF600000000000000000000000
0010FF600000000000000000000000
0010FF601020202020202020202020
0010FF6080FFFFFFFFFFFFFFFFFFFF
000060203060606060606060606060
ENDCHAR
STARTCHAR  4F2F
ENCODING  20271
SWIDTH  1000 0
DWIDTH  16 0
BBX  15 15 0 -2
BITMAP
000080E0100000000060E010000000
0000F0C00030606060A0FF60606060
0040FF600080FFFFFFFFFFFFFFFFFF
00A0FF100080FF10101010101080FF
00F0C0000080FF00000000000080FF
40FF60000080FF00000000000080FF
0000FF800080FF00000000000080FF
0000FF800080FF30808080808080FF
0000FF800080FF80FFFFFFFFFF80FF
0000FF800080FF00000000000080FF
0000FF800080FF00000000000080FF
0000FF800080FF00000000000080FF
0000FF800080FF10101010101080FF
0000FF800080FFFFFFFFFFFFFFA0FF
000060200030606060606060606060
ENDCHAR
STARTCHAR  4F30
ENCODING  20272
SWIDTH  1000 0
DWIDTH  16 0
BBX  16 15 0 -2
BITMAP
000040F0400000000040FF4000000000
0000A0F0100000000040FF4000000000
0000F0A0008080808080FF8080808040
0040FF6000FFFFFFFFFFFFFFFFFFFFA0
00A0F010000000000040FF4000000000
00F0A000000000000040FF4000000000
000080FF000000000030E03000000000
000080FF000080808080808080808000
000080FF0000FFFFFFFFFFFFFFFFFF10
000080FF0000FF80000000000060FF10
000080FF0000FF80000000000060FF10
000080FF0000FF80000000000060FF10
000080FF0000FF80101010101060FF10
000080FF0000FFFFFFFFFFFFFFA0FF10
00002060000060606060606060606000
ENDCHAR
STARTCHAR  4F32
ENCODING  20274
SWIDTH  1000 0
DWIDTH  16 0
BBX  16 15 0 -2
BITMAP
0000E0A020C0C0C0C0C0C0C0C0C0C000
0030FF6020FFE0E0E0E0E0E0E0F0FF00
0080FF1020FF4000000000000080FF00
00E0C00020FF4000000000000080FF00
20FF600020FFA080808080806080FF00
60FF200020FFFFFFFFFFFFFFF0E0FF00
0010FF6020FF40004020000000000000
0010FF6020FF4010FF60000000003010
0010FF6020FF4010FF601060A0E0FF40
0010FF6020FF4010FF80FFFFE0A04010
0010FF6020FF4010FF80803000000000
0010FF6020FF4010FF60000000000000
0010FF6020FF4010FF60101010101000
0010FF6020FF4010FFFFFFFFFFFFFF40
00006020106020006060606060606020
ENDCHAR
STARTCHAR  4F34
ENCODING  20276
SWIDTH  1000 0
DWIDTH  16 0
BBX  16 16 0 -2
BITMAP
00000000000000000000000000000000
000060FF308060000080FF0000408000
0000A0E000A0F0000080FF0000C0C000
0000F0A00060FF400080FF0010FF8000
0040FF400010FF800080FF0040FF3000
00A0F0100000E0E00080FF0080F00000
00E0C000000000000080FF0000000000
20E060300060808080C0FF8080808000
000080FF00F0FFFFFFFFFFFFFFFFFF00
000080FF000000000080FF0000000000
000080FF002020202080FF2020202010
000080FF00FFFFFFFFFFFFFFFFFFFF80
000080FF0060606060A0FF6060606030
000080FF000000000080FF0000000000
000080FF000000000080FF0000000000
000080FF000000000040A00000000000
ENDCHAR
STARTCHAR  4F36
ENCODING  20278
SWIDTH  1000 0
DWIDTH  16 0
BBX  16 16 0 -2
BITMAP
00000000000000000010000000000000
000080FF2000000060FFE01000000000
0000E0C000000030F0E0FFC000000000
0030FF60000010E0E01080FF80000000
00A0F0100000C0FF400000C0FF400000
10F0A0000080FF8000E06020F0E01000
60FF300040FFC00000FF800040FFC000
0010FF608080100000FF80000060A030
0010FF60002030303030303030301000
0010FF6000A0FFFFFFFFFFFFFFFF4000
0010FF600030404040404040E0F00000
0010FF600000000000000010F0A00000
0010FF600000000000000040FF600000
0010FF6000000010101010A0F0100000
0010FF60000000F0FFFFFFFFA0000000
00003010000000606060606030000000
ENDCHAR
STARTCHAR  4F38
ENCODING  20280
SWIDTH  1000 0
DWIDTH  16 0
BBX  16 15 0 -2
BITMAP
0000E0A0000000000080FF0000000000
0030FF600060606060A0FF6060606000
0080FF1000FFFFFFFFFFFFFFFFFFFF10
00E0C00000FF80202080FF202080FF10
20FF600000FF80000080FF000060FF10
60FF200000FF80000080FF000060FF10
0010FF6000FF80F0FFFFFFFFFF60FF10
0010FF6000FF806080A0FF808060FF10
0010FF6000FF80000080FF000060FF10
0010FF6000FF80000080FF000060FF10
0010FF6000FF80303080FF303060FF10
0010FF6000FFFFFFFFFFFFFFFFA0FF10
0010FF600040404040A0FF4040404000
0010FF60000000000080FF0000000000
00006020000000000040800000000000
ENDCHAR
STARTCHAR  4F3A
ENCODING  20282
SWIDTH  1000 0
DWIDTH  16 0
BBX  15 15 0 -2
BITMAP
000080600040808080808080808080
0020FF6000C0FFFFFFFFFFFFFFFFFF
0060FF1000000000000000000080FF
00C0C000E0FFFFFFFFFFFFFF0080FF
10FF600060808080808080800080FF
60FF200000000000000000000080FF
0010FF6000FFFFFFFFFFFFFF0080FF
0010FF6000FFA0808080A0FF0080FF
0010FF6000FF8000000080FF0080FF
0010FF6000FF8000000080FF0080FF
0010FF6000FFA080806080FF0080FF
0010FF6000FFFFFFFFE0E0FF0080FF
0010FF6000000000000000000080FF
0010FF60000000000010FFFFFFFFFF
000060200000000000108080808080
ENDCHAR
STARTCHAR  4F3C
ENCODING  20284
SWIDTH  1000 0
DWIDTH  16 0
BBX  16 16 0 -2
BITMAP
00001020000000000000001030000000
0000E0A02080100000000080FF000000
0030FF6040FF3000FF800080FF000000
0080FF1040FF3000FF800080FF000000
00E0C00040FF3000FF800080FF000000
20FF600040FF3000FF800080FF000000
60FF200040FF3000FF800080FF000000
0010FF6040FF3000FF800080FF000000
0010FF6040FF3000FF800080FF100000
0010FF6040FF3000FF8000E0FF600000
0010FF6040FF3000FF8040FFFFC00000
0010FF6040FF3000FF60A0FFA0FF2000
0010FF6040FF30000010F0A020FF8000
0010FF6040FF80800060FF4000C0E000
0010FF6040FFFFFF10E0E0000040FF40
00006020000000000060300000006030
ENDCHAR
STARTCHAR  4F3D
ENCODING  20285
SWIDTH  1000 0
DWIDTH  16 0
BBX  15 15 0 -2
BITMAP
0010E06000A0A00000000000000000
0060FF4080E0E08080203080808080
00A0F020FFFFFFFFFF6060FFFFFFFF
00F0A00000F08020FF6060FF1080FF
30FF600000FF6020FF6060FF1080FF
80FF200020FF6020FF6060FF1080FF
0020FF6030FF4020FF6060FF1080FF
0020FF6040FF3020FF6060FF1080FF
0020FF6060FF1020FF6060FF1080FF
0020FF6080FF0020FF6060FF1080FF
0020FF6080E00020FF6060FF1080FF
0020FF60A0E00020FF6060FF1080FF
0020FF60C0C00030FF6060FF4080FF
0020FF60E0A020FFFF6060FFFFC0FF
001060208060106060202040404040
ENDCHAR
STARTCHAR  4F43
ENCODING  20291
SWIDTH  1000 0
DWIDTH  16 0
BBX  15 16 0 -2
BITMAP
000010200000000000000000000000
0000E0C00080808080808080808080
0030FF6000FFFFFFFFFFFFFFFFFFFF
0080FF2000FF6000008040000080FF
00E0E00000FF600000F080000080FF
20FF800000FF600000F080000080FF
60FF300000FF600000F080000080FF
0000FF8000FF606060F0C0604080FF
0000FF8000FF60FFFFFFFFFFA080FF
0000FF8000FF601010F0A0101080FF
0000FF8000FF600000F080000080FF
0000FF8000FF600000F080000080FF
0000FF8000FF600000F080000080FF
0000FF8000FF8030303030302080FF
0000FF8000FFFFFFFFFFFFFFA0E0FF
000060200040404040404040304040
ENDCHAR
STARTCHAR  4F46
ENCODING  20294
SWIDTH  1000 0
DWIDTH  16 0
BBX  16 15 0 -2
BITMAP
0000E0E00060E0E0E0E0E0E0E0E06000
0020FF800080FFA0A0A0A0A0A0FF8000
0060FF300080FF000000000000FF8000
00C0E0000080FF000000000000FF8000
10FFA0000080FF002020202020FF8000
60FF40000080FF00FFFFFFFFFFFF8000
2040FF800080FF006060606060FF8000
0000FF800080FF000000000000FF8000
0000FF800080FF000000000000FF8000
0000FF800080FF808080808080FF8000
0000FF800080FFFFFFFFFFFFFFFF8000
0000FF80000000000000000000000000
0000FF80001010101010101010101010
0000FF8000FFFFFFFFFFFFFFFFFFFF80
00006020006060606060606060606030
ENDCHAR
STARTCHAR  4F4D
ENCODING  20301
SWIDTH  1000 0
DWIDTH  16 0
BBX  16 15 0 -2
BITMAP
000060E0200000000060F00000000000
0000E0C00040404040A0FF4040404010
0030FF6020FFFFFFFFFFFFFFFFFFFF30
00A0F000003030303030303030303010
10F080000060FF100000000000E0A000
60FF30000040FF300000000000FF8000
0010FF600020FF400000000020FF6000
0010FF600010FF800000000040FF3000
0010FF600000E0A00000000060FF1000
0010FF600000C0C00000000080F00000
0010FF600000A0E000000000A0E00000
0010FF60000080F000000000C0A00000
0010FF60102020202020202020202010
0010FF6040FFFFFFFFFFFFFFFFFFFF60
00006020106060606060606060606020
ENDCHAR
STARTCHAR  4F4E
ENCODING  20302
SWIDTH  1000 0
DWIDTH  16 0
BBX  16 15 0 -2
BITMAP
0000A060008080808080808080804000
0030FF6000FFFFFFFFFFFFFFFFFFA000
0080FF1000FF80000000008080000000
00E0C00000FF8000000000A0E0000000
20FF800000FF800000000060FF100000
60FF300000FF800000000040FF300000
0000FF8000FFFFFFFFFFFFFFFFFFFF10
0000FF8000FFA08080808080F0C08010
0000FF8000FF800000000000C0A00000
0000FF8000FF800000000000A0E00000
0000FF8000FF800000C0C00060FF0000
0000FF8000FF800000A0E00040FF3000
0000FF8000FF80000060FF1020FF6000
0000FF8000FFFFFF6040FF3000F08000
00006020008080803010A03000806000
ENDCHAR
STARTCHAR  4F4F
ENCODING  20303
SWIDTH  1000 0
DWIDTH  16 0
BBX  16 15 0 -2
BITMAP
0000C0A0000000000060F00000000000
0020FF60001010101080FF1010101000
0080FF1000FFFFFFFFFFFFFFFFFFFF30
00E0C000006060606060606060606010
20FF6000000000000080FF0000000000
60FF2000000000000080FF0000000000
0010FF60000000000080FF0000000000
0010FF600060808080A0FF8080808000
0010FF6000E0FFFFFFFFFFFFFFFFFF00
0010FF60000000000080FF0000000000
0010FF60000000000080FF0000000000
0010FF60000000000080FF0000000000
0010FF60002020202030602020202000
0010FF6020FFFFFFFFFFFFFFFFFFFF40
00006020106060606060606060606010
ENDCHAR
STARTCHAR  4F50
ENCODING  20304
SWIDTH  1000 0
DWIDTH  16 0
BBX  15 16 0 -2
BITMAP
000000000000002010000000000000
0000A0C0000060FF60000000000000
0010F080000080FF40000000000000
0060FF20A0FFFFFFFFFFFFFFFFFFFF
00C0E0004080F0E080808080808080
10FF80000010FFA000000000000000
60FF20000040FF6000000000000000
0010FF600060FF4060606060606060
0010FF6000A0F020FFFFFFFFFFFFFF
0010FF6000C0C00020203060202020
0010FF6000F08000000040FF200000
0010FF6020FF6000000040FF200000
0010FF6060FF2000000040FF200000
0010FF6080E00010202060FF402020
0010FF60C0A000F0FFFFFFFFFFFFFF
000060204030006060606060606060
ENDCHAR
STARTCHAR  4F51
ENCODING  20305
SWIDTH  1000 0
DWIDTH  16 0
BBX  15 15 0 -2
BITMAP
0000E08000000080F0100000000000
0030FF40000000E0C0000000000000
0080F000C0FFFFFFFFFFFFFFFFFFFF
00E0C0006080C0FF80808080808080
20FF60000000C0E000000000000000
60FF20000020FF8000000000000000
0010FF600080FFA080808080808080
0010FF6000E0FFFFFFFFFFFFFFFFFF
0010FF6020FFC0FF400000000080FF
0010FF6080FF60FF400000000080FF
0010FF6080A030FF400000000080FF
0010FF60000030FF400000000080FF
0010FF60000030FF601010101080FF
0010FF60000030FFFFFFFFFFC0C0FF
000060200000106060606060606060
ENDCHAR
STARTCHAR  4F53
ENCODING  20307
SWIDTH  1000 0
DWIDTH  16 0
BBX  16 15 0 -2
BITMAP
0000E0A00000000000FF800000000000
0020FF600000000000FF800000000000
0080FF10C0FFFFFFFFFFFFFFFFFFFF00
00E0C0006080808080FFC08080808000
20FF60000000604000FF800040600000
60FF20000010FF6000FF800080E00000
0010FF600040FF4000FF800060FF0000
0010FF600080FF1000FF800030FF2000
0010FF6000A0E00000FF800000FF4000
0010FF6000E0A00000FF800000E08000
0010FF6010FF800000FF800000A0A000
0010FF6040FF608080FFC0808080E000
0010FF6060FF30FFFFFFFFFFFF60F000
0010FF60A0F0000000FF80000020FF20
00006020406000000080400000006010
ENDCHAR
STARTCHAR  4F55
ENCODING  20309
SWIDTH  1000 0
DWIDTH  16 0
BBX  16 16 0 -2
BITMAP
00001020000000000000000000000000
0000E0C0008080808080808080808020
0020FF6000FFFFFFFFFFFFFFFFFFFF40
0060FF20000000000000000000A04000
00C0E000003080808080800000FF8000
10FF80000060FFFFFFFFFF1000FF8000
60FF30000060FF100060FF1000FF8000
0000FF800060FF100060FF1000FF8000
0000FF800060FF100060FF1000FF8000
0000FF800060FF100060FF1000FF8000
0000FF800060FF100060FF1000FF8000
0000FF800060FFFFFFA0FF1000FF8000
0000FF80003080808060800000FF8000
0000FF80000000000010101010FF8000
0000FF800000000080FFFFFFFFFF8000
00006020000000003060606060603000
ENDCHAR
STARTCHAR  4F57
ENCODING  20311
SWIDTH  1000 0
DWIDTH  16 0
BBX  16 16 0 -2
BITMAP
00001010000000000030100000000000
0000E0A00000000000FF800000000000
0030FF6030FFFFFFFFFFFFFFFFFFFF30
0080FF1030FFA0808080808080A0FF30
00E0C00030FF4000000000000040FF30
20FF600030F04000000000000040F020
60FF2000000060300000000000000000
0010FF600000FF800000000000000000
0010FF600000FF804080808080808000
0010FF600000FF80A0FFFFFFFFFFFF00
0010FF600000FF800000000000000000
0010FF600000FF800000000000000000
0010FF600000FF800000000000000000
0010FF600000FF801010101010101000
0010FF600000FFFFFFFFFFFFFFFFFF00
00006020000060606060606060606000
ENDCHAR
STARTCHAR  4F58
ENCODING  20312
SWIDTH  1000 0
DWIDTH  16 0
BBX  16 16 0 -2
BITMAP
00000000000000200000000000000000
000000000020A0FFE060000000000000
0000001080F0F080C0FFE04000000000
000060F0F08010000040C0FFC0400000
30E0FFA02000000000000040E0FFC010
80C0308080808080808080806060E040
100000FFFFFFFFFFFFFFFFFFC0000010
00000000000000000000000000000000
00606060606060606060606060606000
10FFFFFFFFFFFFFFFFFFFFFFFFFFFF00
00202020202020FF8020202020202000
000010C0600000FF800010C0A0000000
0000A0F0100000FF80000060FF600000
0030FF80000000FF80000000E0F01000
00C0E01000E0FFFF8000000030FFA000
00402000006080803000000000304000
ENDCHAR
STARTCHAR  4F59
ENCODING  20313
SWIDTH  1000 0
DWIDTH  16 0
BBX  16 16 0 -2
BITMAP
00000000000000001000000000000000
00000000000040E0F080000000000000
0000000030C0FFE0C0FFE06000000000
000030A0FFF080100040E0FFC0300000
10A0FFF08010000000000060E0FFA010
60FFA08080808080808080808080F060
202010FFFFFFFFFFFFFFFFFFFF202020
0000000000000040A000000000000000
0000000000000080FF00000000000000
00808080808080A0FF80808080808000
10FFFFFFFFFFFFFFFFFFFFFFFFFFFF10
0000002020000080FF00001020000000
000040FFA0000080FF000060FF400000
0000E0E010000080FF000000C0E00000
0060FF600080FFFFFF00000040FF6000
00608000004080808000000000608000
ENDCHAR
STARTCHAR  4F5A
ENCODING  20314
SWIDTH  1000 0
DWIDTH  16 0
BBX  16 16 0 -2
BITMAP
00001020000000000010300000000000
0000A0E000A040000080FF0000000000
0010F08000FF80000080FF0000000000
0060FF3000FFA08080A0FF8080808000
00C0E00000FFFFFFFFFFFFFFFFFFFF00
10FF8000000000000080FF0000000000
60FF2000000000000080FF0000000000
0010FF60103030303080FF3030303010
0010FF6040FFFFFFFFFFFFFFFFFFFF40
0010FF601040404040E0FF8040404010
0010FF600000000080FFE0E010000000
0010FF6000000060FF8030F0A0000000
0010FF60000020F0A0000080FF400000
0010FF600010E0E010000000C0E01000
0010FF6000A0F0200000000020F0A000
00006020106030000000000000306000
ENDCHAR
STARTCHAR  4F5B
ENCODING  20315
SWIDTH  1000 0
DWIDTH  16 0
BBX  15 15 0 -2
BITMAP
0010FF8000000060FF0060FF000000
0060FF30408080A0FF80A0FF808060
00A0F000A0FFFFFFFFFFFFFFFFFFF0
00E0A00000000080FF1080FF0080F0
30FF600000000080FF1080FF0080F0
60FF200080FFFFFFFFFFFFFFE0C0F0
0000FF8080FF80A0FF80A0FF606060
0000FF8080FF0080FF1080FF000000
0000FF8080FF80A0FF8080FF808080
0000FF8080FFFFFFFFFFE0FFFFFFFF
0000FF80000010F0800080FF0080FF
0000FF80000040FF300080FF0080FF
0000FF800000A0E0000080FF0080FF
0000FF800000F0A0000080FF003060
000060200010602000003060000000
ENDCHAR
STARTCHAR  4F5C
ENCODING  20316
SWIDTH  1000 0
DWIDTH  16 0
BBX  16 16 0 -2
BITMAP
00001020100000002010000000000000
000080FF10000060FF20000000000000
0000E0C0000000C0E000000000000000
0020FF60000020FFFFFFFFFFFFFFFF80
0080FF10000060FF80FFA08080808030
00E0C0000000C0C010FF600000000000
30FF60000020FF6010FF600000000000
000080FF0080FF1010FF60FFFFFFFF10
000080FF00A0A00010FF608080808000
000080FF0000000010FF600000000000
000080FF0000000010FF600000000000
000080FF0000000010FF60FFFFFFFF10
000080FF0000000010FF608080808000
000080FF0000000010FF600000000000
000080FF0000000010FF600000000000
00002060000000000060200000000000
ENDCHAR
STARTCHAR  4F5D
ENCODING  20317
SWIDTH  1000 0
DWIDTH  16 0
BBX  15 15 0 -2
BITMAP
0000A0A00060E00000000000000000
0020FF800080FF8080808080808080
0060FF200080FFFFFFFFFFFFFFFFFF
00C0E00000000000000000000080FF
10F0800000306060606060300080FF
60FF30000080FFFFFFFFFF800080FF
2040FF800080FF101010FF800080FF
0000FF800080FF000000FF800080FF
0000FF800080FF000000FF800080FF
0000FF800080FF000000FF800080FF
0000FF800080FFFFFFE0FF800080FF
0000FF8000308080806080300080FF
0000FF8000000000000000000080FF
0000FF8000000000A0FFFFFFFFFFFF
000060200000000040808080808080
ENDCHAR
STARTCHAR  4F5E
ENCODING  20318
SWIDTH  1000 0
DWIDTH  16 0
BBX  16 15 0 -2
BITMAP
0000C080008080808080808080806000
0020FF6000FFFFFFFFFFFFFFFFFFC000
0080FF10000000000000000000000000
00C0C000101010101010101010101000
10FF8000E0FFFFFFFFFFFFFFFFFFFF00
60FF3000606060606060606060606000
2040E0600060FF200000000000000000
0010FF60C0FFFFFFFFFFFFFFFFFFE000
0010FF6060A0FF8080808080A0FF8000
0010FF600060FF200000000040FF4000
0010FF600060FFC060101060C0FF4000
0010FF600020A0F0FFF0F0FFE0801000
0010FF600040A0F0FFF0F0FFF0A04000
0010FF6040FFF0A040000040A0F0FF10
00008040206000000000000000106010
ENDCHAR
STARTCHAR  4F5F
ENCODING  20319
SWIDTH  1000 0
DWIDTH  16 0
BBX  16 15 0 -2
BITMAP
000060E03060E0000000000000000000
0000E0E00080FFFFFFFFFFFFFFFFFF00
0030FF60003080808080808080A0FF00
00A0F0100080FF10000000000080FF00
10F0A0000060FFF0A0300060E0FFE000
60FF300000002080E0FFF0FFC0400000
0010FF60000030A0FFF0C0FFF0801000
0010FF6040C0FFF080100030A0F0F010
0010FF60A0E0A0200000000000108010
0010FF602000FFFFFFE0C0A080601000
0010FF600000306080A0A0E0F0FF3000
0010FF60004040200000000000100000
0010FF6000A0FFFFFFE0C0A080603000
0010FF600010304060A0C0E0FFFFFF00
00006020000000000000000000204000
ENDCHAR
STARTCHAR  4F60
ENCODING  20320
SWIDTH  1000 0
DWIDTH  16 0
BBX  16 15 0 -2
BITMAP
000060A0008080808080808080808000
0000E0A000FFFFFFFFFFFFFFFFFFFF10
0040FF4000FF8000000000000060FF10
00A0E00000FF8000000000000060FF10
10F0800000FF80000060E0000060FF10
60FF200000F060000080FF000060F010
0010FF60000030400080FF0040200000
0010FF600000E0E00080FF00C0A00000
0010FF600010FFA00080FF0080F00000
0010FF600060FF400080FF0040FF3000
0010FF6000A0F0000080FF0000F08000
0010FF6000E0C0000080FF0000C0C000
0010FF6020FF60000080FF000080F000
0010FF6060FF2000C0FFFF000040FF40
00006020304000006060600000006020
ENDCHAR
STARTCHAR  4F63
ENCODING  20323
SWIDTH  1000 0
DWIDTH  16 0
BBX  16 16 0 -2
BITMAP
00001020000000000000000000000000
0000E0C0308080808080808080808000
0030FF6080FFFFFFFFFFFFFFFFFFFF00
0080FF1080FF000000E060000080FF00
00C0C00080FF000000FF80000080FF00
10FF600080FF204040FF80404080FF00
60FF200080FF80FFFFFFFFFFFF80FF00
2040FF6080FF204040FFA0404080FF00
0010FF6080FF000000FF80000080FF00
0010FF6080FF204040FFA0404080FF00
0010FF6080FF80FFFFFFFFFFFF80FF00
0010FF6080FF203030FF80303080FF00
0010FF6080FF000000FF80000080FF00
0010FF6080FF000000FF80000080FF00
0010FF6080FF000000FF8000F0FFFF00
00006020408000000000000060606000
ENDCHAR
STARTCHAR  4F64
ENCODING  20324
SWIDTH  1000 0
DWIDTH  16 0
BBX  15 16 0 -2
BITMAP
000010100000000000000000000000
0000E0806080808080808080808080
0030FF40E0FFFFFFFFFFFFFFFFFFFF
0080F0000040FF3000000000000000
00E0A0000040FF8080808080808010
20FF60000040FFFFFFFFFFFFFFFF20
60FF20000040FF301060200060FF20
0010FF600040FF3000FF800060FF20
0010FF600040FF3000E0A00060FF20
0010FF600040FF3000C0C00060FF20
0010FF600040FF3000A0E00060FF20
0010FF600040FF300080FF1060FF20
0010FF600040FF300040FF3060FF20
0010FF600040FF401010201060FF30
0010FF600040FFFFFFFFFFFF60FFFF
000060200020606060606060206060
ENDCHAR
STARTCHAR  4F65
ENCODING  20325
SWIDTH  1000 0
DWIDTH  16 0
BBX  16 16 0 -2
BITMAP
00000000000000201000000000000000
00000000000080F0F060000000000000
0000000040E0FFA0C0FFE04000000000
000010A0FFE040000040E0FFA0100000
0060F0F08000000000001080FFF06000
60FFC030101010101010101030C0FF60
404000FFFFFFFFFFFFFFFFFFF0004040
00000060606060606060606060000000
0030E020000060C00000000040E03000
0010FF80000040FF30000000A0E00000
0000C0C0000010FF80000010F0800000
000080FF100000E0A0000060FF300000
000030FF600000A0F00000C0E0000000
00202020202020202020202020202000
30FFFFFFFFFFFFFFFFFFFFFFFFFFFF30
10606060606060606060606060606010
ENDCHAR
STARTCHAR  4F67
ENCODING  20327
SWIDTH  1000 0
DWIDTH  16 0
BBX  16 15 0 -2
BITMAP
000080A000000000E060000000000000
0000E06000000000FF80000000000000
0040FF2000000000FFFFFFFFFFFFC000
00A0E00000000000FFA0808080804000
10F0800000000000FF80000000000000
60FF300080808080FFA0808080808000
0030FF40FFFFFFFFFFFFFFFFFFFFFF00
0030FF40000000000000000000000000
0030FF4000000000FF80100000000000
0030FF4000000000FF80F08020000000
0030FF4000000000FF8060E0F0A02000
0030FF4000000000FF80000060E0E000
0030FF4000000000FF80000000006000
0030FF4000000000FF80000000000000
0010601000000000F060000000000000
ENDCHAR
STARTCHAR  4F69
ENCODING  20329
SWIDTH  1000 0
DWIDTH  16 0
BBX  16 16 0 -2
BITMAP
00001020000000000000000000000000
0000E0C0308080808080808080803000
0030FF6080FFFFFFFFFFFFFFFFFF8000
0080FF2080FF00000000000000FF8000
00E0C00080FFFFFFFFFFFFFF20FF8000
20FF800080FF80808080808010FF8000
60FF200080FF000040FF300000FF8000
0010FF6080FF80FFFFFFFFFF60FF8000
0010FF6080FF80FFA0FFA0FF60FF8000
0010FF6080FF80FF40FF40FF60FF8000
0010FF6080FF80FF40FF40FF60FF8000
0010FF6080FF80FF40FF40FF60FF8000
0010FF6080FF80FF40FF40FF60FF8000
0010FF6080FF60FF40FF40FF60FF8000
0010FF6080FF000040FF300000FFFF40
00006020308000001060100000808020
ENDCHAR
STARTCHAR  4F6C
ENCODING  20332
SWIDTH  1000 0
DWIDTH  16 0
BBX  15 15 0 -2
BITMAP
000080C000000060F0100000000000
0000E08000303080FF403030000040
0040FF3010FFFFFFFFFFFFFF00A0E0
00A0E00000404080FF404040C0F060
10F0800000000060FF2020E0F04000
60FF2000606060A0FF80F0FF806060
0010FF60F0FFFFFFFFFFFFFFFFFFFF
0010FF60202030E0FF802020202020
0010FF600040E0FF60000000000000
0010FF6060FFFFFF10808080808080
0010FF60F0C080FF20FFFFFFFFFFFF
0010FF60600080FF00000000000000
0010FF60000080FF20202020202010
0010FF60000080FFFFFFFFFFFFFFC0
000060200000206060606060606040
ENDCHAR
STARTCHAR  4F6F
ENCODING  20335
SWIDTH  1000 0
DWIDTH  16 0
BBX  15 16 0 -2
BITMAP
000000200000202000000000302000
000060F01000A0C000000020FF8000
0000E0A0000060FF10000060FF3000
0040FF4000FFFFFFFFFFFFFFFFFFFF
00A0E0000080808080808080808080
10FF60000000000000602000000000
80FF10000000000000FF8000000000
0000FF800060808080FFC080808060
0000FF8000E0FFFFFFFFFFFFFFFFE0
0000FF800000000000FF8000000000
0000FF800000000000FF8000000000
0000FF80A0FFFFFFFFFFFFFFFFFFFF
0000FF804080808080FFC080808080
0000FF800000000000FF8000000000
0000FF800000000000FF8000000000
000060200000000000FF8000000000
ENDCHAR
STARTCHAR  4F70
ENCODING  20336
SWIDTH  1000 0
DWIDTH  16 0
BBX  16 15 0 -2
BITMAP
000060A0108080808080808080808040
0000E0E000FFFFFFFFFFFFFFFFFFFF80
0010FFA0000000000080FF1000000000
0060FF40001020202080FF3020202000
00A0FF100080FFFFFFFFFFFFFFFFFF00
00E0C0000080FF606060606060A0FF00
20FF80000080FF00000000000080FF00
000080FF0080FF00000000000080FF00
000080FF0080FF40808080808080FF00
000080FF0080FF80FFFFFFFFFF80FF00
000080FF0080FF00000000000080FF00
000080FF0080FF00000000000080FF00
000080FF0080FF30303030303080FF00
000080FF0080FFFFFFFFFFFFFFC0FF00
000060E0002040404040404040404000
ENDCHAR
STARTCHAR  4F73
ENCODING  20339
SWIDTH  1000 0
DWIDTH  16 0
BBX  16 15 0 -2
BITMAP
0000E0C00000000000FF800000000000
0030FF600060606060FFA06060603000
0080FF1000FFFFFFFFFFFFFFFFFF8000
00E0C0000010101010FF801010101000
20FF80000000000000A0400000000000
80FF2000208080808080808080808010
0000FF8040FFFFFFFFFFFFFFFFFFFF20
0000FF800000000000E0600000000000
0000FF800030303030FF803030301000
0000FF8000FFFFFFFFFFFFFFFFFF8000
0000FF800060606060FFA06060603000
0000FF800000000000FF800000000000
0000FF80103030303030303030303000
0000FF8040FFFFFFFFFFFFFFFFFFFF20
00006020104040404040404040404000
ENDCHAR
STARTCHAR  4F74
ENCODING  20340
SWIDTH  1000 0
DWIDTH  16 0
BBX  16 15 0 -2
BITMAP
000080A0208080808080808080808010
0010F0C040FFFFFFFFFFFFFFFFFFFF20
0060FF600080FF000000000020FF6000
00C0F0100080FF000000000020FF6000
10FFA0000080FFE0FFFFFFFF20FF6000
60FF30000080FF608080808020FF6000
0000FF800080FF000000000020FF6000
0000FF800080FF303030303020FF6000
0000FF800080FFE0FFFFFFFF20FF6000
0000FF800080FF404040404020FF6000
0000FF800080FF000000000020FF6000
0000FF8000C0FF808080808080FFA010
0000FF8000FFFFFFFFFFFFFFF0FFFF20
0000FF80000000000000000020FF6000
00006020000000000000000010602000
ENDCHAR
STARTCHAR  4F76
ENCODING  20342
SWIDTH  1000 0
DWIDTH  16 0
BBX  15 15 0 -2
BITMAP
0000C0A00000000000F06000000000
0020FF604080808080FFA080808080
0080FF20A0FFFFFFFFFFFFFFFFFFFF
00E0C0000000000000FF8000000000
20FF80000000000000FF8000000000
80FF20001060606060606060606060
0000FF8020FFFFFFFFFFFFFFFFFFFF
0000FF800020202020202020202020
0000FF800080808080808080808030
0000FF8000FFFFFFFFFFFFFFFFFF80
0000FF8000FF80000000000000FF80
0000FF8000FF80000000000000FF80
0000FF8000FF80101010101000FF80
0000FF8000FFFFFFFFFFFFFFA0FF80
000060200060606060606060606030
ENDCHAR
STARTCHAR  4F7B
ENCODING  20347
SWIDTH  1000 0
DWIDTH  16 0
BBX  16 15 0 -2
BITMAP
0000E0C000000080FF0080FF00000000
0020FF60C0E00080FF0080FF0060FF10
0080FF1080FF1080FF0080FF00C0E000
00C0C00040FF4080FF0080FF00F08000
10FF600010FF8080FF0080FF30FF4000
60FF200000E0C080FF0080FF80FF1000
2040FF600080FF80FF0080FF40600000
0010FF6000204080FF0080FFA0F00000
0010FF6000A0F080FF0080FF40FF4000
0010FF6000E0C080FF0080FF10F08000
0010FF6010FF8080FF0080FF00C0C000
0010FF6040FF4080FF0080FF0060FF10
0010FF6080FF1080FF0080FF10101000
0010FF60C0E00080FF0080FFFFFFFF40
00006020000000308000306060606020
ENDCHAR
STARTCHAR  4F7C
ENCODING  20348
SWIDTH  1000 0
DWIDTH  16 0
BBX  16 15 0 -2
BITMAP
000080F0100000000060F00000000000
0000F0A000FFFFFFFFFFFFFFFFFFFF10
0040FF40008080808080808080808000
00A0E000000010E0E0100080F0200000
10FF80000000A0FF30000010E0C00000
60FF30000040FF800000000040FF4000
0000FF8010E0E0000000000000C0E010
0000FF80102010000000000000102010
0000FF800000A0FF80000030F0C01000
0000FF8000000080FFA040F0C0100000
0000FF800000000060FFFFC000000000
0000FF8000000010C0FFF0E020000000
0000FF80000020E0F06020E0E0200000
0000FF800030E0F030000020E0E03000
0000602010A0A0200000000010A08000
ENDCHAR
STARTCHAR  4F7E
ENCODING  20350
SWIDTH  1000 0
DWIDTH  16 0
BBX  16 15 0 -2
BITMAP
0000C0A0000010E0600010E080000000
0020FF800000A0F0100000A0F0100000
0060FF200020FF8000000020FF800000
00C0E00000A0F01000000000A0F02000
10FF800030FFA0202020202030FFA000
60FF2000C0FFFFFFFFFFFFFFFFFFFF20
2040FF6040A0FF6060606060A0FF4020
0010FF600080FF208080808080FF0000
0010FF600080FF60FFFFFFFF80FF0000
0010FF600080FF000000000080FF0000
0010FF600080FF60FFFFFFFF80FF0000
0010FF600080FF208080808080FF0000
0010FF600080FF000000000080FF0000
0010FF600080FF000020FFFFFFFF0000
00006020004080000010808080800000
ENDCHAR
STARTCHAR  4F7F
ENCODING  20351
SWIDTH  1000 0
DWIDTH  16 0
BBX  15 16 0 -2
BITMAP
000010200000000000301000000000
000080E00000000000FF8000000000
0000E080A0FFFFFFFFFFFFFFFFFFE0
0040FF204080808080FFC080808060
00A0C0000020202020FF8020202020
10F0600020FFFFFFFFFFFFFFFFFFFF
60FF100020FF806060FFA06060A0FF
0010FF6020FF400000FF80000080FF
0010FF6020FFA06060FFA0606080FF
0010FF6020FFFFFFFFFFFFFFE0E0FF
0010FF6010601010E0A00000000000
0010FF6020FFF0E0F0100000000000
0010FF600010A0FFFFF0A040000000
0010FF600010F0A02080E0FFE08030
0010FF6000C0E0100000003080E0FF
000060201060300000000000000030
ENDCHAR
STARTCHAR  4F83
ENCODING  20355
SWIDTH  1000 0
DWIDTH  16 0
BBX  16 16 0 -2
BITMAP
00002010000000000000000000000000
0000F0A0008080808080808080803000
0030FF4000FFFFFFFFFFFFFFFFFF8000
0080F01000FF80000000000000FF8000
00E0C00000FF80000000000000FF8000
10FF800000FF80000000000000FF8000
60FF300000FFC0808080808040FF8000
0030FF4000FFFFFFFFFFFFFFE0FF8000
0030FF400040E02030E0300060E00000
0030FF400080FF0040FF400080FF0000
0030FF4000A0E00040FF400080FF0000
0030FF4000C0C00040FF400080FF0000
0030FF4000F0800040FF400080FF0000
0030FF4010FF600040FF400080FF1010
0030FF4040FF400040FF400080FFFFA0
00106010102000000000000030606040
ENDCHAR
STARTCHAR  4F84
ENCODING  20356
SWIDTH  1000 0
DWIDTH  16 0
BBX  16 15 0 -2
BITMAP
000040A0106080808080808080808000
0000C0C000E0FFFFFFFFFFFFFFFFFF00
0030FF60000020A04000000010000000
00A0F000000080FF30000000A0E00000
10F080000000E0C00000000040FF2000
60FF20000040FFC08080808080FF8000
0010FF6000A0FFFFFFFFFFFFFFFFE000
0010FF60000000000060E00000000000
0010FF600060606060A0FF6060604000
0010FF6000F0FFFFFFFFFFFFFFFFE000
0010FF60001010101080FF1010101000
0010FF60000000000080FF0000000000
0010FF60001010101010101010101000
0010FF6010FFFFFFFFFFFFFFFFFFFF40
00006020006060606060606060606010
ENDCHAR
STARTCHAR  4F88
ENCODING  20360
SWIDTH  1000 0
DWIDTH  16 0
BBX  16 15 0 -2
BITMAP
0000A0F01000C0E0E0E0E0E0E0E0C000
0000F0C00080FFA0A0A0A0A0A0FFC000
0040FF6010F0A0102020200040FF4000
0080FF1030802080FFFFFF00C0E00000
00E0C0000000002040404030FF600000
30FF800030808080808080C0E0000000
80FF200060F0F0F0F0F0F0F060000000
0000FF80000010303030303030303000
0000FF800000E0FFFFFFFFFFFFFFFF00
0000FF800080FF604040404040E0E000
0000FF8020F0A0206060601040FF4000
0000FF8010201060FFFFFF30C0E00000
0000FF800010101010101040FF600000
0000FF8040FFFFFFFFFFFFFFE0000000
0000A040206060606060606040000000
ENDCHAR
STARTCHAR  4F89
ENCODING  20361
SWIDTH  1000 0
DWIDTH  16 0
BBX  16 15 0 -2
BITMAP
0000C0A00000000000F0600000000000
0020FF6030FFFFFFFFFFFFFFFFFFFF20
0080FF1010808080E0FFFFA080808010
00E0C000000040E0FFA0E0FFA0100000
20FF600020A0FFC030001080F0F06000
60FF2000A0E080808080808080A0FF20
0010FF60300080FFFFFFFFFFFF003010
0010FF60001010101010101010100000
0010FF6000FFFFFFFFFFFFFFFFFFFF00
0010FF600060A0FF6060606060606000
0010FF60000080FF8080808080800000
0010FF60000080FFFFFFFFFFFFFF0000
0010FF60000000001010101080FF0000
0010FF6000000040FFFFFFFFFFFF0000
00006020000000106060606060600000
ENDCHAR
STARTCHAR  4F8B
ENCODING  20363
SWIDTH  1000 0
DWIDTH  16 0
BBX  15 16 0 -2
BITMAP
000000000000000000000000000010
0000E0A0A0E0E0E0E0E000000080FF
0030FF4080E0F0A0A0A020A03080FF
0080F01000C0A000000030FF4080FF
00E0C00000F0A040403030FF4080FF
20FF600010FFFFFFFFC030FF4080FF
60FF200030FF8030C0A030FF4080FF
0010FF6060FF3000C0A030FF4080FF
0010FF6080FF1000E08030FF4080FF
0010FF60A0F03080F08030FF4080FF
0010FF60C0E060FFFF6030FF4080FF
0010FF60E0A00010FF4030FF4080FF
0010FF6000000020FF4000000080FF
0010FF6000101040FF2000001080FF
0010FF6030FFFFFFFF100030FFFFFF
000060201060606060000010606060
ENDCHAR
STARTCHAR  4F8D
ENCODING  20365
SWIDTH  1000 0
DWIDTH  16 0
BBX  16 16 0 -2
BITMAP
00001010000000000040200000000000
0000E0800000000000FF800000000000
0030FF400080808080FFC08080808000
0080F00010FFFFFFFFFFFFFFFFFFFF00
00E0A0000000000000FF800000000000
20FF60008080808080FFC08080808000
60FF2000C0E0E0E0E0E0E0E0E0E0E000
0010FF60000000000000000030800000
0010FF60000000000000000080FF0000
0010FF6040FFFFFFFFFFFFFFFFFFFF10
0010FF602080808080808080A0FF8010
0010FF600040F0100000000080FF0000
0010FF600010FF600000000080FF0000
0010FF600000E0800000000080FF0000
0010FF600000A0C00040FFFFFFFF0000
00006020000000000020808080800000
ENDCHAR
STARTCHAR  4F8F
ENCODING  20367
SWIDTH  1000 0
DWIDTH  16 0
BBX  16 15 0 -2
BITMAP
0000E08000E0600000FF800000000000
0020FF6000FF800000FF800000000000
0080FF1000FFFFFFFFFFFFFFFFFFE000
00E0C0000080808080FFA08080806000
20FF60000000000000FF800000000000
60FF20000000000000FF800000000000
0010FF604080808080FFA08080808000
0010FF60C0FFFFFFFFFFFFFFFFFFFF00
0010FF600000404000FF802060100000
0010FF600010FF8000FF8020FF600000
0010FF600060FF2000FF8000C0C00000
0010FF6000C0E00000FF800060FF2000
0010FF6020FF800000FF800010FF6000
0010FF6080FF200000FF800000C0C000
00006020404000000080400000306000
ENDCHAR
STARTCHAR  4F91
ENCODING  20369
SWIDTH  1000 0
DWIDTH  16 0
BBX  15 16 0 -2
BITMAP
000000000000001010000000000000
0000C080000010FF80000000000000
0020FF604060A0FF80606060606060
0080F010C0FFFFFFFFFFFFFFFFFFFF
00E0C0001040FF6010101010101010
20FF60000080FF8080808080808080
60FF200000F0FFFFFFFFFFFFFFFFFF
0010FF6060FFFF60000000000080FF
0010FF60C0F0FF60A0A0A0A0A080FF
0010FF80FF80FF60E0E0E0E0E080FF
0010FF600010FF60000000000080FF
0010FF600010FF80FFFFFFFFFF80FF
0010FF600010FF60808080808080FF
0010FF600010FF60000000000080FF
0010FF600010FF60000000F0FFFFFF
000060200010803000000060808080
ENDCHAR
STARTCHAR  4F94
ENCODING  20372
SWIDTH  1000 0
DWIDTH  16 0
BBX  16 15 0 -2
BITMAP
0000A0F0100000A0E000000000000000
0010F0A0000030FF60000010E0A00000
0060FF400000A0E00000000080FF2000
00C0E0000030FFFFFFFFFFFFFFFFA000
10FF8000004080808080808080806000
60FF2000000040800060FF1000000000
0010FF600010F0A00060FF1000000000
0010FF600080FF8080A0FF8080808000
0010FF6010F0FFFFFFFFFFFFFFFFFF10
0010FF60000000000060FF1000000000
0010FF60001010101060FF2010101010
0010FF6000FFFFFFFFFFFFFFFFFFFF80
0010FF600060606060A0FF6060606030
0010FF60000000000060FF1000000000
00006020000000000020601000000000
ENDCHAR
STARTCHAR  4F97
ENCODING  20375
SWIDTH  1000 0
DWIDTH  16 0
BBX  15 15 0 -2
BITMAP
000080802080808080808080808080
0010FF8040FFFFFFFFFFFFFFFFFFFF
0060FF3040FF4000000000000080FF
00C0E00040FF40FFFFFFFFFF4080FF
20FF800040FF4080808080802080FF
60FF300040FF4000000000000080FF
0000FF8040FF40E0FFFFFFFF0080FF
0000FF8040FF40E0E08080FF0080FF
0000FF8040FF40E0E00020FF0080FF
0000FF8040FF40E0E00020FF0080FF
0000FF8040FF40E0FFFF80FF0080FF
0000FF8040FF4060808060800080FF
0000FF8040FF4000000000000080FF
0000FF8040FF4000000000E0FFFFFF
000060202080200000000060808080
ENDCHAR
STARTCHAR  4F9B
ENCODING  20379
SWIDTH  1000 0
DWIDTH  16 0
BBX  16 15 0 -2
BITMAP
000010FF600000FF80000000FF800000
000080F0100000FF80000000FF800000
0000E0A0006080FFC0808080FFC08000
0040FF4000E0FFFFFFFFFFFFFFFFFF00
00A0F000000000FF80000000FF800000
10F0A000000000FF80000000FF800000
000080FF000000FF80000000FF800000
000080FF001010201010101020101000
000080FF00FFFFFFFFFFFFFFFFFFFF40
000080FF006060606060606060606020
000080FF000000C0A0000030E0400000
000080FF000080FF30000000C0C00000
000080FF0020F0A00000000030FF3000
000080FF00A0F0200000000000A0A000
00002060003020000000000000103000
ENDCHAR
STARTCHAR  4F9D
ENCODING  20381
SWIDTH  1000 0
DWIDTH  16 0
BBX  15 15 0 -2
BITMAP
000060C00000000000E06000000000
0000E0802040404040FFA040404040
0040FF30A0FFFFFFFFFFFFFFFFFFFF
00A0E000204040FFA0404040404040
10F08000000040FF400060A0000000
60FF2000000080F0306060FF300000
0010FF600000E0A060FF10FF8030A0
0010FF600020FF6060FF00C0FFFFE0
0010FF600060FF1060FF0060FF8000
0010FF6000C0C00060FF0020FF8000
0010FF6010F0600060FF0000C0C000
0010FF6040FF200060FF000080FF10
0010FF60A0E0000060FF000020FF60
0010FF60E080000060FFFF8000E0A0
000060306020000030808040003040
ENDCHAR
STARTCHAR  4FA0
ENCODING  20384
SWIDTH  1000 0
DWIDTH  16 0
BBX  16 16 0 -2
BITMAP
00001020000000000040200000000000
0000E0A00000000000FF800000000000
0030FF6080FFFFFFFFFFFFFFFFFFFF00
0080FF103080808080FFA08080808000
00E0C00000E0800000FF800000E08000
20FF600000C0A00000FF800020FF6000
60FF200000A0E00000FF800040FF3000
0010FF600060FF0000FF800080FF0000
0010FF603040404040FFA04040404010
0010FF60A0FFFFFFFFFFFFFFFFFFFF30
0010FF6020303030E0FFFF6030303000
0010FF6000000080FF60E0E020000000
0010FF60000060FF800020F0E0100000
0010FF600030F0A000000030F0C00000
0010FF6020E0E0100000000060FFA000
00006020306020000000000000406010
ENDCHAR
STARTCHAR  4FA3
ENCODING  20387
SWIDTH  1000 0
DWIDTH  16 0
BBX  15 15 0 -2
BITMAP
000060A01080808080808080808040
0000E0C000FFFFFFFFFFFFFFFFFF80
0030FF4000FF80000000000000FF80
0080E00000FF80000000000000FF80
00F0800000FF80202020202010FF80
40FF200000FFFFFFFFFFFFFFA0FF80
2040FF600060606060606060606030
0010FF600000000000000000000000
0010FF6030FFFFFFFFFFFFFFFFFFFF
0010FF6030FFA0808080808080C0FF
0010FF6030FF4000000000000080FF
0010FF6030FF4000000000000080FF
0010FF6030FF6030303030302080FF
0010FF6030FFFFFFFFFFFFFFE0E0FF
000060201060606060606060406060
ENDCHAR
STARTCHAR  4FA5
ENCODING  20389
SWIDTH  1000 0
DWIDTH  16 0
BBX  15 16 0 -2
BITMAP
000000200000103010000000000000
000060F0000010E0E01010406080A0
0000E0A0206080C0FFF0FFFFFFF0A0
0030FF40A0FFFFE0E0FFA040201040
00A0E0003030000010E0E060C0F0E0
10F0800000002060A0F0FFFFE0A040
60FF300060E0FFFFE0A0C0FF404030
0010FF6080A06020000010E0FFFFE0
0010FF600010101010101030404040
0010FF60A0FFFFFFFFFFFFFFFFFFFF
0010FF604060606060606060606060
0010FF600000A0E0000000FF600000
0010FF600020FF80000000FF800000
0010FF600080FF20000000FF801010
0010FF6010F0A000000000FFFFFFFF
000060201060200000000060606060
ENDCHAR
STARTCHAR  4FA6
ENCODING  20390
SWIDTH  1000 0
DWIDTH  16 0
BBX  16 16 0 -2
BITMAP
00000000000000000010000000000000
000060E02000000000FF800000000000
0000C0C00000000000FFC08080808020
0030FF600000000000FFFFFFFFFFFF40
00A0F0000020202020FF802020202000
10F0800000FFFFFFFFFFFFFFFFFFFF00
60F0300000FFA0606060606060A0FF00
0010FF6000FF800000FF80000080FF00
0010FF6000FF800000FF80000080FF00
0010FF6000FF800000FF80000080FF00
0010FF6000FF800000FF80000080FF00
0010FF6000E0600040FFC0100060E000
0010FF60000020C0FFC0F0F080100000
0010FF600080FFE040001080F0F08000
0010FF6020F06000000000001080F010
00004020101000000000000000001000
ENDCHAR
STARTCHAR  4FA7
ENCODING  20391
SWIDTH  1000 0
DWIDTH  16 0
BBX  15 16 0 -2
BITMAP
000020100000000000000000001030
0020FF8080808080808010300080FF
0060FF30FFFFFFFFFFFF40FF3080FF
00A0FF00FF80000060FF40FF3080FF
00E0C000FF8080FF60FF40FF3080FF
10FF8000FF8080FF60FF40FF3080FF
40FF6000FF8080FF60FF40FF3080FF
0030FF40FF8080FF60FF40FF3080FF
0030FF40FF8080FF60FF40FF3080FF
0030FF40FF8080FF60FF40FF3080FF
0030FF40FF8080FF60FF40FF3080FF
0030FF40C06080FF40C040FF3080FF
0030FF400020F0FF800030FF3080FF
0030FF4000C0E0A0F02000000080FF
0030FF40A0FF4010E0C000FFFFFFFF
001060202020000010300040404040
ENDCHAR
STARTCHAR  4FA8
ENCODING  20392
SWIDTH  1000 0
DWIDTH  16 0
BBX  15 16 0 -2
BITMAP
000010100000000000000000000000
0000E0800080808080808080808060
0030FF4000FFFFFFFFFFFFFFFFFFC0
0080F0000000000000FF8000000000
00E0A0000000000000FF8000000000
20FF60004080808080FFA080808060
60FF2000C0FFFFFFFFFFFFFFFFFFE0
0010FF600030C0F0600020E0F06000
0010FF6080FFE03000000000A0FFC0
0010FF60E08040FF20000080FF60F0
0010FF60200080F000000080FF0020
0010FF600000A0E000000080FF0000
0010FF600000C0A000000080FF0000
0010FF600000F08000000080FF0000
0010FF600020FF4000000080FF0000
000060200010301000000010300000
ENDCHAR
STARTCHAR  4FA9
ENCODING  20393
SWIDTH  1000 0
DWIDTH  16 0
BBX  16 16 0 -2
BITMAP
00000020100000000000100000000000
000030FF6000000020E0E03000000000
0000A0F000000060F0E0E0FF80000000
0010FF800010A0FFA0100080FFC02000
0080FF2020E0F0400000000040E0F030
00E0A00040C02000000000000010A040
60FF30001000FFFFFFFFFFFFFFFF1010
0010FF60000080808080808080801000
0010FF60000000000000000000000000
0010FF6010FFFFFFFFFFFFFFFFFFFF20
0010FF60008080808080808080808010
0010FF60000030E04000000020100000
0010FF600000A0F010000000E0C00000
0010FF600010F0A02020202080FF3000
0010FF600080FFFFFFFFFFFFFFFFA000
00006020004060606060606060604000
ENDCHAR
STARTCHAR  4FAA
ENCODING  20394
SWIDTH  1000 0
DWIDTH  16 0
BBX  16 16 0 -2
BITMAP
00000010000000000010200000000000
0000A0F0000000000080FF0000000000
0010F0A020FFFFFFFFFFFFFFFFFFFF30
0060FF40108080808080808080808010
00A0F0000040E0600000000060E04000
10F0A0000020C0FFE08060E0FFC02000
40FF400000000030E0FFFFF040000000
0000FF80000040E0FFE0A0FFE0400000
0000FF8010C0FFF060000040E0FFC010
0000FF8040F08010000000000080F040
0000FF80102060FF20000000FF601020
0000FF80000080FF10000000FF600000
0000FF800000A0F000000000FF600000
0000FF800000C0E000000000FF600000
0000FF800000E0C000000000FF600000
000060200000E0A000000000F0600000
ENDCHAR
STARTCHAR  4FAC
ENCODING  20396
SWIDTH  1000 0
DWIDTH  16 0
BBX  16 15 0 -2
BITMAP
0000A0A00000000040C0200000000000
0020FF8030808080C0FF808080808000
0060FF3080FFFFFFFFFFFFFFFFFFFF10
00C0E00080FF0010FF6000000060FF10
20FF800080FF0060FF1000000060FF10
60F0401040A000A0E00030E04040A000
0010FF60000000E0C0FF40E0A010A030
0010FF60000030FF60FF4080FFF0FF30
0010FF60000080F030FF4030FFE03000
0010FF600000C0C030FF4000E0E00000
0010FF600000F08030FF400080FF2000
0010FF600040FF3030FF400020FF8000
0010FF600080E00030FF400000C0E000
0010FF6000E0A00030FFFFE00060FF30
00003010006030001060606000106030
ENDCHAR
STARTCHAR  4FAE
ENCODING  20398
SWIDTH  1000 0
DWIDTH  16 0
BBX  16 16 0 -2
BITMAP
00000000001000000000000000000000
0000C08000FF80101010101010101000
0020FF6000FFFFFFFFFFFFFFFFFFFF10
0080F010006060606060606060606000
00C0C000008080808080808080803000
20FF600000FFFFFFFFFFFFFFFFFF8000
60FF200000FF80002030300000FF8000
0010FF6000FF8000A0FFFF0000FF8000
0010FF6000FF80002040400000FF8000
0010FF60FFFFFFFFFFFFFFFFFFFFFF30
0010FF6060FFA0606060606060FFA010
0010FF6000FF80004080800000FF8000
0010FF6000FF8000A0FFFF0000FF8000
0010FF6000FF80101010101000FF8000
0010FF6000FFFFFFFFFFFFFFC0FF8000
00006020006060606060606040201000
ENDCHAR
STARTCHAR  4FAF
ENCODING  20399
SWIDTH  1000 0
DWIDTH  16 0
BBX  16 16 0 -2
BITMAP
00002020000000000000000000000000
0000F0C0003080808080808080800000
0040FF600060FFFFFFFFFFFFFFFF0000
0080FF20000000000000000080FF0000
00E0E00080FFFFFFFFFFFFFFFFFFFF40
20FF8000308080808080808080808020
80FF300030E030000000000000000000
0000FF8040FFFFFFFFFFFFFFFFFFFF00
0000FF802080808080A0808080808000
0000FF800000000000FF800000000000
0000FF8080FFFFFFFFFFFFFFFFFFFF60
0000FF8030808080F0FFFFC080808020
0000FF80000060E0F080C0FFC0300000
0000FF8010C0FFA010000040E0FFA000
0000FF8040E04000000000000060F020
00006020100000000000000000001000
ENDCHAR
STARTCHAR  4FB5
ENCODING  20405
SWIDTH  1000 0
DWIDTH  16 0
BBX  16 15 0 -2
BITMAP
0000E0C000E0E0E0E0E0E0E0E0E06000
0030FF60008080808080808080FF8000
0080FF2000FFFFFFFFFFFFFF60FF8000
00E0C000006060606060606020FF8000
20FF800000FFFFFFFFFFFFFFF0FF8000
60FF2000003030303030303030301000
0010FF6080FFFFFFFFFFFFFFFFFFFF30
0010FF6080FF6060606060606080FF30
0010FF60308010101010101010308010
0010FF6010FFFFFFFFFFFFFFFFFF6000
0010FF6010A060404040404080FF6000
0010FF6010F0FFF0A080A0E0FFE03000
0010FF600040A0FFFFFFFFFFE0804000
0010FF60A0FFE0A040103060A0F0FF00
00006020402000000000000000003000
ENDCHAR
STARTCHAR  4FBF
ENCODING  20415
SWIDTH  1000 0
DWIDTH  16 0
BBX  16 15 0 -2
BITMAP
00008080608080808080808080808000
0020FF60E0FFFFFFFFFFFFFFFFFFFF10
0060FF201040404040FFA04040404000
00C0E00040FFFFFFFFFFFFFFFFFFFF00
20FF800040FF604040FFA04040A0FF00
80FF200040FF308080FFC0808080FF00
A0C0301040FF40FFFFFFFFFFFF80FF00
0030FF4040FF402020FF80202080FF00
0030FF4040FFFFFFFFFFFFFFFFC0FF00
0030FF4020606060E0F0606060606000
0030FF4040F0A060FF80000000000000
0030FF4020A0F0FFFFA0400000000000
0030FF40000060FFC0FFFFE080300000
0030FF400020F0A0001060C0FFFFE000
0030FF4000C0F020000000002060E000
ENDCHAR
STARTCHAR  4FC3
ENCODING  20419
SWIDTH  1000 0
DWIDTH  16 0
BBX  16 15 0 -2
BITMAP
000030A0403080808080808080803000
0000A0FF1080FFFFFFFFFFFFFFFF8000
0000F0C00080FF000000000000FF8000
0040FF600080FF000000000000FF8000
00A0F0100080FF000000000000FF8000
00F0A0000080FF808080808040FF8000
40F060000080FFFFFFFFFFFFE0FF8000
0000FF80000010200020600000000000
0000FF800000E0A00060FF1000000000
0000FF800010FF600060FFFFFFFFE000
0000FF800040FF400060FF8080806000
0000FF800080FFE03060FF1000000000
0000FF8000E0E0E0FFC0FF1010101000
0000FF8010FF8010A0FFFFFFFFFFFF20
0000C060208030000040606060606010
ENDCHAR
STARTCHAR  4FC4
ENCODING  20420
SWIDTH  1000 0
DWIDTH  16 0
BBX  15 16 0 -2
BITMAP
000000000000000000000000000000
0000E0A000E0E0E0E0C000F08060E0
0030FF6000A0C0FFC08000E08080FF
0080FF10000040FF300000C0A080FF
00E0C000000040FF300000A0E00000
20FF8000E0FFFFFFFFFFFFFFFFFFFF
80FF30006080A0FF808080A0FF8080
0000FF80000040FF30000030FF3000
0000FF80000040FF30301010FF6000
0000FF80001080FFF0FF4000E08000
0000FF80C0FFFFFFC0601000E0E0E0
0000FF80A08080FF300080E0FFFFA0
0000FF80000040FF3000C0A0C0F000
0000FF80000040FF3000000060FF10
0000FF8000FFFFFF3000000040FF30
00006020008080801000000010A030
ENDCHAR
STARTCHAR  4FC5
ENCODING  20421
SWIDTH  1000 0
DWIDTH  16 0
BBX  15 16 0 -2
BITMAP
000000000000000000201000000000
0000E0A00000000000FF800060F000
0030FF400000000000FF800080FF00
0080F010C0FFFFFFFFFFFFFFFFFFFF
00E0C0006080808080FFA080808080
20FF600080FF300000FF800000A0C0
60FF200000E0C00000FF800030FF40
0010FF600060FF4000FF8000C0E000
0010FF600000E0C000FF8040FF6000
0010FF600000306010FF8030601000
0010FF600000C0E000FF8060FF6000
0010FF600030FF8000FF8000F0A000
0010FF6000A0F01000FF800080F010
0010FF6010F0A00000FF800010F060
0010FF6060FF3040FFFF800000A0C0
000060201010002080803000000010
ENDCHAR
STARTCHAR  4FCA
ENCODING  20426
SWIDTH  1000 0
DWIDTH  16 0
BBX  16 15 0 -2
BITMAP
000080A0000040E06000004030000000
0000F0800010E0C0000000A0FF400000
0040FF3000A0FF8080808080FFF02000
00A0E00040FFFFFFFFFFFFFFFFFFE000
10F08000000030608000806030000000
60FF3020A0E0FFF0800080F0FFF0C040
0030FFA0FFC060100000000040A0F0A0
0030FF6020E0A0808080808080804030
0030FF4000FFFFFFFFFFFFFFFFFF8000
0030FF40008020000000000010FF8000
0030FF4000F0FFC0601040A0F0F06000
0030FF40000060C0FFFFFFFF80100000
0030FF400040C0FFF080A0F0FFC06020
0030FF4000FFC0600000001060A0F080
00106010003000000000000000000020
ENDCHAR
STARTCHAR  4FCE
ENCODING  20430
SWIDTH  1000 0
DWIDTH  16 0
BBX  16 15 0 -2
BITMAP
000000C0600000308080808080803000
000000FF80000080FFFFFFFFFFFF8000
000010FF80000080FF00000000FF8000
000080FFF0100080FF00000000FF8000
0010F0A0F0800080FF80808020FF8000
0080F010A0F01080FFFFFFFF60FF8000
10F0A00020FFA080FF00000000FF8000
104010C060303080FF00000000FF8000
000000FF80000080FF40404010FF8000
000010FF80000080FFFFFFFF60FF8000
000080FFF0100080FF30303010FF8000
0010F0C0FF800080FF00000000FF8000
0060FF20A0F01080FF20202010FF8010
00E0A00030FF80E0FFFFFFFFA0FFFF60
10602000004040406060606040606020
ENDCHAR
STARTCHAR  4FCF
ENCODING  20431
SWIDTH  1000 0
DWIDTH  16 0
BBX  16 15 0 -2
BITMAP
0000E0A000A0800000A0E0000080C000
0030FF6000A0FF2000A0E00000E0A000
0080FF100040FF8000A0E00030FF4000
00E0C0000000101000A0E00000100000
20FF600000FFFFFFFFFFFFFFFFFFFF00
60FF200000FFC0808080808080C0FF00
0010FF6000FF8000000000000080FF00
0010FF6000FF80A0FFFFFFFFFF80FF00
0010FF6000FF8040808080808080FF00
0010FF6000FF8010101010101080FF00
0010FF6000FF80A0FFFFFFFFFF80FF00
0010FF6000FF8040606060606080FF00
0010FF6000FF8000000000000080FF00
0010FF6000FF8000000020FFFFFFFF00
00006020008030000000108080808000
ENDCHAR
STARTCHAR  4FD0
ENCODING  20432
SWIDTH  1000 0
DWIDTH  16 0
BBX  15 15 0 -2
BITMAP
0010A04060808080808000000060F0
0040FF40F0FFFFFFFFFF00A04080FF
0080F000000060FF000000FF8080FF
00E0A000000060FF000000FF8080FF
20FF6000404080FF404010FF8080FF
60FF2000FFFFFFFFFFFF40FF8080FF
2040FF60404080FF404010FF8080FF
0010FF6060FF60FF30FF30FF8080FF
0010FF6060FF60FF30FF30FF8080FF
0010FF6060FF60FF30FF30FF8080FF
0010FF6060FF60FF30FF30FF8080FF
0010FF6060FF60FF30FF30000080FF
0010FF6060FF60FF30FF30001080FF
0010FF6060FF60FF30FF3030FFFFFF
000060202040206010401010606060
ENDCHAR
STARTCHAR  4FD1
ENCODING  20433
SWIDTH  1000 0
DWIDTH  16 0
BBX  16 15 0 -2
BITMAP
000080FF30E0E0E0E0E0E0E0E0E0E010
0000E0A020A0A0A0A0A0A0A0A0FFE000
0040FF400000A0C000000000C0FF3000
00A0E000000030FF600000A0FF600000
10F0800040FFFFFFFFFFFFFFFFFFFF10
60FF200040FF808080FFA08080A0FF10
0010FF6040FF300000FF80000060FF10
0010FF6040FF40FFFFFFFFFFFF60FF10
0010FF6040FF308080FFC0808060FF10
0010FF6040FF300000FF80000060FF10
0010FF6040FF40FFFFFFFFFFFF60FF10
0010FF6040FF308080FFA0808060FF10
0010FF6040FF300000FF80000060FF10
0010FF6040FF300000FF8040FFFFFF10
00006020106010000060202060606000
ENDCHAR
STARTCHAR  4FD7
ENCODING  20439
SWIDTH  1000 0
DWIDTH  16 0
BBX  16 16 0 -2
BITMAP
00001020000000000000000000000000
0000E0A000000030C030808010000000
0030FF60001080FFE02060FFE0400000
0080FF1030E0FF8010000030E0FFA000
00E0C00060E03000108040000080F000
20FF600020000030E0FFFFA010002000
60FF2000000080FFE03080FFE0400000
0010FF6020C0FFA010000030E0FF8000
0010FF60C0F060000000000010A0FF60
0010FF60804080808080808080806040
0010FF600080FFFFFFFFFFFFFFFF2000
0010FF600080FF000000000060FF2000
0010FF600080FF000000000060FF2000
0010FF600080FF101010101060FF2000
0010FF600080FFFFFFFFFFFFA0FF2000
00006020003060606060606060601000
ENDCHAR
STARTCHAR  4FD8
ENCODING  20440
SWIDTH  1000 0
DWIDTH  16 0
BBX  15 16 0 -2
BITMAP
000010200000000000000000000000
0000A0E03080808080808080808060
0000F08080FFFFFFFFFFFFFFFFFFE0
0040FF300010100010100000001010
00A0E00000E0A000A0F0000010FF80
10F0800000A0F00060FF400080FF20
60FF30000040FF4010FF8000E0C000
0030FF400080808080808080808010
0030FF4000FFFFFFFFFFFFFFFFE010
0030FF400000000000000060FF4000
0030FF4040808080808080F0C08080
0030FF40A0FFFFFFFFFFFFFFFFFFFF
0030FF40000000000000FF80000000
0030FF40000000000000FF80000000
0030FF40000000F0FFFFFF80000000
001060100000006060606030000000
ENDCHAR
STARTCHAR  4FDA
ENCODING  20442
SWIDTH  1000 0
DWIDTH  16 0
BBX  16 15 0 -2
BITMAP
00008060108080808080808080808000
0010FF6020FFFFFFFFFFFFFFFFFFFF00
0060FF1020FF400000FF80000080FF00
00C0C00020FF608080FFA0808080FF00
10FF600020FF60FFFFFFFFFFFF80FF00
60FF200020FF400000FF80000080FF00
0010FF6020FF804040FFA0404080FF00
0010FF6020FFFFFFFFFFFFFFFFC0FF00
0010FF600030303030FF803030203000
0010FF602080808080FFA08080808010
0010FF6040FFFFFFFFFFFFFFFFFFFF20
0010FF600000000000FF800000000000
0010FF60101010101020101010101000
0010FF60FFFFFFFFFFFFFFFFFFFFFF30
00006020606060606060606060606010
ENDCHAR
STARTCHAR  4FDC
ENCODING  20444
SWIDTH  1000 0
DWIDTH  16 0
BBX  16 15 0 -2
BITMAP
000060A00030303030F0803030303000
0000E08010FFFFFFFFFFFFFFFFFFFF00
0040FF2010FF804040FFA04040A0FF00
00A0E00010FF80FFFFFFFFFFFF80FF00
10F0800010FF608080FFA0808080FF00
60FF200010FFA08080FFA0808080FF00
0010FF6010FFFFFFFFFFFFFFFFE0FF00
0010FF60606060606060606060606000
0010FF60FFFFFFFFFFFFFFFFFFFFFF10
0010FF601080FF404040404040403000
0010FF600080FFFFFFFFFFFFFFFFE000
0010FF60002040404040404040C0E000
0010FF60000000000010303030C0E000
0010FF60000000000080FFFFFFFFE000
00006020000000000020404040404000
ENDCHAR
STARTCHAR  4FDD
ENCODING  20445
SWIDTH  1000 0
DWIDTH  16 0
BBX  16 15 0 -2
BITMAP
00006080108080808080808080803000
0000F08020FFFFFFFFFFFFFFFFFF8000
0040FF4020FF60000000000000FF8000
00A0F00020FF60000000000000FF8000
00F0A00020FF60101010101000FF8000
40FF600020FFFFFFFFFFFFFFC0FF8000
40A03010106060606060606060603000
0000FF801010101010FF801010101000
0000FF80FFFFFFFFFFFFFFFFFFFFFF10
0000FF806060606060FFA06060606000
0000FF800000E08000FF8020E0300000
0000FF800060FF3000FF8000E0A00000
0000FF8000E0C00000FF800060F01000
0000FF8040FF600000FF800010F06000
0000FF804060000000E0600000404000
ENDCHAR
STARTCHAR  4FDE
ENCODING  20446
SWIDTH  1000 0
DWIDTH  16 0
BBX  16 16 0 -2
BITMAP
00000000000000203000000000000000
000000000020A0F0FFC0300000000000
00000020A0FFF0A080E0FFC040000000
0020A0FFF0801000000060E0FFC04000
20FFF080806060606060606080E0FF80
20801000FFFFFFFFFFFFFFFF60004060
00204040404040402010101000206000
0080FFFFFFFFFFFF800040A00080FF00
0080FF40404040FF800080FF0080FF00
0080FF00E0E0E0FF800080FF0080FF00
0080FF00A0A080FF800080FF0080FF00
0080FF00808060FF800080FF0080FF00
0080FF00FFFFF0FF800080FF0080FF00
0080FF00101000FF800000000080FF00
0080FF0020FFFFFF800000F0FFFFFF00
00308000108080803000006080808000
ENDCHAR
STARTCHAR  4FDF
ENCODING  20447
SWIDTH  1000 0
DWIDTH  16 0
BBX  16 15 0 -2
BITMAP
0000C080000040E02000003040000000
0020FF600000E0C000000060FF600000
0080FF100060FFA080808080F0E00000
00C0C00000E0FFFFFFFFFFFFFFFF6000
20FF6000008040000000000000000000
60FF200000FFA0404040404040404000
0010FF6000FFFFFFFFFFFFFFFFFFE000
0010FF600030303030FF803030302000
0010FF600000000000FF800000000000
0010FF60A0FFFFFFFFFFFFFFFFFFFF00
0010FF6040808080F0FFFFA080808000
0010FF60000010C0FF60C0F040000000
0010FF600010C0FF600010C0F0400000
0010FF6010E0FF6000000000A0FF4000
00006020204030000000000000404000
ENDCHAR
STARTCHAR  4FE1
ENCODING  20449
SWIDTH  1000 0
DWIDTH  16 0
BBX  16 15 0 -2
BITMAP
00008080000000000040C00000000000
0010FF800080808080C0FF8080808040
0060FF3000FFFFFFFFFFFFFFFFFFFFC0
00C0E000000000000000000000000000
10FF800000E0FFFFFFFFFFFFFFFFFF00
60FF2000006080808080808080808000
0010FF60004040404040404040404000
0010FF6000E0FFFFFFFFFFFFFFFFFF00
0010FF60002030303030303030303000
0010FF6000FFFFFFFFFFFFFFFFFFFF00
0010FF6000FFA0808080808080A0FF00
0010FF6000FF8000000000000080FF00
0010FF6000FF8010101010101080FF00
0010FF6000FFFFFFFFFFFFFFC0E0FF00
00006020006060606060606040202000
ENDCHAR
STARTCHAR  4FE3
ENCODING  20451
SWIDTH  1000 0
DWIDTH  16 0
BBX  16 15 0 -2
BITMAP
00008080003080808080808080803000
0020FF800080FFFFFFFFFFFFFFFF8000
0060FF200080FF000000000000FF8000
00C0E0000080FF808080808060FF8000
10FF80000080FFFFFFFFFFFFF0FF8000
60FF2000000000000000000000000000
0010FF6000E0FFFFFFFFFFFFFFFFFF00
0010FF600060808080C0FF8080808000
0010FF60000000000080FF0000000000
0010FF6040FFFFFFFFFFFFFFFFFFFF40
0010FF6020808080A0F0FFE080808020
0010FF60000020A0FFE0A0FFC0300000
0010FF600080F0E060000030C0FFA010
0010FF6020F08000000000000060E030
00006020101000000000000000000010
ENDCHAR
STARTCHAR  4FE6
ENCODING  20454
SWIDTH  1000 0
DWIDTH  16 0
BBX  16 15 0 -2
BITMAP
00008060000000008080000000000000
0010F06020808080FFE0808080808010
0060FF3040FFFFFFFFFFFFFFFFFFFF30
00A0E000106060E0FF60606060606000
00F0A00020FFFFFFFFFFFFFFFFFFFF00
40FF6000002060FF6020202020202000
0010FF60F0FFFFFFFFFFFFFFFFFFFF00
0010FF606080F0E08080808080808000
0010FF600020FF600000000060C00000
0010FF600080FF6080808080C0FF8000
0010FF6000E0E0A0FFFFFFFFFFFFFF00
0010FF6030FF80403000000080FF0000
0010FF60A0FF30C0E000001080FF0000
0010FF60E0E00080FF3080FFFFFF0000
00006020000000206020406060600000
ENDCHAR
STARTCHAR  4FE8
ENCODING  20456
SWIDTH  1000 0
DWIDTH  16 0
BBX  16 15 0 -2
BITMAP
000060A0108080808080808080808010
0000E0A020FFFFFFFFFFFFFFFFFFFF10
0040FF4000603040FF4010FF60206000
00A0E00000E0A040FF4010FF6060FF00
10F0800000C0A040FF4010FF6080E000
60FF200000A0C040FF4010FF60A0E000
0010FF6010808080FFA080FFA0808020
0010FF6010FFFFFFFFFFFFFFFFFFFF60
0010FF6010FF60000000000000000000
0010FF6010FF60000000000000000000
0010FF6010FF60000000000000000000
0010FF6010FF60000000000000000000
0010FF6010FF60000000000000000000
0010FF6010FF60000000000000000000
00006020006020000000000000000000
ENDCHAR
STARTCHAR  4FE9
ENCODING  20457
SWIDTH  1000 0
DWIDTH  16 0
BBX  15 15 0 -2
BITMAP
000080804080808080808080808080
0020FF8080FFFFFFFFFFFFFFFFFFFF
0060FF200000004080004080000000
00C0E00000000080FF0080FF000000
20FF800080FFFFFFFFFFFFFFFFFFFF
60FF200080FF80A0FF80A0FF80C0FF
0010FF6080FF0080FF0080FF0080FF
0010FF6080FF0080FF1080FF1080FF
0010FF6080FF00E0FF40C0FF4080FF
0010FF6080FF10FFFF80E0FF8080FF
0010FF6080FF40FFC0E0FFC0C080FF
0010FF6080FF80F060FFF060F080FF
0010FF6080FF6060208060108080FF
0010FF6080FF000000000010FFFFFF
000060204080000000000000808080
ENDCHAR
STARTCHAR  4FEA
ENCODING  20458
SWIDTH  1000 0
DWIDTH  16 0
BBX  16 16 0 -2
BITMAP
00002010000000000000000000000000
0020FF80808080808080808080808010
0060FF40FFFFFFFFFFFFFFFFFFFFFF30
00A0E000202020202010202020202000
00F0A000FFFFFFFFFF80FFFFFFFFFF00
30FF6000FFA06060FF80FF6060A0FF00
80FF1000FF608030FF80FF408060FF00
0010FF60FF60FF40FF80FF60FF60FF00
0010FF60FF60FF40FF80FF60FF60FF00
0010FF60FF60FF40FF80FF60FF60FF00
0010FF60FF60FF40FF80FF60FF60FF00
0010FF60FF60FF40FF80FF60FF60FF00
0010FF60FF60FF40FF80FF60FF60FF00
0010FF60FF600020FF80FF300060FF00
0010FF60FF6000F0FF80FF3020FFFF00
00006020803000608030801010808000
ENDCHAR
STARTCHAR  4FED
ENCODING  20461
SWIDTH  1000 0
DWIDTH  16 0
BBX  15 16 0 -2
BITMAP
000000200000000000100000000000
000060F00000000080F0C020000000
0000C0A0000040E0FFA0E0F0800000
0030FF4020C0FFE0300010A0FFE040
00A0E000E0F060000000000030E0FF
10F080008010000000000000000080
60FF300000FFFFFFFFFFFFFFFFFF80
0030FF400080808080808080808040
0030FF4030A0300060800000008060
0030FF4020FF600060FF100010FF80
0030FF4000F0A00040FF300060FF30
0030FF4000C0C00010FF6000A0E000
0030FF400080F00000E0A000E0A000
0030FF401010101010101010201010
0030FF40E0FFFFFFFFFFFFFFFFFFFF
001060104060606060606060606060
ENDCHAR
STARTCHAR  4FEE
ENCODING  20462
SWIDTH  1000 0
DWIDTH  16 0
BBX  16 15 0 -2
BITMAP
0000C080000020F06020202020202000
0020FF40000030FFFFFFFFFFFFFFFF10
0080F010FF8030E06060606060C0FF10
00C0C000FF8020FFFFA03040C0FFE000
20FF6000FF80002080FFFFFFE0400000
60FF2000FF800060E0FFE0E0FFC04000
0010FF60FF80A0FFE040000080F0FF40
0010FF60FF8080406080C0E0FFFF6020
0010FF60FF800030FFF0C0A060402000
0010FF60FF80001030406080C0E0FF00
0010FF60FF8000E0FFFFFFE0C0806000
0010FF60FF800080603010104060A000
0010FF602010204080A0E0FFFFFFE000
0010FF600000A0FFFFE0A08040100000
00006020000040401000000000000000
ENDCHAR
STARTCHAR  4FEF
ENCODING  20463
SWIDTH  1000 0
DWIDTH  16 0
BBX  16 16 0 -2
BITMAP
00002020000000000020100000000000
0010FFA00000000000FF800000000000
0040FF6080FFFFFFFFFFFFFFFFFFFF20
0080FF1080FF80808080808080808010
00C0E00080FF0010A010000000A04000
00F0A00080FF0060E000000000FF8000
30FF400080FF00C0A080FFFFFFFFFF20
1060FF4080FF10FF4030808080FFA010
0030FF4080FF60FF1000206000FF8000
0030FF4080FF0080FF0080FF00FF8000
0030FF4080FF0080FF0080FF00FF8000
0030FF4080FF0080FF0080FF00FF8000
0030FF4080FF0080FF0080FF00FF8000
0030FF4080FF0080FF00000010FF8000
0030FF4080FF0080FF0000F0FFFF8000
00103010308000204000006060603000
ENDCHAR
STARTCHAR  4FF1
ENCODING  20465
SWIDTH  1000 0
DWIDTH  16 0
BBX  16 15 0 -2
BITMAP
0000A0E0108080808080808080803000
0000F08020FFFFFFFFFFFFFFFFFF6000
0060FF3020FF40202020202020FF6000
00A0E00020FF40FFFFFFFFFFA0FF6000
10F0800020FF40606060606040FF6000
60FF300020FF40606060606040FF6000
0030FF4020FF40FFFFFFFFFFA0FF6000
0030FF4020FF40404040404040FF6000
0030FF4020FF40FFFFFFFFFFA0FF6000
0030FF4020FF40202020202020FF6000
0030FF40FFFFFFFFFFFFFFFFA0FFFF60
0030FF40808080808080808060808030
0030FF403060A0E0E00080F0C0804000
0030FF40C0F0C08040002060A0E0FF20
00106010200000000000000000002000
ENDCHAR
STARTCHAR  4FF3
ENCODING  20467
SWIDTH  1000 0
DWIDTH  16 0
BBX  16 16 0 -2
BITMAP
00000000000000000000000000000000
0000A0E0000000FF800000FF80000000
0010F080101010FF800000FF80101000
0060FF20E0FFFFFF800000FFFFFFFF40
00C0E000406060FF800000FFA0606020
10FF8000000000FF800000FF80000000
60FF2000000000FF800000FF80000000
0010FF60C0FFFFFF800000FFFFFFFF30
0010FF60408080FF800000FFA0808010
0010FF60000000FF800000FF80000000
0010FF60000000FF800000FF80000000
0010FF60608080FF800000FFA0808020
0010FF60E0FFFFFF800000FFFFFFFF40
0010FF60000000FF800000FF80000000
0010FF60000000FF800000FF80000000
00006020000000803000008030000000
ENDCHAR
STARTCHAR  4FF8
ENCODING  20472
SWIDTH  1000 0
DWIDTH  16 0
BBX  16 16 0 -2
BITMAP
00000000000000000030100000000000
000060C00030303030FF803030303000
0000E08020FFFFFFFFFFFFFFFFFFFF10
0030FF301040404040FFA04040404000
00A0E00000F0FFFFFFFFFFFFFFFFF000
10F080000060606060FFA06060606000
60FF20006080808080FFA08080808000
0000FF80FFFFFFFFFFFFFFFFFFFFFF00
0000FF800060FF300000000060FF2000
0000FF8010F0C02020FF802020E08000
0000FF80A0FF60FFFFFFFFFFF060E000
0000FF804060006060FFA06040106000
0000FF800080808080FFC08080808000
0000FF8010FFFFFFFFFFFFFFFFFFFF00
0000FF800000000000FF800000000000
000060200000000000F0600000000000
ENDCHAR
STARTCHAR  4FFA
ENCODING  20474
SWIDTH  1000 0
DWIDTH  16 0
BBX  16 16 0 -2
BITMAP
00000000000000000000100000000000
000060E0100000000080FF1000000000
0000A0E03080808080C0FF8080808000
0000F08080FFFFFFFFFFFFFFFFFFFF10
0040FF40000040A0F0FFE0FFC0600000
00A0F00060F0FFF080408040C0FFE020
00E0A000A0F0C06060A0FF606080F030
20C060001080FFFFFFFFFFFFFFFFFF00
000080FF0080FF001080FF201080FF00
000080FF0080FF60FFFFFFFFFF80FF00
000080FF0080FF2060A0FF606080FF00
000080FF0080FF6060A0FF606080FF00
000080FF0080FFFFFFFFFFFFFFE0FF00
000080FF000000000060FF4030303000
000080FF000000000060FFFFFFFFFF00
000080FF000000000020404040404000
ENDCHAR
STARTCHAR  4FFE
ENCODING  20478
SWIDTH  1000 0
DWIDTH  16 0
BBX  15 16 0 -2
BITMAP
000000000000000000100000000000
0010E0600030303030FF8030303030
0040FF4010FFFFFFFFFFFFFFFFFFFF
0080FF1010FF80404080604040A0FF
00E0E00010FF600000FF80000080FF
10FFA00010FF60E0E0FFF0E0E080FF
40FF600010FF608080FFC0808080FF
0030FF4010FF600000FF80000080FF
0030FF4010FFA060608080606080FF
0030FF4010FFFFFFFFFFFFFFF0E0FF
0030FF40001010F060101010001010
0030FF40000040FF200080FF000000
0030FF40A0C0E0FFC0C0E0FFC0C0C0
0030FF40A0C0C0C0C0C0E0FFC0C0C0
0030FF4000000000000080FF000000
0010602000000000000060F0000000
ENDCHAR
STARTCHAR  500C
ENCODING  20492
SWIDTH  1000 0
DWIDTH  16 0
BBX  16 15 0 -2
BITMAP
0010E0800010101010E0801010101000
0040FF6080FFFFFFFFFFFFFFFFFFFF20
00A0FF1080FF60606060606060A0FF20
00E0C00060E00000000000000040E010
20FF8000003080808080808080800000
60FF30000080FFFFFFFFFFFFFFFF0000
0000FF800080FF000000000080FF0000
0000FF800080FFFFFFFFFFFFA0FF0000
0000FF800080FF808080808080800000
0000FF800080FF202020202020200000
0000FF800080FFFFFFFFFFFFFFFF6000
0000FF800080FF606060606080FF6000
0000FF800080FF101010101030FF6000
0000FF800080FFFFFFFFFFFFC0FF6000
00006020003060606060606060602000
ENDCHAR
STARTCHAR  500D
ENCODING  20493
SWIDTH  1000 0
DWIDTH  16 0
BBX  16 15 0 -2
BITMAP
0000E0E0002030303080FF3030303000
0020FF8000FFFFFFFFFFFFFFFFFFFF00
0060FF40004040404040404040404000
00C0F0000020FF600000000060FF1000
10FFA0000000C0E000000000A0C00000
60FF4000000030801000000060300000
0000FF6000FFFFFFFFFFFFFFFFFFFFA0
0000FF60008080808080808080808040
0000FF60001030303030303030301000
0000FF600060FFFFFFFFFFFFFFFF8000
0000FF600060FF404040404040FF8000
0000FF600060FF100000000000FF8000
0000FF600060FF201010101000FF8000
0000FF600060FFFFFFFFFFFFC0FF8000
00008030002060606060606060603000
ENDCHAR
STARTCHAR  500F
ENCODING  20495
SWIDTH  1000 0
DWIDTH  16 0
BBX  16 15 0 -2
BITMAP
0000C080000000E08040404040404000
0020FF40000000FFFFFFFFFFFFFFFF00
0080F010FF8000803030303030A0FF00
00C0C000FF8000FFE0801030A0FFF000
20FF6000FF800040A0FFFFFFF0601000
60FF2000FF800060E0FFC0E0FFE06000
0010FF60FF8080FFE040001080F0FF00
0010FF60FF8080600000E06030808000
0010FF60FF8030404040FFA0A0FF4000
0010FF60FF80A0FFFFFFFFFFFFFFFF00
0010FF60FF80203030A0FFE040303000
0010FF60FF80000060FFC0F0C0000000
0010FF60C0600060FFA00040F0C00000
0010FF60000060FFA000000030F0A000
00006020000040400000000000204010
ENDCHAR
STARTCHAR  5012
ENCODING  20498
SWIDTH  1000 0
DWIDTH  16 0
BBX  15 16 0 -2
BITMAP
000020100000000000000000001030
0040FF4080808080808030000080FF
0080FF10FFFFFFFFFFFF60100080FF
00C0E00000806000000000FF8080FF
00F0A00030FF8000C08000FF8080FF
40FF600080FF3000A0E000FF8080FF
80FF3000C0FF8080A0FF10FF8080FF
0060FF20FFFFFFFFFFFF60FF8080FF
0060FF20000080FF000000FF8080FF
0060FF20101080FF101000FF8080FF
0060FF20FFFFFFFFFFFF20FF8080FF
0060FF20A0A0C0FFA0A010FF8080FF
0060FF20000080FF000000FF8080FF
0060FF2010101010101000001080FF
0060FF20FFFFFFFFFFFF3030FFFFFF
002060106060606060601010606060
ENDCHAR
STARTCHAR  5014
ENCODING  20500
SWIDTH  1000 0
DWIDTH  16 0
BBX  16 15 0 -2
BITMAP
0000E0A040E0E0E0E0E0E0E0E0E0E000
0020FF6060FFE0E0E0E0E0E0E0F0FF00
0080FF1060FF1000000000000080FF00
00C0C00060FF8080808080808080FF00
10FF600060FFFFFFFFFFFFFFFFE0FF00
60FF200060FF1030800040A000308000
0030FF4060FF1060FF0080FF0060FF00
0030FF4060FF1060FF0080FF0060FF00
0030FF4060FF1060FFFFFFFFFFFFFF00
0030FF4060FF10308080A0FF80806000
0030FF4060FF1040A00080FF0040A000
0030FF4060FF1060FF0080FF0060FF00
0030FF4060FF1060FF1080FF1080FF00
0030FF4060FF1060FFFFFFFFFFFFFF00
00104010204000206060606060606000
ENDCHAR
STARTCHAR  5018
ENCODING  20504
SWIDTH  1000 0
DWIDTH  16 0
BBX  16 16 0 -2
BITMAP
00001010000000000030100000000000
0000E0A010E0800000FF800000A0E000
0030FF600080F01000FF800030FF6000
0080FF100010F08000FF8000A0E00000
00E0C0000000202000FF800030200000
20FF600020FFFFFFFFFFFFFFFFFFFF10
60FF200020FFA0808080808080A0FF10
0010FF6020FF6000101010100060FF10
0010FF6020FF6040FFFFFFFF3060FF10
0010FF6020FF6040FF6080FF3060FF10
0010FF6020FF6040FF2030FF3060FF10
0010FF6020FF6040FF8060FF3060FF10
0010FF6020FF6040FFFFE0FF3060FF10
0010FF6020FF6000101000100060FF10
0010FF6020FF6000000030FFFFFFFF10
00006020108020000000108080808000
ENDCHAR
STARTCHAR  5019
ENCODING  20505
SWIDTH  1000 0
DWIDTH  16 0
BBX  16 16 0 -2
BITMAP
00002010000000000000000000000000
0010FF80000010808080808080801000
0060FF30000030FFFFFFFFFFFFFF3000
00A0E000000000000000000040FF3000
00F0A010E040FFFFFFFFFFFFFFFFFF20
40FF4020FF6080808080808080808010
A0F01020FF6060E00000000000000000
0080FF20FF6060FFFFFFFFFFFFFFFF10
0080FF20FF6030808080808080808010
0080FF20FF6000000000FF8000000000
0080FF20FF60FFFFFFFFFFFFFFFFFF30
0080FF20FF60808080E0FFFFA0808010
0080FF20FF600040E0FFA0E0F0600000
0080FF000000A0FFE0300010A0FFC010
0080FF000000F060000000000040E030
00206000000020000000000000001010
ENDCHAR
STARTCHAR  501A
ENCODING  20506
SWIDTH  1000 0
DWIDTH  16 0
BBX  15 15 0 -2
BITMAP
000060E01000000000C08000000000
0000C0A0A0FFFFFFFFFFFFFFFFFFC0
0030FF4040808080E0FFFFA0808060
00A0E000001080F0E080E0FFA02000
10F0800060F0F08010000060F0F060
60FF3000A0A010000000000010A0C0
0010FF604040404040404040404060
0010FF60E0FFFFFFFFFFFFFFFFFFFF
0010FF60204040404040403020FF80
0010FF6000FFFFFFFFFFFF8000FF80
0010FF6000FFA0404040FF8000FF80
0010FF6000FFFFFFFFC0FF8000FF80
0010FF60006060606060603000FF80
0010FF600000000000FFFFFFFFFF80
000060200000000000606060606030
ENDCHAR
STARTCHAR  501C
ENCODING  20508
SWIDTH  1000 0
DWIDTH  16 0
BBX  15 16 0 -2
BITMAP
000010200000000000000000000000
0000E0A02080808080808080808080
0030FF6040FFFFFFFFFFFFFFFFFFFF
0080FF1040FF300000A040000080FF
00E0C00040FF306060FFA0606080FF
20FF600040FF30FFFFFFFFFFE080FF
60FF200040FF303030FF80303080FF
0010FF6040FF60FFFFFFFFFFFF80FF
0010FF6040FF3040404040404080FF
0010FF6040FF30FFFFFFFFFF8080FF
0010FF6040FF30FFA06060FF8080FF
0010FF6040FF30FFA04030FF8080FF
0010FF6040FF30FFFFFFC0FF8080FF
0010FF6040FF3020202020302080FF
0010FF6040FF3000000010FFFFFFFF
000060202080100000000060606060
ENDCHAR
STARTCHAR  501F
ENCODING  20511
SWIDTH  1000 0
DWIDTH  16 0
BBX  15 15 0 -2
BITMAP
0000A0C0000020FF60000080FF0000
0010FF8040A0A0FFC0A0A0C0FFA080
0060FF3060E0E0FFF0E0E0F0FFE0C0
00C0E000000020FF60000080FF0000
10FF80001020206030202040602020
60FF4000A0FFFFFFFFFFFFFFFFFFFF
2040FF803060606060606060606060
0000FF800030808080808080808030
0000FF800080FFFFFFFFFFFFFFFF80
0000FF800080FF000000000000FF80
0000FF800080FFFFFFFFFFFF40FF80
0000FF800080FF808080808020FF80
0000FF800080FF101010101000FF80
0000FF800080FFFFFFFFFFFF80FF80
000060200030606060606060606030
ENDCHAR
STARTCHAR  5021
ENCODING  20513
SWIDTH  1000 0
DWIDTH  16 0
BBX  16 15 0 -2
BITMAP
0000E0C000E0E0E0E0E0E0E0E0E0E000
0020FF8000FFE0A0A0A0A0A0A0E0FF00
0080FF2000FF8060606060602080FF00
00C0E00000FF80FFFFFFFFFF6080FF00
10FF800000FF8020202020201080FF00
60FF300000FFFFFFFFFFFFFF60E0FF00
1030FF80006060606060606060606000
0000FF80104040404040404040404000
0000FF8030FFFFFFFFFFFFFFFFFFFF10
0000FF8030FF6020202020202080FF10
0000FF8030FF4080808080806060FF10
0000FF8030FF40FFFFFFFFFFE060FF10
0000FF8030FF6020202020201060FF10
0000FF8030FFFFFFFFFFFFFFE0C0FF10
00006020106060606060606060202000
ENDCHAR
STARTCHAR  5025
ENCODING  20517
SWIDTH  1000 0
DWIDTH  16 0
BBX  16 16 0 -2
BITMAP
00000000000000000000000000000000
0000C0A00000000000FF800000000000
0020FF6060FFFFFFFFFFFFFFFFFFFF10
0080FF1060FF80808080808080A0FF10
00E0C00060FF20E0A00040FF6060FF10
20FF6000103080F0200000A0F0403000
60FF20000020FF8000000010E0C00000
0010FF6000C0E0000000000040FF6000
0010FF60106030000000000000606000
0010FF6000FFFFFFFFFFFFFFFFFFC000
0010FF60008080808080808080806000
0010FF600000000020FF600000000000
0010FF600000000020FF600000000000
0010FF60002020202060302020202000
0010FF6040FFFFFFFFFFFFFFFFFFFF00
00006020106060606060606060606000
ENDCHAR
STARTCHAR  5026
ENCODING  20518
SWIDTH  1000 0
DWIDTH  16 0
BBX  16 16 0 -2
BITMAP
00000000000000000010301000000000
000080E00000C0C00060FF2040E06000
0000E080000040A010A0F00060A01000
0040FF2020FFFFFFFFFFFFFFFFFFFF10
00A0E0001080808080FFC08080808000
10F080000000000020FF600000000000
60FF2000F0FFFFFFFFFFFFFFFFFFFF00
0010FF606080E0FF80808080FFE08000
0010FF600060FFA020202020A0F01000
0010FF6030F0FFFFFFFFFFFFFFFF8000
0010FF60A0C0C0FF60606060FFA0A000
0010FF60000080FF00608080FF600000
0010FF60000080FF00F0FFFFFF600000
0010FF60000080FF2020202020202000
0010FF60000080FFFFFFFFFFFFFFFF20
00006020000030606060606060606010
ENDCHAR
STARTCHAR  5028
ENCODING  20520
SWIDTH  1000 0
DWIDTH  16 0
BBX  16 15 0 -2
BITMAP
0000A0E060E0E0E0E0E0E0E0E0E0E000
0000F08060FFA0A0A0A0A0A0A0E0FF10
0060FF3060FF0000000000000080FF10
00A0E00060FF6060606060606080FF10
10F0800060FFFFFFFFFFFFFFF0E0FF10
60FF300060FF10101010306000101000
0030FF4060FF00808080C0FF80808040
0030FF4060FF00FFFFFFFFFFFFFFFF80
0030FF4060FF0000000080FF00000000
0030FF4060FF00808080C0FF80808000
0030FF4060FF00FFFFFFFFFFFFFFFF10
0030FF4060FF00FF800000000080FF10
0030FF4060FF00FF801010101080FF10
0030FF4060FF00FFFFFFFFFFE0C0FF10
00106010204000606060606060202000
ENDCHAR
STARTCHAR  5029
ENCODING  20521
SWIDTH  1000 0
DWIDTH  16 0
BBX  15 15 0 -2
BITMAP
0000C0802020202030FF6020202020
0020FF60C0FFFFFFFFFFFFFFFFFFE0
0060FF103060606060FF8060606040
00C0C00020FFFFFFFFFFFFFFFFFFFF
10FF60002060606060FF8060606060
60FF2000F0FFFFFFFFFFFFFFFFFFFF
2040FF604040404040404040404040
0010FF6020FFFFFFFFFFFFFFFFFF80
0010FF6020FFA0606060606060FF80
0010FF6020FF60FFFFFFFFFFA0FF80
0010FF6020FF60606060606040FF80
0010FF6020FF60FFFFFFFFFFA0FF80
0010FF6020FF60606060606030FF80
0010FF6020FF60000000A0FFFFFF80
000060201060200000003060606030
ENDCHAR
STARTCHAR  502A
ENCODING  20522
SWIDTH  1000 0
DWIDTH  16 0
BBX  16 16 0 -2
BITMAP
00001020000000000000000000000000
0000C0E0008080808040408080808000
0010FF8010FFFFFFFFA0A0FFFFFFFF00
0060FF2010FF6000000000000080FF00
00C0E00010FF6060603030606080FF00
10FF800010FF60FFFFA0A0FFFF80FF00
60FF200010FF6020201010201080FF00
0010FF6010FF8020202020202080FF00
0010FF6010FFFFFFFFFFFFFFFFA0FF00
0010FF60006060606060606060606000
0010FF60000020FF600010FF60000000
0010FF60000080FF100010FF60000000
0010FF600000E0C0000010FF60000000
0010FF600030FF60000010FF60101000
0010FF6000A0F000000010FFFFFFFF60
00006020008060000000006060606030
ENDCHAR
STARTCHAR  502C
ENCODING  20524
SWIDTH  1000 0
DWIDTH  16 0
BBX  15 15 0 -2
BITMAP
000030E02000000040E02000000000
0000A0E00000000040FFFFFFFFFFE0
0010F0600000000040FF8080808060
0080F01000808080A0FF8080808030
00E0A00000FFFFFFFFFFFFFFFFFF80
60FF300000FF80000000000000FF80
0010FF6000FF80FFFFFFFFFF80FF80
0010FF6000FF80808080808040FF80
0010FF6000FFA0808080808040FF80
0010FF6000FFFFFFFFFFFFFFE0FF80
0010FF600000000000F08000000000
0010FF60C0FFFFFFFFFFFFFFFFFFFF
0010FF606080808080FFC080808080
0010FF600000000000F08000000000
000060200000000000603000000000
ENDCHAR
STARTCHAR  502D
ENCODING  20525
SWIDTH  1000 0
DWIDTH  16 0
BBX  16 15 0 -2
BITMAP
0000E0A000E0E0E0E0E0E0E0E0E0A000
0030FF4000E0E0E0E0FFF0E0E0E0A000
0080F0001020202020FF802020202000
00E0C000A0FFFFFFFFFFFFFFFFFFFF00
20FF60003060606060FFA06060606000
60FF20000060A0E0FFFF80FFE0A06000
0010FF6010FFE0A040FF8040A0E0FF10
0010FF601040100000A0400000004010
0010FF6080C0FF808080808080808000
0010FF60FFFFFFFFFFFFFFFFFFFFFF10
0010FF600080FF400000000030804000
0010FF600060FFFFE080A0E0FFFF6000
0010FF60002060E0FFFFFFFFF0802000
0010FF6080FFF0C060203080C0FFE000
00006020404000000000000000104000
ENDCHAR
STARTCHAR  502E
ENCODING  20526
SWIDTH  1000 0
DWIDTH  16 0
BBX  16 15 0 -2
BITMAP
00004080108080808080808080808000
0000E0A020FFFFFFFFFFFFFFFFFFFF00
0030FF3020FF600000FF80000080FF00
00A0E00020FF60FFFFFFFFFFFF80FF00
10F0800020FF606060FFA0606080FF00
60FF200020FFA08080FFA0808080FF00
0010FF6020FFFFFFFFFFFFFFFFE0FF00
0010FF600000000000FF800000000000
0010FF60F0FFFFFFFFFFFFFFFFFFFF00
0010FF606080808080FFA08080808000
0010FF600010C06000FF8000A0A00000
0010FF600080FF3000FF800060FF3000
0010FF6000E0C00000FF800000E08000
0010FF6060FF600000FF80000060E000
00006020304000000060300000004000
ENDCHAR
STARTCHAR  503A
ENCODING  20538
SWIDTH  1000 0
DWIDTH  16 0
BBX  16 16 0 -2
BITMAP
00000000000000000000000000000000
0000C0A00010101010FF801010101000
0020FF60A0FFFFFFFFFFFFFFFFFFFF00
0080FF103060606060FFA06060606000
00C0C00000FFFFFFFFFFFFFFFFFFFF00
10FF60000060606060FFA06060606000
60FF2000C0FFFFFFFFFFFFFFFFFFFF20
1030FF60406060606060606060606000
0010FF6010FFFFFFFFFFFFFFFFFFFF00
0010FF6010FFA0808080808080C0FF00
0010FF6010FF600000FF80000080FF00
0010FF6010FF600010FF80000080FF00
0010FF6000804080F0FFFFA030308000
0010FF602080F0FFA03060E0FFC04000
0010FF60A0F0A0200000000060E0FF00
00006020401000000000000000006000
ENDCHAR
STARTCHAR  503C
ENCODING  20540
SWIDTH  1000 0
DWIDTH  16 0
BBX  16 15 0 -2
BITMAP
000080601010101020C0601010101000
0020FF60FFFFFFFFFFFFFFFFFFFFE000
0060FF106060606060FFA06060606000
00C0C0000080808080FFA08080803000
10FF600000FFFFFFFFFFFFFFFFFF8000
60FF200000FF80404040404010FF8000
0010FF6000FF80FFFFFFFFFF60FF8000
0010FF6000FF80303030303010FF8000
0010FF6000FF80FFFFFFFFFF60FF8000
0010FF6000FF80808080808020FF8000
0010FF6000FF80808080808020FF8000
0010FF6000FF80FFFFFFFFFF60FF8000
0010FF6010FF80101010101000FF8000
0010FF60FFFFFFFFFFFFFFFF80FFFF10
00006020606060606060606060606000
ENDCHAR
STARTCHAR  503E
ENCODING  20542
SWIDTH  1000 0
DWIDTH  16 0
BBX  16 16 0 -2
BITMAP
00001020000000000000000000000000
0000E0C0103000004040404040404010
0030FF6080FF0000FFFFFFFFFFFFFF30
0080FF2080FF0000000010FF60000000
00E0E00080FF000080FFFFFFFFFFFF00
20FF800080FFFFFF80FF808080A0FF00
60FF200080FF808080FF10A04080FF00
0010FF6080FF000080FF10FF6080FF00
0010FF6080FF000080FF10FF6080FF00
0010FF6080FF000080FF10FF6080FF00
0010FF6080FF000080FF10FF6080FF00
0010FF6080FF000060E030FF8060E000
0010FF6080FF00000010E0FFFF400000
0010FF6080FF806000A0FF60E0E02000
0010FF6080FFFFE060FF800020E0E000
00006020000000003030000000103010
ENDCHAR
STARTCHAR  5043
ENCODING  20547
SWIDTH  1000 0
DWIDTH  16 0
BBX  15 15 0 -2
BITMAP
000080803080808080808080808080
0010FF8080FFFFFFFFFFFFFFFFFFFF
0060FF3080FF40FFFFFFFFFFFFFFFF
00C0E00080FF40FF603030303080FF
10FF800080FF40FF40FFFFFFFF80FF
60FF200080FF40FF606060606080FF
0010FF6080FF40FFFFFFFFFFFFC0FF
0010FF6080FF008040101010101000
0010FF6080FFF0FFFFFFFFFFFFFFFF
0010FF6080FF20FFE08030204080A0
0010FF6080FF0060E0FFFFF0FFFFA0
0010FF6080FF80F0FFF0C0A0E0FFC0
0010FF6080FF808040101010104080
0010FF6080FFFFFFFFFFFFFFFFFFFF
000060203060606060606060606060
ENDCHAR
STARTCHAR  5047
ENCODING  20551
SWIDTH  1000 0
DWIDTH  16 0
BBX  16 16 0 -2
BITMAP
00001020000000000000000000000000
0000E0E0308080808010808080808000
0020FF8080FFFFFFFF30FFFFFFFFFF00
0060FF4080FF0040FF3000000080FF00
00A0F00080FF0040FF3000000080FF00
00F0A00080FF6080FF30808080A0FF00
40FF600080FFFFF0FF30FFFFFFFFFF00
0030FF4080FF10001000606060606000
0030FF4080FF60606000FFFFFFFFFF00
0030FF4080FFE0FFFF0010101080FF00
0030FF4080FF10101000F0800080FF00
0030FF4080FF30404000C0F060F0E000
0030FF4080FFE0FFFF0010E0FFE01000
0030FF4080FF3030300010E0FFC00000
0030FF4080FF00000000C0FFA0FF8000
0010602060F0000000A0F08000C0E030
ENDCHAR
STARTCHAR  5048
ENCODING  20552
SWIDTH  1000 0
DWIDTH  16 0
BBX  15 15 0 -2
BITMAP
0000C0C030E0E0E0E0E0E0E0E0E0E0
0020FF6040FFC0A0A0A0A0A0A0E0FF
0060FF2040FF3080808080806080FF
00C0E00040FF30FFFFFFFFFFF080FF
10FF800040FFA080808080808080FF
60FF300040F0F0F0F0F0F0F0E0E0F0
0030FF4030E0200000000000000000
0030FF4040FFFFFFFFFFFFFFFFFFFF
0030FF40208080808080808080A0FF
0030FF4040F0300010C0A0000080FF
0030FF4040FF3000A0F0FFA00080FF
0030FF4040FF30A0FF4060FF8080FF
0030FF4040FF4040401010304080FF
0030FF4040FFFFFFFFFFFFA0E0FFFF
001060101060606060606040606060
ENDCHAR
STARTCHAR  504C
ENCODING  20556
SWIDTH  1000 0
DWIDTH  16 0
BBX  15 15 0 -2
BITMAP
0000E0A0000080FF00000020FF6000
0030FF4060C0E0FFC0C0C0E0FFE0C0
0080F01060C0E0FFC0C0C0C0FFE0C0
00E0C000000080FF00000020FF6000
20FF60000000304000000000100000
60FF20003040E0E040404040404040
0010FF60C0FFFFFFFFFFFFFFFFFFFF
0010FF6020C0F03030303030303030
0010FF6010F0A06060606060606060
0010FF6060FF80FFFFFFFFFFFFFFFF
0010FF60C0C060FF201010101080FF
0010FF60603060FF200000000080FF
0010FF60000060FF302020201080FF
0010FF60000060FFFFFFFFFFC0C0FF
000060200000206060606060406060
ENDCHAR
STARTCHAR  504E
ENCODING  20558
SWIDTH  1000 0
DWIDTH  16 0
BBX  16 15 0 -2
BITMAP
00008080108080808080808080803000
0020FF6020FFFFFFFFFFFFFFFFFF8000
0060FF2020FF603030F0803020FF8000
00C0C00020FF60FFFFFFFFFFC0FF8000
20FF800020FF604040FF804030FF8000
60FF200020FFA0808080808060FF8000
0010FF6020FFFFFFFFFFFFFFF0FF8000
0010FF60606060606060606060606000
0010FF60FFFFFFFFFFFFFFFFFFFFFF10
0010FF6020FF80202080802020203000
0010FF6000FF80000080FFA01080E000
0010FF6000FF8000000080FFFFF06000
0010FF6000FF8010100000A0FF600000
0010FF6000FFFFFFFFA00000C0FF4000
00006020006060606040000010606000
ENDCHAR
STARTCHAR  504F
ENCODING  20559
SWIDTH  1000 0
DWIDTH  16 0
BBX  16 15 0 -2
BITMAP
0000C0802020202060E0402020202000
0020FF60FFFFFFFFFFFFFFFFFFFFFF00
0080FF10FFA040404040404040A0FF00
00E0C000FF803030303030303080FF00
20FF6000FFFFFFFFFFFFFFFFE0C0FF00
60FF2000FFA040404040404040404000
0010FF60FF8030808080808080808000
0010FF60FF8080FFFFFFFFFFFFFFFF10
0010FF60FF8080FF000000000060FF10
0010FF60FF8080FF40FF30FF6060FF10
0010FF60FF8080FF60FF60FF8080FF10
0010FF60FF8080FFFFFFFFFFFFA0FF10
0010FF60FF8080FF60FF60FF8080FF10
0010FF60FF8080FF40FF30FF6060FF10
00004010E06060E030C020C04060E000
ENDCHAR
STARTCHAR  5055
ENCODING  20565
SWIDTH  1000 0
DWIDTH  16 0
BBX  16 15 0 -2
BITMAP
0000C0A030E030000000E06000000000
0020FF6030FF40404040FF8040404010
0060FF1030FF40FFFFE0FF80FFFFFF20
00C0C00030FF40303030FF8030303000
10FF600030FF40101010FF8010101000
60FF200030FFFFFFFFE0FFFFFFFFFF20
2040FF60106060606080806060606010
0010FF601080808080FFA08080804000
0010FF6020FFFFFFFFFFFFFFFFFFC000
0010FF6020FF60000000000000A0C000
0010FF6020FF60FFFFFFFFFFE0A0C000
0010FF6020FF60808080808060A0C000
0010FF6020FF60101010101010A0C000
0010FF6020FFFFFFFFFFFFFFE0E0C000
00006020106060606060606060604000
ENDCHAR
STARTCHAR  505A
ENCODING  20570
SWIDTH  1000 0
DWIDTH  16 0
BBX  16 16 0 -2
BITMAP
00001010000000000000201000000000
0000E0A00010FF600000FF8000000000
0030FF600010FF600000FFA080808020
0080FF10FFFFFFFFFF40FFFFFFFFFF40
00E0C0008080FFA0802000000080FF00
20FF60000010FF600000FF800080FF00
60FF20000010FF600000FF800080FF00
0010FF600010A0300000FF800080FF00
0010FF60A0FFFFFFF000FFA000A0FF00
0010FF60A0E080C0F000A0FF60FFA000
0010FF60A0E00080F00010F0FFF02000
0010FF60A0E00080F00000A0FFA00000
0010FF60A0E00080F00010F0FFF01000
0010FF60A0E02080F00080FF80FF8000
0010FF60A0FFFFC0F010F0C00080F010
00006020304040404080F04000108030
ENDCHAR
STARTCHAR  505C
ENCODING  20572
SWIDTH  1000 0
DWIDTH  16 0
BBX  16 16 0 -2
BITMAP
00001020000000000030200000000000
0000E0C03060606060FFA06060606000
0030FF6080FFFFFFFFFFFFFFFFFFFF00
0080FF10103040404040404040403000
00E0C0000080FFFFFFFFFFFFFFFF3000
20FF80000080FF606060606080FF3000
60FF20000080FFFFFFFFFFFFA0FF3000
0010FF60003080808080808060801000
0010FF60308080808080808080808030
0010FF6080FFFFFFFFFFFFFFFFFFFF60
0010FF6080FF0000000000000010FF60
0010FF603080FFFFFFFFFFFFFF308030
0010FF600000808080A0FF8080100000
0010FF60000000000080FF0000000000
0010FF60000030FFFFFFFF0000000000
00006020000010808080800000000000
ENDCHAR
STARTCHAR  5065
ENCODING  20581
SWIDTH  1000 0
DWIDTH  16 0
BBX  16 15 0 -2
BITMAP
0030FF80808010303060FF6030301000
0080FF40FFFF30FFFFFFFFFFFFFF8000
00A0F00040FF30404060FF6040FF8000
00F0C00040FF60FFFFFFFFFFFFFFFF40
30FF800040FF40404060FF6040FFA010
60FF400040FF30FFFFFFFFFFA0FF8000
0040FF3040FF30606080FF8060603000
0040FF3040FF30206080FF8060606000
0040FF3040FF3060FFFFFFFFFFFFFF00
0040FF3040FF30101030FF4010101000
0040FF3040FF40FFFFFFFFFFFFFFFF20
0040FF3040FF30404060FF6040404010
0040FF3060FF40101010301010101000
0040FF40FFFFFFFFFFFFFFFFFFFFFF30
00106010606060606060606060606010
ENDCHAR
STARTCHAR  506C
ENCODING  20588
SWIDTH  1000 0
DWIDTH  16 0
BBX  16 16 0 -2
BITMAP
00000000001000000000000000000000
0000E0C010FF60000000000000000000
0030FF6010FFFFFFFFFFFFFFFFFFFF00
0080FF20108080808080808080C0FF00
00E0C0000000C0A00060F0300080FF00
20FF800000F0FFC060C0E0000080FF00
60FF200000A0FFE0F0FFFFE00080FF00
0010FF6000A0E00020FFA0800080FF00
0010FF6000E0A00060FF1010FFFFFF00
0010FF60008040004080000080808000
0010FF6010FF6030FF4060FF2040FF30
0010FF6010FF6030FF4060FF2040FF30
0010FF6010FF6030FF4060FF2040FF30
0010FF6010FF6030FF4010200040FF30
0010FF6010FF6030FFFFFFFF4040FF30
00006020003010108080808020103000
ENDCHAR
STARTCHAR  5076
ENCODING  20598
SWIDTH  1000 0
DWIDTH  16 0
BBX  16 15 0 -2
BITMAP
00008080008080808080808080804000
0020FF8010FFFFFFFFFFFFFFFFFFA000
0060FF2010FF601010E0601010E0A000
00C0E00010FF60FFFFFFFFFFE0E0A000
10FF800010FF606060FFA06040E0A000
60FF200010FFA08080FFA08060E0A000
0010FF6010FFFFFFFFFFFFFFE0FFA000
0010FF600010101010FF801010101000
0010FF6080FFFFFFFFFFFFFFFFFFFF00
0010FF6080FF606060FFA06060A0FF00
0010FF6080FF000000FF8060C080FF00
0010FF6080FF2080808080C0FF80FF00
0010FF6080FF30FFFFFFFFFFFF80FF00
0010FF6080FF00000000000000FFFF00
00006020308000000000000000808000
ENDCHAR
STARTCHAR  5077
ENCODING  20599
SWIDTH  1000 0
DWIDTH  16 0
BBX  16 16 0 -2
BITMAP
00001020000000000010000000000000
0000E0E00000001080FFC03000000000
0030FF80000060F0FFC0FFFFA0200000
0080FF3030C0FFE0400020A0FFFFA020
00E0E000C0E080808080808080A0FF80
20FF8000601020FFFFFFFFFFF0002040
60FF2000104040404040100000308000
0010FF6040FFFFFFFFFF20A04080FF00
0010FF6040FF603060FF20FF8080FF00
0010FF6040FF30A080FF20FF8080FF00
0010FF6040FF30E080FF20FF8080FF00
0010FF6040FF302060FF20FF8080FF00
0010FF6040FF30FFA0FF20FF8080FF00
0010FF6040FF306060FF20000080FF00
0010FF6040FF300040FF2000F0FFFF00
00006020206010002060100060808000
ENDCHAR
STARTCHAR  507B
ENCODING  20603
SWIDTH  1000 0
DWIDTH  16 0
BBX  16 15 0 -2
BITMAP
0000E0A00080E02010FF600060E03000
0030FF400020F0A010FF6010E0C00000
0080F0100000408010FF603080200000
00E0C000FFFFFFFFFFFFFFFFFFFFFF00
20FF60008080A0A080FFA080A0808000
60FF20000030FF8010FF6000E0C00000
0010FF6010E0E00010FF600030F06000
0010FF60208080000060300000303000
0010FF60FFFFFFFFFFFFFFFFFFFFFF00
0010FF6080A0FF808080808080808000
0010FF600080FF602000003080C06000
0010FF600040E0FFFFE0E0FFF0C03000
0010FF602060C0F0FFE0F0FFF0A06000
0010FF60E0FFE08030000040A0E0FF10
00006020401000000000000000003000
ENDCHAR
STARTCHAR  507E
ENCODING  20606
SWIDTH  1000 0
DWIDTH  16 0
BBX  16 15 0 -2
BITMAP
0000C0800000000000FF800000000000
0010FF6000FFFFFFFFFFFFFFFFFF4000
0060FF100060606060FFA06060602000
00A0E0000040FF300060300080FF0000
00F08000FFFFFFFFFFFFFFFFFFFFFF20
40FF400080A0FF8080808080C0FF8010
0030FF40002080100000000030800000
0030FF4000FFFFFFFFFFFFFFFFFF8000
0030FF4000FFA0808080808080FF8000
0030FF4000FF800000FF800000FF8000
0030FF4000FF800000FF800000FF8000
0030FF4000A04030A0FFE06010A04000
0030FF400060C0FFE060A0F0F0A03000
0030FF4060FFA0400000001060E0FF00
00106010202000000000000000004000
ENDCHAR
STARTCHAR  507F
ENCODING  20607
SWIDTH  1000 0
DWIDTH  16 0
BBX  16 15 0 -2
BITMAP
0010C0800030802000C0600040600000
0040FF600020F08000FF8010F0A00000
0080FF203080808080FFC08080808010
00C0E00080FFFFFFFFFFFFFFFFFFFF20
10FFA00080FF0000000000000060FF20
40FF600030A020202020202020408010
0030FF4000FFFFFFFFFFFFFFFFFF3000
0030FF40006060606060606060601000
0030FF40404040404040404040404000
0030FF40F0FFFFFFFFFFFFFFFFFFFF00
0030FF40203060803030303030303000
0030FF400000E0C000000000E0C00000
0030FF400060FF8020202020A0FF3000
0030FF4000E0FFFFFFFFFFFFFFFFA000
00106010104040404040404040404000
ENDCHAR
STARTCHAR  5080
ENCODING  20608
SWIDTH  1000 0
DWIDTH  16 0
BBX  16 16 0 -2
BITMAP
00000000000000000010000000000000
0000C0A01030303040FF803030301000
0030FF6060FFFFFFFFFFFFFFFFFF8000
0080FF1060FF60404040404040FF8000
00E0C00060FF100020FF600000FF8000
20FF600060FF10F0F0FFF0F0F0FF8000
80FF100060FF104060FF804040FF8000
0000FF8060FF100020F0400000FF8000
0000FF8060FFFFFFFFFFFFFFFFFF8000
0000FF80308080E0E080808080803000
0000FF80000010F06060E000C0202000
0000FF80000080F01080FF20FF80C000
0000FF800010F0A00080FF60FFFFF000
0000FF800080FF300080FF2040404000
0000FF8010E0E0000080FFFFFFFFFF30
00006020106030000030606060606010
ENDCHAR
STARTCHAR  5085
ENCODING  20613
SWIDTH  1000 0
DWIDTH  16 0
BBX  16 15 0 -2
BITMAP
0010FF800000000010FF600060F00000
0060FF30FFFFFFFFFFFFFFFFFFFFFF10
00A0F0008080808080FFA08080808000
00E0C00080FFFFFFFFFFFFFFFFFFFF00
20FF800080FF606060FFA06060A0FF00
60FF300080FF40FFFFFFFFFFFF80FF00
0010FF6080FF103030FF80303080FF00
0010FF6080FF40FFFFFFFFFFFF80FF00
0010FF6080FF103030FF80303080FF00
0010FF60206000000040200020604000
0010FF60FFFFFFFFFFFFFFFFFFFFFF10
0010FF608080808080808080A0FF8000
0010FF6020FFE0A08040001060FF1000
0010FF601080A0E0FFFF40FFFFFF1000
00006020000000001040206060600000
ENDCHAR
STARTCHAR  5088
ENCODING  20616
SWIDTH  1000 0
DWIDTH  16 0
BBX  15 15 0 -2
BITMAP
000080804080808080808080808080
0020FF60A0FFFFFFFFFFFFFFFFFFFF
0060FF20206060A0FF60A0FF606060
00C0C00060FFFFFFFFFFFFFFFFFFFF
20FF800060FF4080FF2080FF2080FF
60FF200060FF2060F00060F00080FF
0010FF6060FFFFFFFFFFFFFFF0A0FF
0010FF602080808080808080606080
0010FF601020202020FF8020202020
0010FF60A0FFFFFFFFFFFFFFFFFFFF
0010FF604060606060FFA060806060
0010FF600030FF8000FF8010E0A000
0010FF6000C0E00000FF800060FF30
0010FF6040FF600000FF800000C0A0
000060202040000000603000002040
ENDCHAR
STARTCHAR  508D
ENCODING  20621
SWIDTH  1000 0
DWIDTH  16 0
BBX  16 16 0 -2
BITMAP
00000000000000000000000000000000
0000E0E00010101010FF801010101000
0020FF8040FFFFFFFFFFFFFFFFFFFF00
0080FF20206060606060606060606000
00E0E0000030FF4000000000A0E00000
20FF80000010E06010101010E0A01000
80FF200080FFFFFFFFFFFFFFFFFFFF00
3040603080FF60606060606060A0FF00
0000FF803060000000E0600000306000
0000FF8060FFFFFFFFFFFFFFFFFFFF20
0000FF803080E0E08080808080808010
0000FF800000F0C08080808080803000
0000FF800030FFFFFFFFFFFFFFFF8000
0000FF800060FF100000000000FF8000
0000FF8000A0E0000010FFFFFFFF8000
0000FF80006060000000808080803000
ENDCHAR
STARTCHAR  50A3
ENCODING  20643
SWIDTH  1000 0
DWIDTH  16 0
BBX  16 15 0 -2
BITMAP
0010E0800000000040E0200000000000
0040FF40A0FFFFFFFFFFFFFFFFFFFF00
0080FF1040808080A0FF808080808000
00E0E00000808080A0FF808080806000
10FFA00000FFFFFFFFFFFFFFFFFFF000
40FF60006060606080FF606060606010
0030FF40FFFFFFFFFFFFFFFFFFFFFF30
0030FF402080FF4030403020C0FF3000
0030FF4010E0E00030FF400040FF6000
0030FF4080FFF0C030FF4060FFF0C000
0030FF60E0E060E030FF40A0E040F020
0030FF40000030A0F0FFFFC060100000
0030FF4010E0FFE080FF80A0F0FFC000
0030FF4020A04060FFFF40001060C000
00106020000000208080200000000000
ENDCHAR
STARTCHAR  50A5
ENCODING  20645
SWIDTH  1000 0
DWIDTH  16 0
BBX  16 15 0 -2
BITMAP
0000C0800060A01000F0600060A00000
0020FF400060FF6010FF8010F0800000
0060F010FFFFFFFFFFFFFFFFFFFFFF30
00C0C000FFC080808080808080A0FF30
10FF6000FFA04040404040404080FF30
60FF20002080FFFFFFFFFFFFFFFF2000
2040FF600080FF303030303080FF0000
0010FF600080FF000000000080FF0000
0010FF600080FFFFFFFFFFFFA0FF0000
0010FF60003080808080808060800000
0010FF60000020E0400000E060000000
0010FF600000A0E0000000FF80000000
0010FF600030FF60000000FF80000000
0010FF6000C0E000000000FFFFFFFF60
00006020108040000000008080808030
ENDCHAR
STARTCHAR  50A7
ENCODING  20647
SWIDTH  1000 0
DWIDTH  16 0
BBX  16 15 0 -2
BITMAP
0010E0603030303030E0803030303000
0040FF40FFFFFFFFFFFFFFFFFFFFFF20
0080FF10FFA04040404040404080FF20
00E0E000A0402020202020202040A010
10FFA0000080FFFFFFFFFFFFFFFF3000
40FF60000080FF606060606060601000
0030FF400080FF106060606060606000
0030FF400080FF30FFFFFFFFFFFFFF00
0030FF400080FF00101010FF80101000
0030FF4080A0FF80808080FFC0808010
0030FF40FFFFFFFFFFFFFFFFFFFFFF30
0030FF40000000206000204000000000
0030FF401060C0FFC00030FFF0A03000
0030FF40A0F0A0400000002080E0FF00
00106010200000000000000000003000
ENDCHAR
STARTCHAR  50A8
ENCODING  20648
SWIDTH  1000 0
DWIDTH  16 0
BBX  16 16 0 -2
BITMAP
00000000000000000000100000000000
0010E08030E0300000A0E00000000000
0040FF4040FF4000C0E0F0C0A0006000
0080FF1040FF4000C0E0F0C0A080FF00
00E0E0002060100000A0E000A0FF4000
10FFA0308080206080C0F0C0FFC08010
40FF6080FFFF40E0FFFFFFFFFFFFFF20
0030FF4030FF4010A0F0801000000000
0030FF4030FF60F0FFFFFFFFFFFFFF00
0030FF4030FF60A080F0808080A0FF00
0030FF4030FF400080F000000080FF00
0030FF4030FF400080F0A0FFFFA0FF00
0030FF4030FF400080F030606080FF00
0030FF4030FF601080F020202080FF00
0030FF4030FFFF4080FFFFFFFFC0FF00
00106020104040103060606060406000
ENDCHAR
STARTCHAR  50A9
ENCODING  20649
SWIDTH  1000 0
DWIDTH  16 0
BBX  16 15 0 -2
BITMAP
0000E0A0606060602060FF4060F01000
0030FF60FFFFFFFF6080FF2040A01000
0080F010202040FF60C0FF8080808030
00E0C000FF8020FF60F0FFFFFFFFFF60
20FF6000FF8020FF60FFFF0080FF0000
60FF2000FF8020FF6080FF3080FF3010
0010FF60FF8020FF6080FFFFFFFFFF60
0010FF60E0C080FF3080FF40A0FF4020
0010FF6080FFE0C00080FF0080FF0000
0010FF6020FFFF600080FF80C0FF8030
0010FF6000E0FF100080FFFFFFFFFF60
0010FF6030FFFF600080FF0080FF0000
0010FF6080F0E0E00080FF1080FF1000
0010FF60F08060FF4080FFFFC0FFFF60
00006040A02010A06030606060606020
ENDCHAR
STARTCHAR  50AC
ENCODING  20652
SWIDTH  1000 0
DWIDTH  16 0
BBX  16 15 0 -2
BITMAP
0010F08010E0400000FF80000060E000
0060FF4020FF600000E060000080FF00
0080FF1020FFFFFFFFFFFFFFE0A0FF00
00E0E000108080808080808060608000
10FFA00000F0A0000040FF2000000000
40FF600060FF80404040604040404000
0030FF40A0FFFFFFFFFFFFFFFFFFFF20
0030FF60F0FF80303060FF4030303000
0030FF4020FFFFFFFFFFFFFFFFFFFF20
0030FF4010FFA08080A0FF8080808010
0030FF4010FFA08080A0FF8080808010
0030FF4010FFFFFFFFFFFFFFFFFFFF20
0030FF4010FF60101040FF3010101000
0030FF4010FFFFFFFFA0FFFFFFFFFF40
00106010006060606060606060606010
ENDCHAR
STARTCHAR  50B2
ENCODING  20658
SWIDTH  1000 0
DWIDTH  16 0
BBX  16 15 0 -2
BITMAP
0000A0600000A0600000A04000000000
0040FF806080F0C08040FFC080808020
0080FF30E0FFFFFFFFA0FFFFFFFFFF40
00C0E0003040F0C0402000000080FF00
00F0A000E0FFFFFFFF80FF800080FF00
40FF60002030F0A03010FF800080FF00
0020FF40FFFFFFFFFFA0FF800080FF00
0020FF4080FFC0808040FF800080FF00
0020FF4010FFA0404020E0E010E0E000
0020FF4030FFFFFFFF8060FFE0FF6000
0020FF4040FF6020FF8000C0FFE00000
0020FF4060FF2000FF8000C0FFF01000
0020FF4080FF1000FF8030FFC0FF6000
0020FF4080F000E0FF80A0F010A0E000
00106020406000606040E06000106010
ENDCHAR
STARTCHAR  50BA
ENCODING  20666
SWIDTH  1000 0
DWIDTH  16 0
BBX  16 16 0 -2
BITMAP
00002010000000000000000000000000
0000F080606060606010606060606000
0040FF40FFFFFFFFFF20FFFFFFFFE000
0080FF10E040E060FF20FF8000A0C000
00E0C000FF40FF60FF20FF8000C08000
10FF8000002080E0FF20FFE080300000
40FF4000C0FFFFA0400030A0F0FFE010
0060FF10F08030202020202030A0E020
0060FF101030FFFFFFFFFFFFFFFF0000
0060FF10001060606060606060600000
0060FF10808080808080808080808010
0060FF10FFFFFFFFFFFFFFFFFFFFFF20
0060FF100000203000FF801040000000
0060FF1060C0FF8000FF8020FFE08000
0060FF10C0A03040FFFF80001080E010
00206000000000206060300000000000
ENDCHAR
STARTCHAR  50BB
ENCODING  20667
SWIDTH  1000 0
DWIDTH  16 0
BBX  16 15 0 -2
BITMAP
0000C0A01040404040FFA04040402000
0020FF6040FFFFFFFFFFFFFFFFFF8000
0080FF1040FF60A040203060C0FF8000
00E0C00040FF40C0FFE0F0F0A0FF8000
20FF600040FF60F0E080C0FFE0FF8000
60FF200040FFA0A060606060C0FF8000
0010FF6040FFFFFFFFFFFFFFFFFF8000
0010FF60104060A0E000E0A060401000
0010FF60F0FFE08040004080C0E0FF20
0010FF6020FFFFFFFFFFFFFFFFFF6000
0010FF6010A0806060606060A0FF4000
0010FF6010FFFFE0A080A0F0FFE03000
0010FF60103080E0FFFFFFFFC0602000
0010FF60A0FFE08040104080E0FFFF00
00006020301000000000000000104000
ENDCHAR
STARTCHAR  50CF
ENCODING  20687
SWIDTH  1000 0
DWIDTH  16 0
BBX  16 15 0 -2
BITMAP
00008080001080808080808060000000
0020FF800080FFFFFFFFFFFF60000000
0060FF3020FFC0303030A0FF30303000
00C0E000A0FFFFFFFFFFFFFFFFFFFF00
10FF800000E0C04040E0FF404080FF00
60FF200000E0FFFFFFFFFFFFFFA0FF00
0010FF600060A0F0FFFFA08080608000
0010FF6020A0FFE060E0E0000040C030
0010FF6080E06040C080FF60E0FFE020
0010FF602060E0FFE080FF60FF600000
0010FF6060FFE0606080FF10F0A00000
0010FF60404060E0FF80FF00A0F01000
0010FF6040E0FFA03080FF0030FF6000
0010FF6060A03000FFFFFF0000E0E000
00006020000000008080800000304010
ENDCHAR
STARTCHAR  50D6
ENCODING  20694
SWIDTH  1000 0
DWIDTH  16 0
BBX  15 15 0 -2
BITMAP
0000C0A03040404040F08040404040
0020FF60C0FFFFFFFFFFFFFFFFFFFF
0060FF102060606060FFA060606060
00C0C00020FFFFFFFFFFFFFFFFFFFF
10FF60001060606060606060606030
60FF200030FFFFFFFFFFFFFFFFFF80
2040FF6030FF80606060606040FF80
0010FF6030FFFFFFFFFFFFFFE0FF80
0010FF600020C06010101020C04010
0010FF60C0FFFFFFFFFFFFFFFFFFFF
0010FF604060606060606060606060
0010FF6030FFFFFFFFFFFFFFFFFF80
0010FF6030FF80606060606060FF80
0010FF6030FFFFFFFFFFFFFFE0FF80
000060201060606060606060606030
ENDCHAR
STARTCHAR  50DA
ENCODING  20698
SWIDTH  1000 0
DWIDTH  16 0
BBX  16 15 0 -2
BITMAP
000060C01000000020C0400000000000
0000E0C0A0FFFFFFFFFFFFFFFFFFFF00
0030FF6060808080E0FFE08080808000
00A0F010A0E080E0FFE0FFE080C0FF00
10F0A00060FFFFE0400030C0FFFFA000
60FF3000F0FFE06060606060C0FFFF20
0010FF6060FFFFFFFFFFFFFFFFFF6020
0010FF6000FF80203030303040FF3000
0010FF6000FF80E0FFFFFFFF40FF3000
0010FF6000FFA0606060606060FF3000
0010FF6000FFFFFFFFFFFFFFC0FF3000
0010FF600000106030FF606020000000
0010FF6040C0FFF030FF60E0FFE08000
0010FF60A0C06010F0FF600040A0F000
00006020000000006060200000000000
ENDCHAR
STARTCHAR  50E6
ENCODING  20710
SWIDTH  1000 0
DWIDTH  16 0
BBX  16 15 0 -2
BITMAP
0080F0000020FF60000030FF4080A000
00A0E000F0F0FFFFF0E040FF30A0E000
00E0A00080808080808040FF30608000
00FF8000808080808020A0FF80808030
20FF6010FFFFFFFFFF40F0FFFFFFFF80
40FF3010FF600020FF4030FF60400000
0080FF10FF600020FF4040FFA0FF0000
0080FF10FFFFFFA0FF4060FF80FF0000
0080FF008080FFA0802060FF80FF0000
0080FF008040FF60801080FF80FF0000
0080FF10FF60FF60FF3080F080FF0000
0080FF20FF60FF60FF40A0E080FF0000
0080FF30FF40FF60FF60A0E080FF3010
0080FF40FF40FF60F060A0C080FFFF80
00206000000030100000303020404020
ENDCHAR
STARTCHAR  50E7
ENCODING  20711
SWIDTH  1000 0
DWIDTH  16 0
BBX  16 15 0 -2
BITMAP
0000C0A00000E08000000020E0600000
0020FF6060FFFFFFFFFFFFFFFFFFFF20
0080FF1060FF808080FFC08080A0FF20
00E0C00060FF10FF30FF8080E060FF20
20FF600060FF10FF30FF8080E060FF20
60FF200060FF102010FF80102060FF20
0010FF6060FFFFFFFFFFFFFFFFA0FF20
0010FF60308080808080808080608010
0010FF6000FFFFFFFFFFFFFFFFFF8000
0010FF6000FFA0808080808080FF8000
0010FF6000FF80808080808060FF8000
0010FF6000FF80FFFFFFFFFFC0FF8000
0010FF6000FF80101010101010FF8000
0010FF6000FFFFFFFFFFFFFFE0FF8000
00006020006060606060606040201000
ENDCHAR
STARTCHAR  50EC
ENCODING  20716
SWIDTH  1000 0
DWIDTH  16 0
BBX  16 16 0 -2
BITMAP
00000000000000000000201000000000
0000C0C000E0C0000000FF8000000000
0010FF8020FF80000000301000000000
0060FF3060FFFFFFFFFFFFFFFFFFE000
00A0E000A0FFC0808080FFC080806000
00E0A000C0FFA0404040FFA040402000
30FF600000FFFFFFFFFFFFFFFFFFA000
1060FF4000FF80404040FF8040402000
0030FF4000FFC0808080FFC080804000
0030FF4000FFFFFFFFFFFFFFFFFFA000
0030FF4000FF80000000FF8000000000
0030FF4000FFFFFFFF80FFFFFFFFE000
0030FF40008080808060808080806000
0030FF4010F08080F010A0E010F06000
0030FF4080F01010F0A020FF40A0E000
00106010202000002020002010103000
ENDCHAR
ENDFONT
